<?xml version="1.0" standalone="no"?>
<!DOCTYPE svg PUBLIC "-//W3C//DTD SVG 20010904//EN"
 "http://www.w3.org/TR/2001/REC-SVG-20010904/DTD/svg10.dtd">
<svg version="1.0" xmlns="http://www.w3.org/2000/svg"
 width="1900.000000pt" height="1900.000000pt" viewBox="0 0 1900.000000 1900.000000"
 preserveAspectRatio="xMidYMid meet">
<metadata>
Created by potrace 1.11, written by Peter Selinger 2001-2013
</metadata>
<g transform="translate(0.000000,1900.000000) scale(0.100000,-0.100000)"
fill="#000000" stroke="none">
<path d="M9960 16311 c-221 -90 -528 -355 -726 -626 -280 -383 -409 -783 -371
-1153 5 -40 12 -84 17 -97 l9 -24 83 31 c82 30 162 55 202 65 23 5 24 5 81 21
22 6 81 18 130 26 50 9 99 18 111 20 20 4 152 17 204 20 29 2 29 4 7 76 -9 30
-19 72 -23 94 -3 21 -8 48 -10 60 -5 24 -5 291 1 351 27 322 158 783 305 1075
22 44 37 80 33 79 -5 0 -28 -8 -53 -18z"/>
<path d="M7147 15383 c-33 -33 -119 -273 -140 -393 -7 -35 -19 -101 -23 -125
-18 -95 -25 -424 -11 -560 8 -84 24 -187 37 -235 5 -19 12 -49 15 -67 11 -65
77 -250 124 -349 80 -168 210 -338 333 -435 l36 -29 28 47 c16 27 34 57 41 68
7 11 15 27 19 35 13 26 124 182 183 255 63 79 111 132 194 215 31 32 57 60 57
64 0 3 -26 22 -57 42 -70 45 -175 144 -253 239 -54 66 -190 260 -190 270 0 3
-11 23 -24 43 -129 205 -314 670 -351 882 -7 39 -9 43 -18 33z"/>
<path d="M12247 15284 c-1 -1 -45 -5 -97 -9 -51 -3 -96 -8 -100 -10 -3 -2 -28
-6 -56 -9 -28 -3 -57 -8 -65 -10 -8 -3 -30 -7 -49 -10 -82 -12 -293 -76 -400
-121 -145 -61 -323 -160 -392 -217 -15 -13 -41 -34 -59 -48 -99 -76 -217 -213
-279 -324 -27 -47 -30 -60 -19 -67 8 -5 19 -9 24 -9 6 0 55 -18 110 -39 181
-71 361 -167 523 -279 51 -35 94 -63 96 -61 1 2 11 24 20 49 42 109 148 258
282 395 75 78 220 208 256 233 32 21 132 96 138 103 3 3 57 39 120 81 154 100
339 201 466 252 31 13 52 26 47 29 -26 17 -218 57 -298 63 -80 6 -264 11 -268
8z"/>
<path d="M9765 14249 c-107 -6 -220 -17 -260 -25 -11 -2 -32 -6 -48 -9 -133
-25 -227 -50 -367 -100 -547 -196 -1000 -590 -1278 -1115 -28 -52 -60 -120
-72 -150 -12 -30 -28 -68 -35 -85 -31 -69 -96 -294 -110 -379 -15 -89 -27
-154 -32 -176 -3 -14 -6 -128 -8 -255 -3 -218 5 -325 38 -495 9 -47 57 -229
66 -252 5 -13 22 -57 37 -98 86 -238 227 -480 406 -696 32 -39 215 -222 264
-264 213 -184 491 -341 768 -435 108 -36 276 -78 361 -91 28 -3 59 -8 70 -10
59 -11 187 -18 320 -18 167 0 257 7 375 29 14 3 41 7 60 10 19 3 87 19 150 36
446 115 875 382 1166 724 19 22 45 54 60 70 36 43 146 200 184 265 110 186
228 475 265 650 17 82 36 182 40 210 15 126 20 204 19 345 0 217 -13 320 -69
573 -38 168 -180 497 -276 640 -16 24 -29 46 -29 49 0 22 -198 262 -305 369
-115 115 -301 267 -392 321 -130 76 -178 102 -253 138 -47 23 -101 47 -120 54
-19 7 -48 19 -65 26 -61 27 -263 83 -370 103 -146 28 -170 31 -305 37 -63 4
-122 7 -130 8 -8 1 -64 -1 -125 -4z"/>
<path d="M12548 13425 c-2 -1 -32 -5 -68 -8 -71 -7 -81 -9 -173 -31 -52 -14
-131 -42 -146 -53 -5 -4 17 -47 47 -93 79 -118 218 -462 262 -647 6 -29 15
-53 19 -53 4 0 38 15 77 34 61 30 151 61 209 72 11 2 31 6 45 9 14 2 39 7 55
10 17 3 41 7 55 10 115 23 575 24 700 1 14 -2 49 -7 79 -10 30 -4 64 -9 75
-11 12 -2 37 -7 56 -10 19 -2 46 -7 60 -10 14 -2 50 -10 80 -16 30 -6 93 -22
140 -36 143 -42 136 -43 99 13 -263 396 -873 753 -1399 819 -57 7 -266 15
-272 10z"/>
<path d="M5560 12819 c0 -52 88 -288 146 -390 18 -33 34 -62 34 -64 0 -2 23
-39 52 -82 312 -473 748 -798 1192 -889 65 -13 243 -24 263 -17 7 3 11 9 8 13
-3 4 -7 25 -11 45 -3 21 -7 46 -9 57 -28 143 -41 517 -24 686 l7 64 -52 -8
c-232 -32 -551 36 -916 194 -219 94 -453 226 -610 343 -44 32 -80 54 -80 48z"/>
<path d="M12529 11533 c0 -5 -2 -15 -4 -23 -2 -8 -11 -53 -20 -100 -33 -170
-117 -445 -166 -540 -18 -35 -69 -150 -69 -155 0 -2 17 -6 38 -9 344 -61 873
-485 1237 -991 31 -44 61 -91 66 -104 13 -32 16 -26 25 44 50 421 -147 1028
-462 1420 -172 214 -368 363 -584 444 -63 24 -60 23 -61 14z"/>
<path d="M7585 10403 c-102 -119 -359 -268 -635 -368 -60 -21 -251 -81 -289
-91 -101 -24 -258 -56 -315 -65 -39 -6 -82 -12 -96 -15 -34 -6 -176 -18 -227
-18 -24 0 -43 -2 -43 -3 0 -9 155 -109 219 -142 165 -85 387 -159 574 -191 29
-5 63 -12 77 -15 97 -20 445 -27 590 -12 148 16 339 69 475 132 131 61 312
189 297 211 -4 5 -34 31 -67 58 -140 115 -348 343 -455 500 -25 36 -49 65 -55
65 -5 0 -28 -21 -50 -46z"/>
<path d="M11624 9895 c-16 -13 -42 -36 -59 -50 -113 -99 -405 -282 -548 -344
-77 -34 -90 -48 -62 -71 27 -22 105 -157 141 -242 42 -99 79 -220 105 -343 11
-49 22 -101 25 -115 7 -30 32 -225 43 -330 7 -73 6 -491 -3 -560 -2 -19 -7
-53 -11 -75 l-8 -40 29 25 c233 205 444 608 538 1026 8 39 18 95 22 125 3 30
10 73 14 96 10 58 5 373 -8 448 -19 114 -52 229 -93 320 -27 62 -81 155 -90
155 -4 0 -20 -11 -35 -25z"/>
<path d="M9100 9305 c0 -86 -41 -268 -80 -360 -92 -213 -146 -316 -255 -485
-136 -210 -298 -409 -458 -562 -73 -70 -78 -76 -51 -73 16 2 56 6 89 9 366 32
855 279 1173 594 199 198 329 396 396 607 27 87 49 195 41 204 -3 3 -58 6
-122 7 -110 2 -197 8 -275 18 -61 8 -133 19 -143 22 -5 1 -28 5 -50 9 -42 7
-58 11 -187 43 l-78 19 0 -52z"/>
<path d="M13695 6823 c-57 -4 -245 -22 -275 -28 -120 -20 -166 -30 -277 -61
-738 -200 -1346 -739 -1636 -1449 -48 -116 -111 -313 -121 -379 -4 -21 -8 -41
-10 -45 -2 -3 -7 -24 -10 -46 -8 -51 -15 -92 -21 -130 -25 -147 -26 -496 -1
-660 23 -162 25 -171 52 -279 108 -431 330 -823 644 -1136 226 -227 421 -365
702 -500 330 -157 674 -234 1048 -234 142 0 282 7 336 18 12 2 39 7 60 10 87
14 112 19 189 38 44 11 87 21 95 23 25 5 191 61 247 84 415 165 799 462 1070
826 61 82 148 217 175 270 8 17 34 66 56 111 90 179 182 447 208 609 3 21 8
47 10 59 31 149 45 448 29 626 -12 140 -38 296 -71 420 -117 440 -326 803
-648 1126 -326 325 -690 534 -1131 649 -220 57 -520 90 -720 78z m318 -177
c18 -3 59 -8 92 -11 177 -19 465 -103 658 -194 179 -83 362 -199 508 -321 81
-67 247 -236 310 -315 71 -88 189 -259 189 -273 0 -6 3 -12 8 -14 13 -6 119
-220 160 -323 46 -117 84 -243 112 -373 19 -90 22 -114 40 -257 12 -107 4
-416 -15 -545 -60 -405 -228 -791 -485 -1115 -69 -86 -231 -252 -320 -326 -56
-47 -236 -179 -244 -179 -2 0 -35 -19 -72 -42 -212 -128 -557 -253 -789 -284
-27 -3 -59 -8 -70 -10 -45 -9 -197 -18 -305 -18 -170 1 -303 13 -450 44 -30 6
-66 14 -80 16 -123 24 -334 101 -490 179 -366 182 -679 459 -907 804 -142 214
-286 560 -326 781 -26 143 -31 174 -43 290 -8 77 -8 318 0 375 2 22 8 69 11
105 15 143 69 360 132 530 65 175 234 477 331 591 11 13 37 44 57 69 378 462
983 775 1575 817 47 3 86 7 88 8 5 4 292 -4 325 -9z"/>
<path d="M12952 6374 c-123 -52 -143 -62 -249 -123 -40 -23 -73 -47 -73 -53 0
-6 -8 -20 -17 -31 -17 -19 -17 -19 3 -13 12 4 28 0 40 -10 19 -15 19 -15 -1
-5 -14 6 -26 5 -38 -4 -23 -16 -22 -25 4 -25 11 0 17 5 14 10 -3 6 -1 10 4 10
6 0 11 -9 11 -20 0 -14 -7 -20 -24 -20 -43 0 -56 -32 -43 -113 8 -47 26 -72
52 -72 11 0 27 -6 34 -13 13 -13 19 -10 44 19 73 83 99 109 110 110 35 2 67
12 109 34 26 14 51 24 55 23 5 -1 35 4 68 11 74 16 118 40 112 62 -4 16 15 50
30 51 41 5 55 38 23 58 -12 8 -11 10 7 10 12 0 23 -5 25 -12 3 -7 7 -5 11 5 5
13 0 20 -15 26 -19 7 -17 9 18 26 22 10 59 24 84 31 57 15 20 21 -68 10 -18
-2 -35 0 -38 5 -3 5 1 9 8 10 7 1 -3 5 -22 10 -47 12 -245 7 -278 -7z m191
-189 c-3 -9 -8 -14 -10 -11 -3 3 -2 9 2 15 9 16 15 13 8 -4z m-10 -49 c4 -10
0 -12 -14 -9 -10 3 -16 9 -13 14 8 13 21 11 27 -5z"/>
<path d="M14369 6349 c-9 -5 -9 -9 -2 -9 6 0 18 -3 27 -6 9 -3 16 -2 16 4 0
15 -25 21 -41 11z"/>
<path d="M14242 6338 c-11 -4 -4 -7 20 -7 20 -1 39 2 41 7 6 9 -38 9 -61 0z"/>
<path d="M14466 6342 c-3 -5 8 -6 25 -4 16 2 29 6 29 8 0 8 -49 4 -54 -4z"/>
<path d="M13835 6330 c-2 -3 -27 -5 -55 -4 -28 0 -53 -2 -56 -7 -6 -11 27 -27
46 -22 13 4 13 3 0 -6 -12 -8 -9 -12 14 -21 25 -9 32 -8 48 10 22 23 27 24 51
5 11 -7 26 -11 35 -7 12 4 5 10 -24 23 l-39 18 35 -3 c29 -3 87 9 70 14 -16 5
-122 5 -125 0z"/>
<path d="M14430 6330 c-13 -8 -12 -10 3 -10 9 0 17 5 17 10 0 12 -1 12 -20 0z"/>
<path d="M14599 6265 c-3 -2 -25 -7 -50 -9 -68 -7 -96 -22 -122 -63 -22 -33
-23 -39 -8 -44 9 -4 19 -5 24 -2 4 2 7 -1 7 -6 0 -6 19 -11 43 -11 l42 1 -32
14 c-38 16 -38 18 -17 50 17 26 77 51 132 54 16 1 16 21 -1 21 -8 0 -16 -2
-18 -5z"/>
<path d="M13250 6229 c0 -5 5 -7 10 -4 6 3 10 8 10 11 0 2 -4 4 -10 4 -5 0
-10 -5 -10 -11z"/>
<path d="M14908 6203 c-42 -5 -46 -10 -20 -29 16 -13 16 -14 -1 -8 -23 8 -69
-4 -62 -16 3 -6 2 -10 -3 -10 -5 0 -13 10 -16 23 -6 21 -7 21 -18 3 -8 -15 -8
-21 0 -24 7 -2 12 -10 12 -17 0 -15 27 -28 55 -27 17 1 18 0 2 -5 -11 -3 -16
-11 -13 -19 5 -14 -18 -44 -35 -44 -12 0 -12 17 1 25 14 9 12 35 -2 35 -7 0
-22 20 -33 45 -11 26 -26 45 -35 45 -9 0 -22 6 -29 13 -11 10 -13 10 -7 0 4
-7 2 -13 -3 -13 -6 0 -11 -6 -11 -14 0 -8 -6 -16 -12 -18 -14 -5 -2 -20 42
-52 19 -14 20 -17 5 -11 -24 8 -46 13 -105 24 -25 5 -54 12 -65 16 -20 7 -20
6 -1 -9 11 -9 24 -16 30 -16 5 0 7 -3 3 -6 -9 -10 -117 -13 -111 -3 7 12 2 11
-39 -6 -19 -8 -37 -11 -40 -8 -4 3 -9 -2 -13 -11 -7 -18 -39 -22 -50 -4 -4 7
-3 8 4 4 7 -4 12 -2 12 3 0 12 -1 12 -37 16 -21 2 -21 1 -8 -19 20 -27 19 -38
-2 -32 -21 6 -58 -18 -49 -33 4 -6 -5 -7 -26 0 -40 11 -38 11 -38 -1 0 -5 7
-10 17 -10 9 0 14 -3 10 -6 -10 -11 -45 6 -61 30 l-15 24 59 -5 c54 -5 60 -4
60 13 0 20 -67 54 -111 56 -13 1 -30 6 -36 11 -7 5 -19 7 -28 4 -8 -4 -18 0
-22 7 -10 16 -63 27 -63 13 0 -6 -5 -5 -13 1 -7 6 -18 7 -26 2 -8 -4 -20 -6
-26 -3 -7 2 -19 -3 -28 -12 -9 -9 -18 -11 -22 -5 -4 6 -15 5 -30 -2 -13 -6
-22 -15 -19 -19 3 -5 -5 -8 -17 -6 -14 1 -23 -4 -24 -15 -4 -24 -92 -111 -104
-103 -6 3 -11 2 -11 -3 0 -5 -13 -15 -29 -22 -24 -10 -30 -19 -33 -52 -3 -33
0 -43 19 -55 20 -14 26 -13 57 6 25 16 35 18 39 9 2 -7 4 -16 3 -19 0 -4 7
-16 17 -27 18 -20 18 -20 -2 -27 -12 -4 -18 -12 -14 -21 7 -20 23 -18 24 4 0
9 3 12 5 5 4 -9 16 -6 45 9 21 11 36 24 33 29 -7 13 6 50 16 44 15 -9 19 23 4
35 -26 23 -17 56 21 74 22 11 32 22 29 31 -7 17 36 31 63 21 14 -6 10 -12 -20
-33 -30 -21 -37 -32 -35 -55 3 -32 28 -52 56 -44 41 13 93 14 89 3 -3 -11 -14
-13 -74 -16 -22 -1 -34 -31 -13 -31 6 0 10 -7 10 -15 0 -8 -4 -15 -8 -15 -16
0 -30 23 -25 38 5 10 2 13 -6 8 -7 -5 -10 -14 -7 -21 3 -8 -1 -19 -9 -25 -8
-6 -11 -18 -8 -26 9 -23 -16 -45 -43 -38 -14 4 -38 1 -54 -6 -21 -9 -34 -9
-43 -2 -7 6 -18 7 -26 3 -16 -10 -51 -3 -51 11 0 5 5 6 10 3 6 -3 10 -1 10 4
0 6 -5 11 -11 11 -8 0 -8 4 -1 13 5 6 7 20 3 30 -6 17 -8 16 -28 -3 -19 -17
-21 -25 -12 -47 11 -30 7 -36 -29 -41 -15 -2 -29 -7 -30 -13 -2 -5 -8 -7 -13
-4 -4 3 -11 -6 -15 -20 -5 -21 -23 -32 -38 -22 -2 1 -14 -11 -26 -26 -15 -18
-28 -26 -40 -22 -11 3 -20 0 -24 -10 -4 -11 -13 -14 -31 -9 -19 5 -25 2 -25
-10 0 -9 6 -16 14 -16 8 0 23 -12 34 -27 15 -22 17 -35 11 -59 -8 -27 -13 -31
-36 -27 -39 5 -112 5 -122 -1 -4 -3 -8 -24 -9 -47 -1 -23 -7 -48 -13 -55 -6
-7 -7 -19 -3 -26 5 -7 9 -20 9 -28 0 -9 7 -14 19 -12 11 2 25 -4 32 -13 9 -12
19 -15 36 -9 13 4 31 8 40 9 23 0 68 45 68 67 0 20 30 59 40 53 4 -3 15 4 25
15 10 11 15 20 10 20 -4 0 -2 7 5 15 8 9 22 12 41 8 19 -3 38 1 56 12 27 18
27 18 52 -12 14 -16 42 -40 61 -53 60 -42 75 -59 63 -71 -7 -7 -26 -12 -42
-13 -39 -1 -39 -11 -1 -31 29 -15 30 -15 30 5 0 11 6 20 14 20 17 0 27 25 19
47 -5 13 -2 15 15 11 33 -9 27 8 -8 22 -16 7 -27 17 -23 23 3 6 1 7 -5 3 -12
-7 -75 56 -78 79 -1 7 4 16 12 19 8 3 14 -1 14 -10 0 -11 6 -14 16 -10 8 3 12
2 9 -4 -4 -6 8 -18 25 -28 53 -29 81 -54 76 -67 -2 -7 1 -18 7 -24 6 -6 7 -11
3 -11 -5 0 3 -9 18 -21 14 -11 24 -25 21 -29 -3 -5 5 -20 17 -32 l23 -23 3 28
c3 23 7 28 23 24 15 -4 18 -2 10 7 -6 7 -8 15 -5 19 3 3 -3 3 -14 1 -14 -4
-21 0 -25 15 -4 16 -1 21 11 19 10 -2 16 2 15 8 -1 6 8 11 20 10 16 -1 22 -7
21 -23 0 -12 3 -20 7 -17 4 2 10 0 14 -6 3 -5 -2 -10 -12 -10 -15 0 -14 -2 5
-16 12 -8 20 -18 18 -22 -12 -20 54 -37 79 -20 6 4 17 3 25 -3 18 -11 60 -12
60 -1 0 4 8 8 18 8 20 0 22 -38 4 -103 -14 -46 -35 -59 -74 -44 -15 6 -31 5
-41 -1 -10 -5 -31 -6 -50 -1 -18 4 -36 8 -42 8 -5 1 -27 9 -47 19 -49 24 -88
15 -88 -19 0 -35 -13 -38 -62 -11 -61 35 -80 44 -108 50 -45 10 -57 23 -43 45
9 14 10 28 4 45 -9 21 -15 23 -58 20 -26 -2 -48 -3 -48 -4 0 0 -25 -2 -55 -5
-30 -2 -74 -13 -98 -25 -36 -17 -49 -19 -80 -10 -27 7 -38 7 -41 -2 -2 -6 -23
-31 -47 -54 -32 -31 -44 -50 -44 -71 0 -21 -9 -36 -30 -51 -16 -12 -34 -22
-39 -22 -5 0 -13 -9 -16 -20 -3 -11 -11 -20 -16 -20 -5 0 -14 -11 -19 -25 -5
-13 -21 -43 -36 -66 -21 -34 -24 -46 -15 -61 13 -21 7 -134 -9 -154 -7 -7 -8
-19 -4 -26 5 -7 7 -20 6 -30 -2 -9 13 -31 31 -50 19 -18 42 -50 50 -70 9 -21
20 -38 25 -38 5 0 24 -16 43 -35 37 -38 74 -52 94 -35 14 12 76 16 93 7 5 -4
31 2 57 13 25 11 57 22 70 24 27 5 65 -18 65 -40 0 -12 8 -15 33 -11 53 7 71
-13 64 -70 -4 -26 -9 -57 -12 -68 -4 -14 5 -35 30 -68 39 -51 68 -119 66 -155
0 -13 4 -32 10 -43 8 -16 6 -29 -11 -61 -37 -71 -37 -126 -1 -199 17 -35 34
-89 37 -119 4 -34 19 -78 40 -115 18 -33 35 -80 38 -104 6 -50 20 -64 56 -55
14 4 43 8 65 10 59 3 95 20 135 63 60 65 90 113 90 143 0 24 6 32 30 41 34 13
42 46 26 108 -6 21 0 32 36 67 23 23 48 42 54 42 6 0 19 9 29 20 22 24 28 146
7 166 -7 7 -13 30 -14 51 0 21 -4 43 -9 48 -12 16 26 91 78 153 27 31 54 61
61 65 48 30 118 142 141 225 14 49 3 53 -79 32 -67 -17 -76 -18 -92 -4 -9 9
-15 21 -12 28 3 7 -20 36 -51 64 -30 28 -55 59 -55 69 0 9 -9 27 -21 39 -19
21 -27 39 -28 75 -1 8 -10 25 -21 37 -11 12 -20 25 -20 29 0 4 -11 30 -25 57
-18 35 -22 53 -14 60 7 8 19 1 39 -24 16 -19 30 -40 30 -45 0 -6 9 -18 19 -27
11 -9 25 -34 30 -56 6 -21 22 -49 36 -62 14 -13 25 -28 25 -33 0 -5 8 -21 19
-35 10 -15 21 -42 24 -60 11 -58 14 -66 25 -70 16 -5 174 69 201 95 13 13 32
23 42 23 11 0 19 3 19 8 0 4 14 16 30 27 20 13 29 26 26 38 -2 9 1 17 7 17 14
0 39 49 31 62 -3 5 -23 20 -45 34 -25 16 -39 32 -39 46 0 19 -3 18 -31 -11
-35 -38 -72 -39 -77 -3 -4 23 -22 31 -22 10 -1 -7 -7 2 -15 20 -8 17 -18 32
-23 32 -13 0 -32 47 -26 64 8 20 44 8 56 -19 19 -41 66 -68 109 -62 31 4 40 1
52 -16 13 -20 23 -22 113 -22 99 0 99 0 130 -32 17 -18 36 -33 43 -33 6 0 11
-5 11 -11 0 -5 -6 -7 -12 -3 -7 4 -1 -5 13 -20 27 -28 59 -27 59 2 0 30 11 4
16 -39 6 -48 23 -106 47 -154 17 -36 50 -109 65 -147 15 -37 32 -35 59 6 18
28 22 47 20 101 -2 57 1 68 17 77 11 6 31 25 45 42 14 17 38 42 53 56 16 13
28 30 28 36 0 15 23 24 60 24 16 0 30 6 33 13 2 6 12 -5 22 -25 11 -21 22 -38
26 -38 15 0 48 -67 43 -87 -7 -25 25 -37 44 -16 7 7 17 13 21 13 10 0 41 -90
41 -119 0 -12 5 -21 11 -21 8 0 8 -4 2 -12 -18 -25 -8 -72 20 -100 15 -15 27
-37 27 -50 0 -29 25 -67 66 -102 41 -33 48 -33 30 2 -8 15 -16 42 -19 61 -6
36 -30 67 -58 76 -11 4 -19 15 -19 25 0 10 -7 25 -15 34 -12 11 -14 28 -9 72
6 48 9 54 19 40 7 -9 16 -16 21 -16 5 0 24 -16 43 -35 33 -36 52 -39 46 -7 -2
9 -9 53 -15 97 -52 379 -230 777 -483 1080 -77 92 -249 258 -335 324 -77 58
-188 133 -194 129 -2 -1 -20 -3 -40 -5z m-8 -123 c0 -5 -2 -10 -4 -10 -3 0 -8
5 -11 10 -3 6 -1 10 4 10 6 0 11 -4 11 -10z m-591 -554 c-10 -21 -15 -23 -41
-15 -44 12 -45 17 -7 28 55 15 60 14 48 -13z m313 9 c13 -17 9 -37 -6 -32 -8
3 -20 -1 -26 -9 -10 -11 -6 -19 19 -43 17 -16 31 -35 32 -43 0 -10 2 -10 6 0
7 18 16 15 32 -9 11 -19 11 -21 -3 -16 -22 9 -30 -10 -12 -29 9 -8 16 -18 17
-22 0 -4 2 -17 5 -29 5 -31 -33 -40 -75 -19 -24 13 -31 23 -31 46 0 17 5 30
13 30 7 1 5 6 -5 14 -10 7 -18 18 -18 24 0 5 -6 12 -13 15 -8 3 -23 21 -35 40
-23 40 -18 54 33 80 32 17 56 18 67 2z m-433 -12 c25 -43 26 -44 59 -32 30 10
62 0 107 -34 5 -4 19 -14 29 -21 12 -8 17 -19 13 -30 -8 -21 -77 -22 -117 -1
-31 16 -64 14 -99 -4 -27 -15 -69 -4 -76 19 -3 11 1 33 10 49 8 17 14 33 13
35 -3 6 34 35 44 36 4 0 12 -8 17 -17z m-63 -140 c-10 -10 -46 -11 -40 -1 3 4
15 8 26 8 12 0 18 -3 14 -7z m158 -1099 c24 -9 -10 -74 -40 -74 -23 0 -1 78
23 80 1 0 8 -3 17 -6z m-94 -159 c0 -11 7 -29 15 -39 8 -11 15 -27 15 -35 0
-24 -36 49 -44 89 -5 26 -4 31 3 20 6 -8 11 -24 11 -35z m116 -183 c1 -32 -1
-41 -7 -27 -10 26 -11 75 -1 75 4 0 8 -21 8 -48z"/>
<path d="M14370 6100 c0 -5 7 -10 15 -10 8 0 15 5 15 10 0 6 -7 10 -15 10 -8
0 -15 -4 -15 -10z"/>
<path d="M12380 6028 l-25 -21 25 8 c14 4 34 14 45 21 19 14 19 14 0 14 -11
-1 -31 -10 -45 -22z"/>
<path d="M13110 6030 c-13 -9 -13 -10 0 -11 10 0 8 -3 -5 -9 -19 -8 -19 -9 -1
-9 11 -1 16 -4 12 -8 -3 -4 8 -12 26 -18 25 -8 44 -8 77 2 62 18 77 32 53 49
-14 10 -33 11 -73 5 -30 -5 -59 -5 -64 -1 -6 5 -17 5 -25 0z"/>
<path d="M12317 5973 c-10 -9 -9 -23 2 -23 5 0 11 7 15 15 5 15 -5 20 -17 8z"/>
<path d="M12270 5880 c-11 -11 -34 -23 -51 -27 -42 -8 -171 -160 -270 -319
-66 -105 -66 -106 -89 -149 l-22 -40 23 22 c13 11 42 27 64 35 29 9 40 19 40
33 0 21 27 38 110 67 38 13 46 14 31 3 -11 -8 -23 -15 -28 -15 -4 0 -8 -7 -8
-15 0 -19 5 -19 34 0 13 9 37 18 52 21 16 3 32 12 37 19 4 8 14 12 22 8 11 -4
13 -1 9 11 -8 20 -23 21 -30 1 -4 -8 -10 -15 -16 -15 -5 0 -7 4 -4 9 3 5 -3
11 -14 14 -10 3 -21 0 -23 -7 -2 -6 -6 2 -9 17 -3 15 -3 26 0 23 2 -3 11 2 19
10 25 24 -3 34 -57 19 -21 -6 -20 -4 8 14 25 17 46 20 100 19 46 -1 75 3 92
14 62 40 68 28 12 -26 l-57 -56 43 0 c26 0 41 -4 37 -10 -3 -5 -2 -10 4 -10 5
0 13 5 16 11 5 6 12 4 21 -8 14 -19 16 -16 18 35 1 27 -2 32 -16 28 -11 -2
-18 1 -18 11 0 8 -5 11 -12 8 -7 -4 -5 0 4 8 17 13 38 58 38 79 0 5 -7 8 -14
5 -10 -4 -13 -1 -9 8 3 9 -3 18 -13 22 -31 10 -54 39 -42 51 6 6 7 23 2 44 -4
18 -7 36 -6 41 3 13 -7 8 -28 -13z m-210 -284 c0 -2 -8 -10 -17 -17 -16 -13
-17 -12 -4 4 13 16 21 21 21 13z"/>
<path d="M13427 5845 c-15 -8 -27 -9 -27 -4 0 6 -5 7 -11 3 -8 -4 -7 -9 2 -14
7 -5 14 -16 15 -24 1 -9 -2 -13 -8 -10 -6 4 -8 1 -6 -7 3 -8 10 -13 16 -12 7
2 9 -4 5 -14 -5 -12 -2 -15 9 -10 10 3 19 0 22 -9 9 -22 8 -24 -10 -24 -9 0
-14 -6 -11 -12 2 -7 -3 -18 -12 -25 -14 -11 -14 -12 3 -13 17 0 17 -2 -4 -20
l-24 -20 25 4 c13 3 24 5 24 6 0 1 19 3 43 5 49 2 48 2 57 38 6 23 5 26 -11
20 -11 -4 -15 -3 -10 5 4 6 -2 20 -14 32 -11 11 -20 24 -20 29 0 5 -6 11 -12
14 -10 3 -10 7 0 19 15 19 0 34 -20 22 -9 -5 -8 -2 1 9 19 24 10 29 -22 12z"/>
<path d="M13870 5819 c0 -5 5 -7 10 -4 6 3 10 8 10 11 0 2 -4 4 -10 4 -5 0
-10 -5 -10 -11z"/>
<path d="M13346 5754 c-8 -8 -22 -14 -31 -14 -12 0 -14 -4 -5 -19 7 -13 7 -22
0 -26 -23 -14 -9 -27 22 -21 41 8 56 23 60 60 3 33 -22 44 -46 20z"/>
<path d="M12175 5620 c3 -5 14 -10 23 -10 15 0 15 2 2 10 -20 13 -33 13 -25 0z"/>
<path d="M13689 5434 c-1 -5 -1 -17 0 -26 1 -10 -2 -18 -7 -18 -6 0 -9 -8 -7
-17 2 -10 4 -24 4 -32 1 -10 4 -11 14 -2 14 11 16 85 4 98 -4 3 -8 2 -8 -3z"/>
<path d="M13550 5349 c0 -5 5 -7 10 -4 6 3 10 8 10 11 0 2 -4 4 -10 4 -5 0
-10 -5 -10 -11z"/>
<path d="M14020 5240 c0 -12 28 -21 35 -11 2 5 -4 11 -15 14 -11 3 -20 2 -20
-3z"/>
<path d="M14215 5230 c-8 -13 15 -13 35 0 12 8 11 10 -7 10 -12 0 -25 -4 -28
-10z"/>
<path d="M13159 5053 c-13 -16 -12 -17 4 -4 16 13 21 21 13 21 -2 0 -10 -8
-17 -17z"/>
<path d="M11667 4870 c-13 -36 -4 -49 30 -47 18 2 32 7 31 12 -2 6 -6 9 -10 8
-5 -2 -8 2 -8 7 0 6 -6 10 -14 10 -8 0 -16 6 -19 13 -3 9 -6 8 -10 -3z"/>
<path d="M11765 4822 c-3 -3 0 -11 6 -19 9 -10 6 -13 -15 -13 -15 0 -25 -4
-22 -9 3 -4 17 -6 31 -3 16 3 25 0 25 -8 0 -9 3 -10 14 -1 7 6 25 12 40 13 14
1 26 5 26 8 0 16 -93 44 -105 32z"/>
<path d="M11645 4780 c-3 -5 3 -10 15 -10 12 0 18 5 15 10 -3 6 -10 10 -15 10
-5 0 -12 -4 -15 -10z"/>
<path d="M11900 4780 c0 -5 7 -10 15 -10 8 0 15 5 15 10 0 6 -7 10 -15 10 -8
0 -15 -4 -15 -10z"/>
<path d="M11728 4593 c-27 -13 -48 -28 -48 -33 0 -5 -8 -19 -17 -30 -15 -18
-19 -18 -34 -4 -11 10 -19 12 -24 5 -3 -6 -1 -11 5 -11 6 0 8 -5 5 -10 -4 -6
-2 -16 3 -23 19 -23 18 -106 -2 -128 -15 -18 -17 -34 -12 -123 5 -91 10 -142
21 -214 2 -13 16 -43 30 -68 14 -24 23 -44 19 -44 -15 0 34 -44 76 -68 55 -31
80 -56 86 -85 3 -12 7 -74 10 -137 3 -63 7 -133 10 -155 3 -22 7 -68 9 -103 4
-71 27 -119 130 -267 90 -128 101 -141 120 -125 23 19 18 33 -16 53 -31 17
-31 18 -13 38 11 12 17 32 16 46 -2 15 0 23 6 19 6 -3 13 -2 17 4 3 5 -3 10
-13 10 -16 0 -32 17 -32 34 0 1 12 2 28 1 24 0 27 3 24 28 -3 22 0 27 20 27
42 0 66 12 72 33 7 27 -13 75 -34 80 -8 3 8 2 35 0 l51 -5 16 38 c9 22 21 53
27 69 6 17 9 20 7 7 -2 -12 0 -20 5 -16 5 3 9 11 9 17 0 7 7 25 16 42 8 16 13
44 11 62 -4 25 1 38 21 58 14 14 31 24 38 21 7 -3 15 2 18 10 3 8 16 14 28 14
13 0 30 6 39 13 24 19 53 126 52 191 -1 54 2 64 44 123 32 46 45 75 45 99 0
36 -18 68 -33 59 -4 -3 -24 9 -44 27 -35 30 -62 38 -137 42 -14 0 -24 4 -22 8
7 11 -43 40 -71 42 -14 0 -25 4 -25 7 0 11 -40 18 -46 8 -3 -5 -11 -9 -17 -9
-7 0 -1 9 13 20 22 17 24 21 12 41 -8 12 -15 30 -17 41 -3 11 -10 27 -16 35
-18 21 -79 44 -100 38 -13 -4 -31 6 -59 35 -24 24 -45 38 -52 34 -8 -5 -9 -2
-5 10 5 12 -1 20 -18 28 -13 6 -22 15 -19 19 5 8 -30 4 -45 -6 -19 -11 -89 8
-115 31 -18 17 -26 20 -26 10 0 -15 -24 -29 -34 -19 -3 4 -1 12 5 20 15 18 3
15 -53 -14z m55 -48 c-7 -21 -13 -19 -13 6 0 11 4 18 10 14 5 -3 7 -12 3 -20z"/>
<path d="M14748 4613 c7 -3 16 -2 19 1 4 3 -2 6 -13 5 -11 0 -14 -3 -6 -6z"/>
<path d="M12015 4570 c-3 -5 -1 -10 4 -10 6 0 11 5 11 10 0 6 -2 10 -4 10 -3
0 -8 -4 -11 -10z"/>
<path d="M15387 4533 c-10 -9 -8 -65 1 -81 11 -17 42 -4 42 17 0 21 -35 73
-43 64z"/>
<path d="M15971 4524 c0 -11 3 -14 6 -6 3 7 2 16 -1 19 -3 4 -6 -2 -5 -13z"/>
<path d="M15750 4422 c0 -5 14 -23 30 -40 17 -18 30 -36 30 -42 0 -5 6 -10 13
-11 6 0 25 -28 42 -62 39 -81 95 -153 106 -135 14 22 10 92 -7 116 -8 12 -12
26 -9 32 3 5 -13 22 -35 37 -23 16 -58 44 -78 64 -35 34 -92 59 -92 41z"/>
<path d="M15220 4400 c-8 -5 -12 -11 -9 -14 2 -3 11 -1 19 4 8 5 12 11 9 14
-2 3 -11 1 -19 -4z"/>
<path d="M15800 4311 c0 -5 5 -13 10 -16 6 -3 10 -2 10 4 0 5 -4 13 -10 16 -5
3 -10 2 -10 -4z"/>
<path d="M15835 4240 c3 -5 8 -10 11 -10 2 0 4 5 4 10 0 6 -5 10 -11 10 -5 0
-7 -4 -4 -10z"/>
<path d="M14640 3935 c0 -7 -6 -18 -12 -22 -7 -4 -18 -17 -24 -28 -6 -11 -24
-26 -40 -34 -38 -19 -44 -29 -40 -71 1 -20 -5 -48 -14 -65 -9 -16 -16 -36 -14
-42 1 -7 2 -24 3 -38 1 -31 40 -52 66 -37 19 10 83 175 87 223 1 16 8 31 14
33 7 3 11 13 9 23 -13 62 -16 73 -25 73 -6 0 -10 -7 -10 -15z"/>
<path d="M12276 2892 c-3 -5 8 -9 24 -10 17 0 30 4 30 9 0 11 -47 12 -54 1z"/>
<path d="M12775 2820 c27 -12 43 -12 25 0 -8 5 -22 9 -30 9 -10 0 -8 -3 5 -9z"/>
<path d="M14475 2534 c-16 -7 -81 -30 -144 -50 -96 -32 -118 -36 -143 -26 -20
7 -38 7 -61 0 -39 -12 -294 -22 -507 -20 -165 2 -244 -8 -294 -39 -17 -10 -38
-19 -46 -19 -20 0 -112 -45 -105 -51 2 -3 -18 -13 -45 -23 -54 -20 -62 -31
-27 -39 12 -2 63 -16 112 -30 98 -27 171 -44 225 -51 178 -25 181 -25 350 -26
143 -1 174 1 320 21 90 13 129 21 180 34 3 1 23 5 45 10 110 22 366 122 494
193 l65 36 -45 19 c-27 12 -71 20 -114 22 -82 2 -131 12 -163 33 -31 20 -61
22 -97 6z"/>
<path d="M7649 6286 c-2 -2 -41 -7 -86 -10 -45 -4 -91 -9 -103 -11 -12 -2 -48
-7 -81 -10 -33 -4 -70 -8 -82 -11 -12 -2 -38 -7 -57 -10 -19 -2 -46 -7 -60
-10 -57 -10 -69 -13 -101 -18 -27 -4 -210 -44 -279 -61 -200 -49 -390 -102
-589 -165 l-134 -42 89 -57 c49 -32 122 -83 162 -114 40 -30 80 -54 90 -52 99
19 443 27 543 13 224 -31 366 -116 432 -256 26 -55 30 -75 29 -145 0 -94 -15
-144 -77 -269 -96 -192 -276 -392 -591 -658 -194 -164 -595 -430 -919 -610
-86 -48 -446 -229 -535 -269 -555 -250 -1127 -432 -1555 -496 -60 -9 -123 -18
-140 -21 -59 -11 -451 -13 -505 -2 -216 41 -350 122 -409 248 -39 84 -40 198
-2 307 54 156 151 298 330 484 l118 124 7 135 c4 74 11 160 15 190 5 30 7 56
6 58 -3 4 -261 -167 -400 -265 -118 -83 -365 -275 -485 -377 -490 -418 -774
-807 -785 -1075 -3 -93 14 -145 67 -205 106 -121 342 -188 663 -189 127 0 358
15 435 28 14 3 48 7 75 11 28 3 82 12 120 19 39 8 90 17 115 20 25 3 63 11 85
17 22 6 54 12 70 15 17 2 93 20 170 40 77 19 149 37 159 39 185 37 1008 313
1281 430 17 7 116 49 220 93 105 44 240 103 300 131 61 28 137 63 170 78 361
164 954 483 1303 699 59 36 116 71 127 77 104 58 732 498 765 536 3 3 25 21
50 40 25 19 47 37 50 40 3 3 52 45 110 95 103 88 353 332 421 410 265 307 376
561 327 752 -13 53 -100 148 -158 175 -114 51 -141 60 -230 77 -30 6 -71 13
-90 17 -37 7 -445 16 -451 10z"/>
<path d="M4930 5908 c-515 -61 -969 -341 -1243 -764 -55 -85 -147 -263 -147
-284 0 -9 -4 -20 -9 -25 -8 -9 -42 -105 -47 -132 -1 -6 -7 -27 -13 -45 -6 -18
-12 -44 -15 -58 -2 -14 -9 -45 -14 -70 -25 -111 -35 -345 -20 -496 23 -231
111 -486 242 -702 48 -78 52 -82 80 -76 44 10 48 10 101 18 76 12 353 82 504
128 189 57 518 175 636 228 24 11 130 58 205 90 115 50 470 231 600 305 262
150 529 324 703 460 52 40 230 185 241 195 12 12 -38 157 -94 275 -192 401
-535 710 -960 863 -179 65 -336 92 -545 96 -77 1 -169 -1 -205 -6z"/>
<path d="M6728 3791 c-28 -17 -218 -127 -303 -175 -213 -121 -741 -392 -895
-460 -36 -16 -108 -49 -160 -73 -52 -25 -135 -62 -185 -83 -49 -20 -110 -47
-135 -58 -25 -11 -115 -48 -200 -82 -85 -34 -168 -67 -185 -74 -16 -7 -83 -33
-147 -56 -65 -24 -118 -46 -118 -49 0 -12 197 -83 306 -110 82 -21 98 -24 214
-40 103 -15 409 -5 490 15 14 3 36 8 50 10 186 34 405 127 590 249 123 82 155
108 275 230 128 129 218 256 300 420 53 107 142 343 133 350 -2 1 -15 -5 -30
-14z"/>
</g>
</svg>
