<?xml version="1.0" encoding="utf-8"?>
<svg xmlns="http://www.w3.org/2000/svg" xmlns:xlink="http://www.w3.org/1999/xlink" width="600" height="400" viewBox="0 0 2400 1600">
<defs>
  <clipPath id="clip510">
    <rect x="0" y="0" width="2400" height="1600"/>
  </clipPath>
</defs>
<path clip-path="url(#clip510)" d="
M0 1600 L2400 1600 L2400 0 L0 0  Z
  " fill="#ffffff" fill-rule="evenodd" fill-opacity="1"/>
<defs>
  <clipPath id="clip511">
    <rect x="480" y="0" width="1681" height="1600"/>
  </clipPath>
</defs>
<path clip-path="url(#clip510)" d="
M235.445 1423.18 L2352.76 1423.18 L2352.76 183.952 L235.445 183.952  Z
  " fill="#ffffff" fill-rule="evenodd" fill-opacity="1"/>
<defs>
  <clipPath id="clip512">
    <rect x="235" y="183" width="2118" height="1240"/>
  </clipPath>
</defs>
<polyline clip-path="url(#clip512)" style="stroke:#000000; stroke-linecap:butt; stroke-linejoin:round; stroke-width:2; stroke-opacity:0.1; fill:none" points="
  285.719,1423.18 285.719,183.952 
  "/>
<polyline clip-path="url(#clip512)" style="stroke:#000000; stroke-linecap:butt; stroke-linejoin:round; stroke-width:2; stroke-opacity:0.1; fill:none" points="
  768.198,1423.18 768.198,183.952 
  "/>
<polyline clip-path="url(#clip512)" style="stroke:#000000; stroke-linecap:butt; stroke-linejoin:round; stroke-width:2; stroke-opacity:0.1; fill:none" points="
  1250.68,1423.18 1250.68,183.952 
  "/>
<polyline clip-path="url(#clip512)" style="stroke:#000000; stroke-linecap:butt; stroke-linejoin:round; stroke-width:2; stroke-opacity:0.1; fill:none" points="
  1733.16,1423.18 1733.16,183.952 
  "/>
<polyline clip-path="url(#clip512)" style="stroke:#000000; stroke-linecap:butt; stroke-linejoin:round; stroke-width:2; stroke-opacity:0.1; fill:none" points="
  2215.64,1423.18 2215.64,183.952 
  "/>
<polyline clip-path="url(#clip510)" style="stroke:#000000; stroke-linecap:butt; stroke-linejoin:round; stroke-width:4; stroke-opacity:1; fill:none" points="
  235.445,1423.18 2352.76,1423.18 
  "/>
<polyline clip-path="url(#clip510)" style="stroke:#000000; stroke-linecap:butt; stroke-linejoin:round; stroke-width:4; stroke-opacity:1; fill:none" points="
  285.719,1423.18 285.719,1404.28 
  "/>
<polyline clip-path="url(#clip510)" style="stroke:#000000; stroke-linecap:butt; stroke-linejoin:round; stroke-width:4; stroke-opacity:1; fill:none" points="
  768.198,1423.18 768.198,1404.28 
  "/>
<polyline clip-path="url(#clip510)" style="stroke:#000000; stroke-linecap:butt; stroke-linejoin:round; stroke-width:4; stroke-opacity:1; fill:none" points="
  1250.68,1423.18 1250.68,1404.28 
  "/>
<polyline clip-path="url(#clip510)" style="stroke:#000000; stroke-linecap:butt; stroke-linejoin:round; stroke-width:4; stroke-opacity:1; fill:none" points="
  1733.16,1423.18 1733.16,1404.28 
  "/>
<polyline clip-path="url(#clip510)" style="stroke:#000000; stroke-linecap:butt; stroke-linejoin:round; stroke-width:4; stroke-opacity:1; fill:none" points="
  2215.64,1423.18 2215.64,1404.28 
  "/>
<path clip-path="url(#clip510)" d="M285.719 1452.37 Q282.108 1452.37 280.279 1455.94 Q278.474 1459.48 278.474 1466.61 Q278.474 1473.71 280.279 1477.28 Q282.108 1480.82 285.719 1480.82 Q289.353 1480.82 291.159 1477.28 Q292.988 1473.71 292.988 1466.61 Q292.988 1459.48 291.159 1455.94 Q289.353 1452.37 285.719 1452.37 M285.719 1448.67 Q291.529 1448.67 294.585 1453.27 Q297.664 1457.86 297.664 1466.61 Q297.664 1475.33 294.585 1479.94 Q291.529 1484.52 285.719 1484.52 Q279.909 1484.52 276.83 1479.94 Q273.775 1475.33 273.775 1466.61 Q273.775 1457.86 276.83 1453.27 Q279.909 1448.67 285.719 1448.67 Z" fill="#000000" fill-rule="evenodd" fill-opacity="1" /><path clip-path="url(#clip510)" d="M742.897 1449.29 L761.254 1449.29 L761.254 1453.23 L747.18 1453.23 L747.18 1461.7 Q748.198 1461.35 749.217 1461.19 Q750.235 1461 751.254 1461 Q757.041 1461 760.421 1464.18 Q763.8 1467.35 763.8 1472.76 Q763.8 1478.34 760.328 1481.44 Q756.856 1484.52 750.536 1484.52 Q748.36 1484.52 746.092 1484.15 Q743.847 1483.78 741.439 1483.04 L741.439 1478.34 Q743.522 1479.48 745.745 1480.03 Q747.967 1480.59 750.444 1480.59 Q754.448 1480.59 756.786 1478.48 Q759.124 1476.38 759.124 1472.76 Q759.124 1469.15 756.786 1467.05 Q754.448 1464.94 750.444 1464.94 Q748.569 1464.94 746.694 1465.36 Q744.842 1465.77 742.897 1466.65 L742.897 1449.29 Z" fill="#000000" fill-rule="evenodd" fill-opacity="1" /><path clip-path="url(#clip510)" d="M783.013 1452.37 Q779.402 1452.37 777.573 1455.94 Q775.768 1459.48 775.768 1466.61 Q775.768 1473.71 777.573 1477.28 Q779.402 1480.82 783.013 1480.82 Q786.647 1480.82 788.453 1477.28 Q790.281 1473.71 790.281 1466.61 Q790.281 1459.48 788.453 1455.94 Q786.647 1452.37 783.013 1452.37 M783.013 1448.67 Q788.823 1448.67 791.879 1453.27 Q794.957 1457.86 794.957 1466.61 Q794.957 1475.33 791.879 1479.94 Q788.823 1484.52 783.013 1484.52 Q777.203 1484.52 774.124 1479.94 Q771.069 1475.33 771.069 1466.61 Q771.069 1457.86 774.124 1453.27 Q777.203 1448.67 783.013 1448.67 Z" fill="#000000" fill-rule="evenodd" fill-opacity="1" /><path clip-path="url(#clip510)" d="M1210.28 1479.92 L1217.92 1479.92 L1217.92 1453.55 L1209.61 1455.22 L1209.61 1450.96 L1217.88 1449.29 L1222.55 1449.29 L1222.55 1479.92 L1230.19 1479.92 L1230.19 1483.85 L1210.28 1483.85 L1210.28 1479.92 Z" fill="#000000" fill-rule="evenodd" fill-opacity="1" /><path clip-path="url(#clip510)" d="M1249.64 1452.37 Q1246.02 1452.37 1244.2 1455.94 Q1242.39 1459.48 1242.39 1466.61 Q1242.39 1473.71 1244.2 1477.28 Q1246.02 1480.82 1249.64 1480.82 Q1253.27 1480.82 1255.08 1477.28 Q1256.9 1473.71 1256.9 1466.61 Q1256.9 1459.48 1255.08 1455.94 Q1253.27 1452.37 1249.64 1452.37 M1249.64 1448.67 Q1255.45 1448.67 1258.5 1453.27 Q1261.58 1457.86 1261.58 1466.61 Q1261.58 1475.33 1258.5 1479.94 Q1255.45 1484.52 1249.64 1484.52 Q1243.83 1484.52 1240.75 1479.94 Q1237.69 1475.33 1237.69 1466.61 Q1237.69 1457.86 1240.75 1453.27 Q1243.83 1448.67 1249.64 1448.67 Z" fill="#000000" fill-rule="evenodd" fill-opacity="1" /><path clip-path="url(#clip510)" d="M1279.8 1452.37 Q1276.19 1452.37 1274.36 1455.94 Q1272.55 1459.48 1272.55 1466.61 Q1272.55 1473.71 1274.36 1477.28 Q1276.19 1480.82 1279.8 1480.82 Q1283.43 1480.82 1285.24 1477.28 Q1287.07 1473.71 1287.07 1466.61 Q1287.07 1459.48 1285.24 1455.94 Q1283.43 1452.37 1279.8 1452.37 M1279.8 1448.67 Q1285.61 1448.67 1288.66 1453.27 Q1291.74 1457.86 1291.74 1466.61 Q1291.74 1475.33 1288.66 1479.94 Q1285.61 1484.52 1279.8 1484.52 Q1273.99 1484.52 1270.91 1479.94 Q1267.85 1475.33 1267.85 1466.61 Q1267.85 1457.86 1270.91 1453.27 Q1273.99 1448.67 1279.8 1448.67 Z" fill="#000000" fill-rule="evenodd" fill-opacity="1" /><path clip-path="url(#clip510)" d="M1692.76 1479.92 L1700.4 1479.92 L1700.4 1453.55 L1692.09 1455.22 L1692.09 1450.96 L1700.36 1449.29 L1705.03 1449.29 L1705.03 1479.92 L1712.67 1479.92 L1712.67 1483.85 L1692.76 1483.85 L1692.76 1479.92 Z" fill="#000000" fill-rule="evenodd" fill-opacity="1" /><path clip-path="url(#clip510)" d="M1722.16 1449.29 L1740.52 1449.29 L1740.52 1453.23 L1726.44 1453.23 L1726.44 1461.7 Q1727.46 1461.35 1728.48 1461.19 Q1729.5 1461 1730.52 1461 Q1736.3 1461 1739.68 1464.18 Q1743.06 1467.35 1743.06 1472.76 Q1743.06 1478.34 1739.59 1481.44 Q1736.12 1484.52 1729.8 1484.52 Q1727.62 1484.52 1725.36 1484.15 Q1723.11 1483.78 1720.7 1483.04 L1720.7 1478.34 Q1722.79 1479.48 1725.01 1480.03 Q1727.23 1480.59 1729.71 1480.59 Q1733.71 1480.59 1736.05 1478.48 Q1738.39 1476.38 1738.39 1472.76 Q1738.39 1469.15 1736.05 1467.05 Q1733.71 1464.94 1729.71 1464.94 Q1727.83 1464.94 1725.96 1465.36 Q1724.11 1465.77 1722.16 1466.65 L1722.16 1449.29 Z" fill="#000000" fill-rule="evenodd" fill-opacity="1" /><path clip-path="url(#clip510)" d="M1762.28 1452.37 Q1758.67 1452.37 1756.84 1455.94 Q1755.03 1459.48 1755.03 1466.61 Q1755.03 1473.71 1756.84 1477.28 Q1758.67 1480.82 1762.28 1480.82 Q1765.91 1480.82 1767.72 1477.28 Q1769.55 1473.71 1769.55 1466.61 Q1769.55 1459.48 1767.72 1455.94 Q1765.91 1452.37 1762.28 1452.37 M1762.28 1448.67 Q1768.09 1448.67 1771.14 1453.27 Q1774.22 1457.86 1774.22 1466.61 Q1774.22 1475.33 1771.14 1479.94 Q1768.09 1484.52 1762.28 1484.52 Q1756.47 1484.52 1753.39 1479.94 Q1750.33 1475.33 1750.33 1466.61 Q1750.33 1457.86 1753.39 1453.27 Q1756.47 1448.67 1762.28 1448.67 Z" fill="#000000" fill-rule="evenodd" fill-opacity="1" /><path clip-path="url(#clip510)" d="M2179.33 1479.92 L2195.65 1479.92 L2195.65 1483.85 L2173.7 1483.85 L2173.7 1479.92 Q2176.36 1477.16 2180.95 1472.53 Q2185.55 1467.88 2186.74 1466.54 Q2188.98 1464.01 2189.86 1462.28 Q2190.76 1460.52 2190.76 1458.83 Q2190.76 1456.07 2188.82 1454.34 Q2186.9 1452.6 2183.8 1452.6 Q2181.6 1452.6 2179.14 1453.37 Q2176.71 1454.13 2173.93 1455.68 L2173.93 1450.96 Q2176.76 1449.82 2179.21 1449.25 Q2181.67 1448.67 2183.7 1448.67 Q2189.07 1448.67 2192.27 1451.35 Q2195.46 1454.04 2195.46 1458.53 Q2195.46 1460.66 2194.65 1462.58 Q2193.86 1464.48 2191.76 1467.07 Q2191.18 1467.74 2188.08 1470.96 Q2184.98 1474.15 2179.33 1479.92 Z" fill="#000000" fill-rule="evenodd" fill-opacity="1" /><path clip-path="url(#clip510)" d="M2215.46 1452.37 Q2211.85 1452.37 2210.02 1455.94 Q2208.22 1459.48 2208.22 1466.61 Q2208.22 1473.71 2210.02 1477.28 Q2211.85 1480.82 2215.46 1480.82 Q2219.1 1480.82 2220.9 1477.28 Q2222.73 1473.71 2222.73 1466.61 Q2222.73 1459.48 2220.9 1455.94 Q2219.1 1452.37 2215.46 1452.37 M2215.46 1448.67 Q2221.27 1448.67 2224.33 1453.27 Q2227.41 1457.86 2227.41 1466.61 Q2227.41 1475.33 2224.33 1479.94 Q2221.27 1484.52 2215.46 1484.52 Q2209.65 1484.52 2206.57 1479.94 Q2203.52 1475.33 2203.52 1466.61 Q2203.52 1457.86 2206.57 1453.27 Q2209.65 1448.67 2215.46 1448.67 Z" fill="#000000" fill-rule="evenodd" fill-opacity="1" /><path clip-path="url(#clip510)" d="M2245.62 1452.37 Q2242.01 1452.37 2240.18 1455.94 Q2238.38 1459.48 2238.38 1466.61 Q2238.38 1473.71 2240.18 1477.28 Q2242.01 1480.82 2245.62 1480.82 Q2249.26 1480.82 2251.06 1477.28 Q2252.89 1473.71 2252.89 1466.61 Q2252.89 1459.48 2251.06 1455.94 Q2249.26 1452.37 2245.62 1452.37 M2245.62 1448.67 Q2251.43 1448.67 2254.49 1453.27 Q2257.57 1457.86 2257.57 1466.61 Q2257.57 1475.33 2254.49 1479.94 Q2251.43 1484.52 2245.62 1484.52 Q2239.81 1484.52 2236.73 1479.94 Q2233.68 1475.33 2233.68 1466.61 Q2233.68 1457.86 2236.73 1453.27 Q2239.81 1448.67 2245.62 1448.67 Z" fill="#000000" fill-rule="evenodd" fill-opacity="1" /><path clip-path="url(#clip510)" d="M1088.79 1524.18 L1088.79 1530.96 Q1085.54 1527.94 1081.85 1526.44 Q1078.19 1524.95 1074.05 1524.95 Q1065.91 1524.95 1061.58 1529.95 Q1057.25 1534.91 1057.25 1544.33 Q1057.25 1553.72 1061.58 1558.72 Q1065.91 1563.68 1074.05 1563.68 Q1078.19 1563.68 1081.85 1562.19 Q1085.54 1560.69 1088.79 1557.67 L1088.79 1564.38 Q1085.42 1566.68 1081.63 1567.82 Q1077.87 1568.97 1073.67 1568.97 Q1062.88 1568.97 1056.68 1562.38 Q1050.47 1555.76 1050.47 1544.33 Q1050.47 1532.87 1056.68 1526.28 Q1062.88 1519.66 1073.67 1519.66 Q1077.94 1519.66 1081.69 1520.81 Q1085.48 1521.92 1088.79 1524.18 Z" fill="#000000" fill-rule="evenodd" fill-opacity="1" /><path clip-path="url(#clip510)" d="M1112.28 1536.5 Q1107.57 1536.5 1104.83 1540.19 Q1102.09 1543.85 1102.09 1550.25 Q1102.09 1556.65 1104.8 1560.34 Q1107.54 1564 1112.28 1564 Q1116.96 1564 1119.7 1560.31 Q1122.43 1556.62 1122.43 1550.25 Q1122.43 1543.92 1119.7 1540.23 Q1116.96 1536.5 1112.28 1536.5 M1112.28 1531.54 Q1119.92 1531.54 1124.28 1536.5 Q1128.64 1541.47 1128.64 1550.25 Q1128.64 1559 1124.28 1564 Q1119.92 1568.97 1112.28 1568.97 Q1104.61 1568.97 1100.25 1564 Q1095.92 1559 1095.92 1550.25 Q1095.92 1541.47 1100.25 1536.5 Q1104.61 1531.54 1112.28 1531.54 Z" fill="#000000" fill-rule="evenodd" fill-opacity="1" /><path clip-path="url(#clip510)" d="M1167.98 1546.53 L1167.98 1568.04 L1162.12 1568.04 L1162.12 1546.72 Q1162.12 1541.66 1160.15 1539.14 Q1158.18 1536.63 1154.23 1536.63 Q1149.49 1536.63 1146.75 1539.65 Q1144.01 1542.68 1144.01 1547.9 L1144.01 1568.04 L1138.12 1568.04 L1138.12 1532.4 L1144.01 1532.4 L1144.01 1537.93 Q1146.11 1534.72 1148.95 1533.13 Q1151.81 1531.54 1155.53 1531.54 Q1161.68 1531.54 1164.83 1535.36 Q1167.98 1539.14 1167.98 1546.53 Z" fill="#000000" fill-rule="evenodd" fill-opacity="1" /><path clip-path="url(#clip510)" d="M1203.12 1537.81 L1203.12 1518.52 L1208.97 1518.52 L1208.97 1568.04 L1203.12 1568.04 L1203.12 1562.7 Q1201.27 1565.88 1198.44 1567.44 Q1195.64 1568.97 1191.69 1568.97 Q1185.23 1568.97 1181.16 1563.81 Q1177.11 1558.65 1177.11 1550.25 Q1177.11 1541.85 1181.16 1536.69 Q1185.23 1531.54 1191.69 1531.54 Q1195.64 1531.54 1198.44 1533.1 Q1201.27 1534.62 1203.12 1537.81 M1183.16 1550.25 Q1183.16 1556.71 1185.8 1560.4 Q1188.48 1564.07 1193.12 1564.07 Q1197.77 1564.07 1200.44 1560.4 Q1203.12 1556.71 1203.12 1550.25 Q1203.12 1543.79 1200.44 1540.13 Q1197.77 1536.44 1193.12 1536.44 Q1188.48 1536.44 1185.8 1540.13 Q1183.16 1543.79 1183.16 1550.25 Z" fill="#000000" fill-rule="evenodd" fill-opacity="1" /><path clip-path="url(#clip510)" d="M1221.04 1532.4 L1226.89 1532.4 L1226.89 1568.04 L1221.04 1568.04 L1221.04 1532.4 M1221.04 1518.52 L1226.89 1518.52 L1226.89 1525.93 L1221.04 1525.93 L1221.04 1518.52 Z" fill="#000000" fill-rule="evenodd" fill-opacity="1" /><path clip-path="url(#clip510)" d="M1244.94 1522.27 L1244.94 1532.4 L1257 1532.4 L1257 1536.95 L1244.94 1536.95 L1244.94 1556.3 Q1244.94 1560.66 1246.12 1561.9 Q1247.33 1563.14 1250.99 1563.14 L1257 1563.14 L1257 1568.04 L1250.99 1568.04 Q1244.21 1568.04 1241.63 1565.53 Q1239.05 1562.98 1239.05 1556.3 L1239.05 1536.95 L1234.76 1536.95 L1234.76 1532.4 L1239.05 1532.4 L1239.05 1522.27 L1244.94 1522.27 Z" fill="#000000" fill-rule="evenodd" fill-opacity="1" /><path clip-path="url(#clip510)" d="M1264.71 1532.4 L1270.56 1532.4 L1270.56 1568.04 L1264.71 1568.04 L1264.71 1532.4 M1264.71 1518.52 L1270.56 1518.52 L1270.56 1525.93 L1264.71 1525.93 L1264.71 1518.52 Z" fill="#000000" fill-rule="evenodd" fill-opacity="1" /><path clip-path="url(#clip510)" d="M1296.63 1536.5 Q1291.92 1536.5 1289.18 1540.19 Q1286.45 1543.85 1286.45 1550.25 Q1286.45 1556.65 1289.15 1560.34 Q1291.89 1564 1296.63 1564 Q1301.31 1564 1304.05 1560.31 Q1306.78 1556.62 1306.78 1550.25 Q1306.78 1543.92 1304.05 1540.23 Q1301.31 1536.5 1296.63 1536.5 M1296.63 1531.54 Q1304.27 1531.54 1308.63 1536.5 Q1312.99 1541.47 1312.99 1550.25 Q1312.99 1559 1308.63 1564 Q1304.27 1568.97 1296.63 1568.97 Q1288.96 1568.97 1284.6 1564 Q1280.27 1559 1280.27 1550.25 Q1280.27 1541.47 1284.6 1536.5 Q1288.96 1531.54 1296.63 1531.54 Z" fill="#000000" fill-rule="evenodd" fill-opacity="1" /><path clip-path="url(#clip510)" d="M1352.33 1546.53 L1352.33 1568.04 L1346.47 1568.04 L1346.47 1546.72 Q1346.47 1541.66 1344.5 1539.14 Q1342.53 1536.63 1338.58 1536.63 Q1333.84 1536.63 1331.1 1539.65 Q1328.36 1542.68 1328.36 1547.9 L1328.36 1568.04 L1322.48 1568.04 L1322.48 1532.4 L1328.36 1532.4 L1328.36 1537.93 Q1330.46 1534.72 1333.3 1533.13 Q1336.16 1531.54 1339.89 1531.54 Q1346.03 1531.54 1349.18 1535.36 Q1352.33 1539.14 1352.33 1546.53 Z" fill="#000000" fill-rule="evenodd" fill-opacity="1" /><path clip-path="url(#clip510)" d="M1378.4 1520.52 L1418.6 1520.52 L1418.6 1525.93 L1401.73 1525.93 L1401.73 1568.04 L1395.27 1568.04 L1395.27 1525.93 L1378.4 1525.93 L1378.4 1520.52 Z" fill="#000000" fill-rule="evenodd" fill-opacity="1" /><path clip-path="url(#clip510)" d="M1443.97 1548.76 L1443.97 1551.62 L1417.04 1551.62 Q1417.42 1557.67 1420.67 1560.85 Q1423.94 1564 1429.77 1564 Q1433.14 1564 1436.29 1563.17 Q1439.48 1562.35 1442.6 1560.69 L1442.6 1566.23 Q1439.45 1567.57 1436.14 1568.27 Q1432.83 1568.97 1429.42 1568.97 Q1420.89 1568.97 1415.89 1564 Q1410.93 1559.04 1410.93 1550.57 Q1410.93 1541.82 1415.64 1536.69 Q1420.38 1531.54 1428.4 1531.54 Q1435.59 1531.54 1439.76 1536.18 Q1443.97 1540.8 1443.97 1548.76 M1438.11 1547.04 Q1438.04 1542.23 1435.4 1539.37 Q1432.79 1536.5 1428.46 1536.5 Q1423.56 1536.5 1420.6 1539.27 Q1417.67 1542.04 1417.23 1547.07 L1438.11 1547.04 Z" fill="#000000" fill-rule="evenodd" fill-opacity="1" /><path clip-path="url(#clip510)" d="M1476.3 1533.45 L1476.3 1538.98 Q1473.82 1537.71 1471.15 1537.07 Q1468.47 1536.44 1465.61 1536.44 Q1461.25 1536.44 1459.05 1537.77 Q1456.89 1539.11 1456.89 1541.79 Q1456.89 1543.82 1458.45 1545 Q1460.01 1546.15 1464.72 1547.2 L1466.72 1547.64 Q1472.96 1548.98 1475.57 1551.43 Q1478.21 1553.85 1478.21 1558.21 Q1478.21 1563.17 1474.27 1566.07 Q1470.35 1568.97 1463.48 1568.97 Q1460.61 1568.97 1457.49 1568.39 Q1454.4 1567.85 1450.97 1566.74 L1450.97 1560.69 Q1454.21 1562.38 1457.36 1563.24 Q1460.52 1564.07 1463.6 1564.07 Q1467.74 1564.07 1469.97 1562.66 Q1472.2 1561.23 1472.2 1558.65 Q1472.2 1556.27 1470.57 1554.99 Q1468.98 1553.72 1463.54 1552.54 L1461.5 1552.07 Q1456.06 1550.92 1453.64 1548.56 Q1451.22 1546.18 1451.22 1542.04 Q1451.22 1537.01 1454.79 1534.27 Q1458.35 1531.54 1464.91 1531.54 Q1468.15 1531.54 1471.02 1532.01 Q1473.88 1532.49 1476.3 1533.45 Z" fill="#000000" fill-rule="evenodd" fill-opacity="1" /><path clip-path="url(#clip510)" d="M1493.33 1522.27 L1493.33 1532.4 L1505.39 1532.4 L1505.39 1536.95 L1493.33 1536.95 L1493.33 1556.3 Q1493.33 1560.66 1494.51 1561.9 Q1495.72 1563.14 1499.38 1563.14 L1505.39 1563.14 L1505.39 1568.04 L1499.38 1568.04 Q1492.6 1568.04 1490.02 1565.53 Q1487.44 1562.98 1487.44 1556.3 L1487.44 1536.95 L1483.15 1536.95 L1483.15 1532.4 L1487.44 1532.4 L1487.44 1522.27 L1493.33 1522.27 Z" fill="#000000" fill-rule="evenodd" fill-opacity="1" /><path clip-path="url(#clip510)" d="M1535.82 1533.45 L1535.82 1538.98 Q1533.34 1537.71 1530.67 1537.07 Q1527.99 1536.44 1525.13 1536.44 Q1520.77 1536.44 1518.57 1537.77 Q1516.41 1539.11 1516.41 1541.79 Q1516.41 1543.82 1517.97 1545 Q1519.53 1546.15 1524.24 1547.2 L1526.24 1547.64 Q1532.48 1548.98 1535.09 1551.43 Q1537.73 1553.85 1537.73 1558.21 Q1537.73 1563.17 1533.79 1566.07 Q1529.87 1568.97 1523 1568.97 Q1520.13 1568.97 1517.01 1568.39 Q1513.92 1567.85 1510.49 1566.74 L1510.49 1560.69 Q1513.73 1562.38 1516.88 1563.24 Q1520.04 1564.07 1523.12 1564.07 Q1527.26 1564.07 1529.49 1562.66 Q1531.72 1561.23 1531.72 1558.65 Q1531.72 1556.27 1530.09 1554.99 Q1528.5 1553.72 1523.06 1552.54 L1521.02 1552.07 Q1515.58 1550.92 1513.16 1548.56 Q1510.74 1546.18 1510.74 1542.04 Q1510.74 1537.01 1514.31 1534.27 Q1517.87 1531.54 1524.43 1531.54 Q1527.67 1531.54 1530.54 1532.01 Q1533.4 1532.49 1535.82 1533.45 Z" fill="#000000" fill-rule="evenodd" fill-opacity="1" /><polyline clip-path="url(#clip512)" style="stroke:#000000; stroke-linecap:butt; stroke-linejoin:round; stroke-width:2; stroke-opacity:0.1; fill:none" points="
  235.445,1217.38 2352.76,1217.38 
  "/>
<polyline clip-path="url(#clip512)" style="stroke:#000000; stroke-linecap:butt; stroke-linejoin:round; stroke-width:2; stroke-opacity:0.1; fill:none" points="
  235.445,976.914 2352.76,976.914 
  "/>
<polyline clip-path="url(#clip512)" style="stroke:#000000; stroke-linecap:butt; stroke-linejoin:round; stroke-width:2; stroke-opacity:0.1; fill:none" points="
  235.445,736.451 2352.76,736.451 
  "/>
<polyline clip-path="url(#clip512)" style="stroke:#000000; stroke-linecap:butt; stroke-linejoin:round; stroke-width:2; stroke-opacity:0.1; fill:none" points="
  235.445,495.987 2352.76,495.987 
  "/>
<polyline clip-path="url(#clip512)" style="stroke:#000000; stroke-linecap:butt; stroke-linejoin:round; stroke-width:2; stroke-opacity:0.1; fill:none" points="
  235.445,255.524 2352.76,255.524 
  "/>
<polyline clip-path="url(#clip510)" style="stroke:#000000; stroke-linecap:butt; stroke-linejoin:round; stroke-width:4; stroke-opacity:1; fill:none" points="
  235.445,1423.18 235.445,183.952 
  "/>
<polyline clip-path="url(#clip510)" style="stroke:#000000; stroke-linecap:butt; stroke-linejoin:round; stroke-width:4; stroke-opacity:1; fill:none" points="
  235.445,1217.38 254.343,1217.38 
  "/>
<polyline clip-path="url(#clip510)" style="stroke:#000000; stroke-linecap:butt; stroke-linejoin:round; stroke-width:4; stroke-opacity:1; fill:none" points="
  235.445,976.914 254.343,976.914 
  "/>
<polyline clip-path="url(#clip510)" style="stroke:#000000; stroke-linecap:butt; stroke-linejoin:round; stroke-width:4; stroke-opacity:1; fill:none" points="
  235.445,736.451 254.343,736.451 
  "/>
<polyline clip-path="url(#clip510)" style="stroke:#000000; stroke-linecap:butt; stroke-linejoin:round; stroke-width:4; stroke-opacity:1; fill:none" points="
  235.445,495.987 254.343,495.987 
  "/>
<polyline clip-path="url(#clip510)" style="stroke:#000000; stroke-linecap:butt; stroke-linejoin:round; stroke-width:4; stroke-opacity:1; fill:none" points="
  235.445,255.524 254.343,255.524 
  "/>
<path clip-path="url(#clip510)" d="M131.019 1204.17 L119.214 1222.62 L131.019 1222.62 L131.019 1204.17 M129.792 1200.1 L135.672 1200.1 L135.672 1222.62 L140.603 1222.62 L140.603 1226.51 L135.672 1226.51 L135.672 1234.66 L131.019 1234.66 L131.019 1226.51 L115.418 1226.51 L115.418 1222 L129.792 1200.1 Z" fill="#000000" fill-rule="evenodd" fill-opacity="1" /><path clip-path="url(#clip510)" d="M148.473 1233.94 L148.473 1229.68 Q150.232 1230.51 152.038 1230.95 Q153.843 1231.39 155.579 1231.39 Q160.209 1231.39 162.64 1228.29 Q165.093 1225.17 165.44 1218.82 Q164.098 1220.82 162.038 1221.88 Q159.978 1222.94 157.478 1222.94 Q152.292 1222.94 149.26 1219.82 Q146.251 1216.67 146.251 1211.23 Q146.251 1205.91 149.399 1202.69 Q152.547 1199.47 157.778 1199.47 Q163.774 1199.47 166.922 1204.08 Q170.093 1208.66 170.093 1217.41 Q170.093 1225.58 166.204 1230.47 Q162.339 1235.33 155.788 1235.33 Q154.028 1235.33 152.223 1234.98 Q150.417 1234.63 148.473 1233.94 M157.778 1219.29 Q160.927 1219.29 162.755 1217.13 Q164.607 1214.98 164.607 1211.23 Q164.607 1207.51 162.755 1205.35 Q160.927 1203.18 157.778 1203.18 Q154.63 1203.18 152.778 1205.35 Q150.95 1207.51 150.95 1211.23 Q150.95 1214.98 152.778 1217.13 Q154.63 1219.29 157.778 1219.29 Z" fill="#000000" fill-rule="evenodd" fill-opacity="1" /><path clip-path="url(#clip510)" d="M178.542 1200.1 L196.899 1200.1 L196.899 1204.03 L182.825 1204.03 L182.825 1212.51 Q183.843 1212.16 184.862 1212 Q185.88 1211.81 186.899 1211.81 Q192.686 1211.81 196.065 1214.98 Q199.445 1218.15 199.445 1223.57 Q199.445 1229.15 195.973 1232.25 Q192.5 1235.33 186.181 1235.33 Q184.005 1235.33 181.737 1234.96 Q179.491 1234.59 177.084 1233.85 L177.084 1229.15 Q179.167 1230.28 181.389 1230.84 Q183.612 1231.39 186.088 1231.39 Q190.093 1231.39 192.431 1229.29 Q194.769 1227.18 194.769 1223.57 Q194.769 1219.96 192.431 1217.85 Q190.093 1215.75 186.088 1215.75 Q184.213 1215.75 182.338 1216.16 Q180.487 1216.58 178.542 1217.46 L178.542 1200.1 Z" fill="#000000" fill-rule="evenodd" fill-opacity="1" /><path clip-path="url(#clip510)" d="M129.862 963.708 L118.056 982.157 L129.862 982.157 L129.862 963.708 M128.635 959.634 L134.515 959.634 L134.515 982.157 L139.445 982.157 L139.445 986.046 L134.515 986.046 L134.515 994.194 L129.862 994.194 L129.862 986.046 L114.26 986.046 L114.26 981.532 L128.635 959.634 Z" fill="#000000" fill-rule="evenodd" fill-opacity="1" /><path clip-path="url(#clip510)" d="M147.316 993.477 L147.316 989.217 Q149.075 990.051 150.88 990.491 Q152.686 990.93 154.422 990.93 Q159.052 990.93 161.482 987.828 Q163.936 984.704 164.283 978.361 Q162.94 980.352 160.88 981.416 Q158.82 982.481 156.32 982.481 Q151.135 982.481 148.103 979.356 Q145.093 976.208 145.093 970.768 Q145.093 965.444 148.241 962.227 Q151.39 959.009 156.621 959.009 Q162.616 959.009 165.765 963.616 Q168.936 968.199 168.936 976.949 Q168.936 985.12 165.047 990.004 Q161.181 994.865 154.63 994.865 Q152.871 994.865 151.066 994.518 Q149.26 994.171 147.316 993.477 M156.621 978.824 Q159.769 978.824 161.598 976.671 Q163.45 974.518 163.45 970.768 Q163.45 967.042 161.598 964.889 Q159.769 962.713 156.621 962.713 Q153.473 962.713 151.621 964.889 Q149.792 967.042 149.792 970.768 Q149.792 974.518 151.621 976.671 Q153.473 978.824 156.621 978.824 Z" fill="#000000" fill-rule="evenodd" fill-opacity="1" /><path clip-path="url(#clip510)" d="M187.917 975.051 Q184.769 975.051 182.917 977.204 Q181.089 979.356 181.089 983.106 Q181.089 986.833 182.917 989.009 Q184.769 991.162 187.917 991.162 Q191.065 991.162 192.894 989.009 Q194.746 986.833 194.746 983.106 Q194.746 979.356 192.894 977.204 Q191.065 975.051 187.917 975.051 M197.2 960.398 L197.2 964.657 Q195.44 963.824 193.635 963.384 Q191.852 962.944 190.093 962.944 Q185.463 962.944 183.01 966.069 Q180.579 969.194 180.232 975.514 Q181.598 973.5 183.658 972.435 Q185.718 971.347 188.195 971.347 Q193.403 971.347 196.412 974.518 Q199.445 977.667 199.445 983.106 Q199.445 988.43 196.297 991.648 Q193.149 994.865 187.917 994.865 Q181.922 994.865 178.751 990.282 Q175.579 985.676 175.579 976.949 Q175.579 968.755 179.468 963.893 Q183.357 959.009 189.908 959.009 Q191.667 959.009 193.45 959.356 Q195.255 959.704 197.2 960.398 Z" fill="#000000" fill-rule="evenodd" fill-opacity="1" /><path clip-path="url(#clip510)" d="M130.927 723.245 L119.121 741.694 L130.927 741.694 L130.927 723.245 M129.7 719.171 L135.579 719.171 L135.579 741.694 L140.51 741.694 L140.51 745.583 L135.579 745.583 L135.579 753.731 L130.927 753.731 L130.927 745.583 L115.325 745.583 L115.325 741.069 L129.7 719.171 Z" fill="#000000" fill-rule="evenodd" fill-opacity="1" /><path clip-path="url(#clip510)" d="M148.38 753.013 L148.38 748.754 Q150.14 749.587 151.945 750.027 Q153.751 750.467 155.487 750.467 Q160.116 750.467 162.547 747.365 Q165.001 744.24 165.348 737.897 Q164.005 739.888 161.945 740.953 Q159.885 742.018 157.385 742.018 Q152.2 742.018 149.167 738.893 Q146.158 735.745 146.158 730.305 Q146.158 724.981 149.306 721.763 Q152.454 718.546 157.686 718.546 Q163.681 718.546 166.829 723.152 Q170.001 727.735 170.001 736.485 Q170.001 744.657 166.112 749.541 Q162.246 754.402 155.695 754.402 Q153.936 754.402 152.13 754.055 Q150.325 753.707 148.38 753.013 M157.686 738.36 Q160.834 738.36 162.663 736.208 Q164.515 734.055 164.515 730.305 Q164.515 726.578 162.663 724.425 Q160.834 722.249 157.686 722.249 Q154.538 722.249 152.686 724.425 Q150.857 726.578 150.857 730.305 Q150.857 734.055 152.686 736.208 Q154.538 738.36 157.686 738.36 Z" fill="#000000" fill-rule="evenodd" fill-opacity="1" /><path clip-path="url(#clip510)" d="M177.223 719.171 L199.445 719.171 L199.445 721.161 L186.899 753.731 L182.014 753.731 L193.82 723.106 L177.223 723.106 L177.223 719.171 Z" fill="#000000" fill-rule="evenodd" fill-opacity="1" /><path clip-path="url(#clip510)" d="M130.117 482.781 L118.311 501.23 L130.117 501.23 L130.117 482.781 M128.89 478.707 L134.769 478.707 L134.769 501.23 L139.7 501.23 L139.7 505.119 L134.769 505.119 L134.769 513.267 L130.117 513.267 L130.117 505.119 L114.515 505.119 L114.515 500.605 L128.89 478.707 Z" fill="#000000" fill-rule="evenodd" fill-opacity="1" /><path clip-path="url(#clip510)" d="M147.57 512.549 L147.57 508.29 Q149.329 509.124 151.135 509.563 Q152.941 510.003 154.677 510.003 Q159.306 510.003 161.737 506.901 Q164.19 503.776 164.538 497.434 Q163.195 499.425 161.135 500.489 Q159.075 501.554 156.575 501.554 Q151.39 501.554 148.357 498.429 Q145.348 495.281 145.348 489.841 Q145.348 484.517 148.496 481.3 Q151.644 478.082 156.876 478.082 Q162.871 478.082 166.019 482.689 Q169.19 487.272 169.19 496.022 Q169.19 504.193 165.302 509.077 Q161.436 513.938 154.885 513.938 Q153.126 513.938 151.32 513.591 Q149.515 513.244 147.57 512.549 M156.876 497.897 Q160.024 497.897 161.852 495.744 Q163.704 493.591 163.704 489.841 Q163.704 486.114 161.852 483.962 Q160.024 481.786 156.876 481.786 Q153.728 481.786 151.876 483.962 Q150.047 486.114 150.047 489.841 Q150.047 493.591 151.876 495.744 Q153.728 497.897 156.876 497.897 Z" fill="#000000" fill-rule="evenodd" fill-opacity="1" /><path clip-path="url(#clip510)" d="M187.593 496.855 Q184.26 496.855 182.338 498.638 Q180.44 500.42 180.44 503.545 Q180.44 506.67 182.338 508.452 Q184.26 510.235 187.593 510.235 Q190.926 510.235 192.848 508.452 Q194.769 506.647 194.769 503.545 Q194.769 500.42 192.848 498.638 Q190.95 496.855 187.593 496.855 M182.917 494.864 Q179.908 494.124 178.218 492.063 Q176.551 490.003 176.551 487.04 Q176.551 482.897 179.491 480.489 Q182.454 478.082 187.593 478.082 Q192.755 478.082 195.695 480.489 Q198.635 482.897 198.635 487.04 Q198.635 490.003 196.945 492.063 Q195.278 494.124 192.292 494.864 Q195.672 495.651 197.547 497.943 Q199.445 500.235 199.445 503.545 Q199.445 508.568 196.366 511.253 Q193.311 513.938 187.593 513.938 Q181.876 513.938 178.797 511.253 Q175.741 508.568 175.741 503.545 Q175.741 500.235 177.639 497.943 Q179.538 495.651 182.917 494.864 M181.204 487.48 Q181.204 490.165 182.871 491.67 Q184.561 493.175 187.593 493.175 Q190.602 493.175 192.292 491.67 Q194.005 490.165 194.005 487.48 Q194.005 484.795 192.292 483.29 Q190.602 481.786 187.593 481.786 Q184.561 481.786 182.871 483.29 Q181.204 484.795 181.204 487.48 Z" fill="#000000" fill-rule="evenodd" fill-opacity="1" /><path clip-path="url(#clip510)" d="M130.209 242.318 L118.404 260.767 L130.209 260.767 L130.209 242.318 M128.982 238.244 L134.862 238.244 L134.862 260.767 L139.792 260.767 L139.792 264.655 L134.862 264.655 L134.862 272.804 L130.209 272.804 L130.209 264.655 L114.607 264.655 L114.607 260.142 L128.982 238.244 Z" fill="#000000" fill-rule="evenodd" fill-opacity="1" /><path clip-path="url(#clip510)" d="M147.663 272.086 L147.663 267.827 Q149.422 268.66 151.228 269.1 Q153.033 269.54 154.769 269.54 Q159.399 269.54 161.829 266.438 Q164.283 263.313 164.63 256.97 Q163.288 258.961 161.227 260.026 Q159.167 261.091 156.667 261.091 Q151.482 261.091 148.45 257.966 Q145.441 254.818 145.441 249.378 Q145.441 244.054 148.589 240.836 Q151.737 237.619 156.968 237.619 Q162.964 237.619 166.112 242.225 Q169.283 246.808 169.283 255.558 Q169.283 263.729 165.394 268.614 Q161.528 273.475 154.978 273.475 Q153.218 273.475 151.413 273.128 Q149.607 272.78 147.663 272.086 M156.968 257.433 Q160.116 257.433 161.945 255.28 Q163.797 253.128 163.797 249.378 Q163.797 245.651 161.945 243.498 Q160.116 241.322 156.968 241.322 Q153.82 241.322 151.968 243.498 Q150.14 245.651 150.14 249.378 Q150.14 253.128 151.968 255.28 Q153.82 257.433 156.968 257.433 Z" fill="#000000" fill-rule="evenodd" fill-opacity="1" /><path clip-path="url(#clip510)" d="M177.825 272.086 L177.825 267.827 Q179.584 268.66 181.389 269.1 Q183.195 269.54 184.931 269.54 Q189.561 269.54 191.991 266.438 Q194.445 263.313 194.792 256.97 Q193.45 258.961 191.389 260.026 Q189.329 261.091 186.829 261.091 Q181.644 261.091 178.612 257.966 Q175.602 254.818 175.602 249.378 Q175.602 244.054 178.751 240.836 Q181.899 237.619 187.13 237.619 Q193.125 237.619 196.274 242.225 Q199.445 246.808 199.445 255.558 Q199.445 263.729 195.556 268.614 Q191.69 273.475 185.139 273.475 Q183.38 273.475 181.575 273.128 Q179.769 272.78 177.825 272.086 M187.13 257.433 Q190.278 257.433 192.107 255.28 Q193.959 253.128 193.959 249.378 Q193.959 245.651 192.107 243.498 Q190.278 241.322 187.13 241.322 Q183.982 241.322 182.13 243.498 Q180.301 245.651 180.301 249.378 Q180.301 253.128 182.13 255.28 Q183.982 257.433 187.13 257.433 Z" fill="#000000" fill-rule="evenodd" fill-opacity="1" /><path clip-path="url(#clip510)" d="M20.1444 1214.79 L26.9239 1214.79 Q23.9002 1218.04 22.4043 1221.73 Q20.9083 1225.39 20.9083 1229.53 Q20.9083 1237.68 25.9054 1242 Q30.8707 1246.33 40.2919 1246.33 Q49.6813 1246.33 54.6784 1242 Q59.6436 1237.68 59.6436 1229.53 Q59.6436 1225.39 58.1477 1221.73 Q56.6518 1218.04 53.6281 1214.79 L60.3439 1214.79 Q62.6355 1218.16 63.7814 1221.95 Q64.9272 1225.71 64.9272 1229.91 Q64.9272 1240.7 58.3387 1246.91 Q51.7183 1253.11 40.2919 1253.11 Q28.8336 1253.11 22.2451 1246.91 Q15.6248 1240.7 15.6248 1229.91 Q15.6248 1225.64 16.7706 1221.89 Q17.8846 1218.1 20.1444 1214.79 Z" fill="#000000" fill-rule="evenodd" fill-opacity="1" /><path clip-path="url(#clip510)" d="M32.4621 1191.3 Q32.4621 1196.01 36.1542 1198.75 Q39.8145 1201.49 46.212 1201.49 Q52.6095 1201.49 56.3017 1198.78 Q59.9619 1196.04 59.9619 1191.3 Q59.9619 1186.62 56.2698 1183.89 Q52.5777 1181.15 46.212 1181.15 Q39.8781 1181.15 36.186 1183.89 Q32.4621 1186.62 32.4621 1191.3 M27.4968 1191.3 Q27.4968 1183.66 32.4621 1179.3 Q37.4273 1174.94 46.212 1174.94 Q54.9649 1174.94 59.9619 1179.3 Q64.9272 1183.66 64.9272 1191.3 Q64.9272 1198.97 59.9619 1203.33 Q54.9649 1207.66 46.212 1207.66 Q37.4273 1207.66 32.4621 1203.33 Q27.4968 1198.97 27.4968 1191.3 Z" fill="#000000" fill-rule="evenodd" fill-opacity="1" /><path clip-path="url(#clip510)" d="M42.4881 1135.6 L64.0042 1135.6 L64.0042 1141.46 L42.679 1141.46 Q37.6183 1141.46 35.1038 1143.43 Q32.5894 1145.4 32.5894 1149.35 Q32.5894 1154.09 35.6131 1156.83 Q38.6368 1159.57 43.8567 1159.57 L64.0042 1159.57 L64.0042 1165.46 L28.3562 1165.46 L28.3562 1159.57 L33.8944 1159.57 Q30.6797 1157.47 29.0883 1154.63 Q27.4968 1151.77 27.4968 1148.05 Q27.4968 1141.9 31.3163 1138.75 Q35.1038 1135.6 42.4881 1135.6 Z" fill="#000000" fill-rule="evenodd" fill-opacity="1" /><path clip-path="url(#clip510)" d="M33.7671 1100.46 L14.479 1100.46 L14.479 1094.61 L64.0042 1094.61 L64.0042 1100.46 L58.657 1100.46 Q61.8398 1102.31 63.3994 1105.14 Q64.9272 1107.94 64.9272 1111.89 Q64.9272 1118.35 59.771 1122.42 Q54.6147 1126.47 46.212 1126.47 Q37.8093 1126.47 32.6531 1122.42 Q27.4968 1118.35 27.4968 1111.89 Q27.4968 1107.94 29.0564 1105.14 Q30.5842 1102.31 33.7671 1100.46 M46.212 1120.42 Q52.6732 1120.42 56.3653 1117.78 Q60.0256 1115.1 60.0256 1110.46 Q60.0256 1105.81 56.3653 1103.14 Q52.6732 1100.46 46.212 1100.46 Q39.7508 1100.46 36.0905 1103.14 Q32.3984 1105.81 32.3984 1110.46 Q32.3984 1115.1 36.0905 1117.78 Q39.7508 1120.42 46.212 1120.42 Z" fill="#000000" fill-rule="evenodd" fill-opacity="1" /><path clip-path="url(#clip510)" d="M28.3562 1082.54 L28.3562 1076.69 L64.0042 1076.69 L64.0042 1082.54 L28.3562 1082.54 M14.479 1082.54 L14.479 1076.69 L21.895 1076.69 L21.895 1082.54 L14.479 1082.54 Z" fill="#000000" fill-rule="evenodd" fill-opacity="1" /><path clip-path="url(#clip510)" d="M18.2347 1058.64 L28.3562 1058.64 L28.3562 1046.58 L32.9077 1046.58 L32.9077 1058.64 L52.2594 1058.64 Q56.6199 1058.64 57.8613 1057.46 Q59.1026 1056.25 59.1026 1052.59 L59.1026 1046.58 L64.0042 1046.58 L64.0042 1052.59 Q64.0042 1059.37 61.4897 1061.95 Q58.9434 1064.53 52.2594 1064.53 L32.9077 1064.53 L32.9077 1068.82 L28.3562 1068.82 L28.3562 1064.53 L18.2347 1064.53 L18.2347 1058.64 Z" fill="#000000" fill-rule="evenodd" fill-opacity="1" /><path clip-path="url(#clip510)" d="M28.3562 1038.87 L28.3562 1033.02 L64.0042 1033.02 L64.0042 1038.87 L28.3562 1038.87 M14.479 1038.87 L14.479 1033.02 L21.895 1033.02 L21.895 1038.87 L14.479 1038.87 Z" fill="#000000" fill-rule="evenodd" fill-opacity="1" /><path clip-path="url(#clip510)" d="M32.4621 1006.95 Q32.4621 1011.66 36.1542 1014.4 Q39.8145 1017.14 46.212 1017.14 Q52.6095 1017.14 56.3017 1014.43 Q59.9619 1011.69 59.9619 1006.95 Q59.9619 1002.27 56.2698 999.534 Q52.5777 996.797 46.212 996.797 Q39.8781 996.797 36.186 999.534 Q32.4621 1002.27 32.4621 1006.95 M27.4968 1006.95 Q27.4968 999.311 32.4621 994.951 Q37.4273 990.59 46.212 990.59 Q54.9649 990.59 59.9619 994.951 Q64.9272 999.311 64.9272 1006.95 Q64.9272 1014.62 59.9619 1018.98 Q54.9649 1023.31 46.212 1023.31 Q37.4273 1023.31 32.4621 1018.98 Q27.4968 1014.62 27.4968 1006.95 Z" fill="#000000" fill-rule="evenodd" fill-opacity="1" /><path clip-path="url(#clip510)" d="M42.4881 951.25 L64.0042 951.25 L64.0042 957.107 L42.679 957.107 Q37.6183 957.107 35.1038 959.08 Q32.5894 961.054 32.5894 965 Q32.5894 969.743 35.6131 972.48 Q38.6368 975.217 43.8567 975.217 L64.0042 975.217 L64.0042 981.106 L28.3562 981.106 L28.3562 975.217 L33.8944 975.217 Q30.6797 973.117 29.0883 970.284 Q27.4968 967.419 27.4968 963.695 Q27.4968 957.552 31.3163 954.401 Q35.1038 951.25 42.4881 951.25 Z" fill="#000000" fill-rule="evenodd" fill-opacity="1" /><path clip-path="url(#clip510)" d="M21.7677 912.165 L58.7206 912.165 L58.7206 904.399 Q58.7206 894.564 54.2646 890.012 Q49.8086 885.429 40.1964 885.429 Q30.6479 885.429 26.2237 890.012 Q21.7677 894.564 21.7677 904.399 L21.7677 912.165 M16.4842 918.594 L16.4842 905.385 Q16.4842 891.572 22.2451 885.111 Q27.9743 878.649 40.1964 878.649 Q52.4822 878.649 58.2432 885.143 Q64.0042 891.636 64.0042 905.385 L64.0042 918.594 L16.4842 918.594 Z" fill="#000000" fill-rule="evenodd" fill-opacity="1" /><path clip-path="url(#clip510)" d="M49.9359 869.26 L28.3562 869.26 L28.3562 863.404 L49.7131 863.404 Q54.7739 863.404 57.3202 861.43 Q59.8346 859.457 59.8346 855.51 Q59.8346 850.768 56.8109 848.03 Q53.7872 845.261 48.5673 845.261 L28.3562 845.261 L28.3562 839.405 L64.0042 839.405 L64.0042 845.261 L58.5296 845.261 Q61.7762 847.394 63.3676 850.227 Q64.9272 853.028 64.9272 856.751 Q64.9272 862.894 61.1078 866.077 Q57.2883 869.26 49.9359 869.26 M27.4968 854.523 L27.4968 854.523 Z" fill="#000000" fill-rule="evenodd" fill-opacity="1" /><path clip-path="url(#clip510)" d="M33.8307 806.685 Q33.2578 807.672 33.0032 808.85 Q32.7167 809.995 32.7167 811.396 Q32.7167 816.361 35.9632 819.035 Q39.1779 821.676 45.2253 821.676 L64.0042 821.676 L64.0042 827.565 L28.3562 827.565 L28.3562 821.676 L33.8944 821.676 Q30.6479 819.83 29.0883 816.87 Q27.4968 813.91 27.4968 809.677 Q27.4968 809.072 27.5923 808.34 Q27.656 807.608 27.8151 806.717 L33.8307 806.685 Z" fill="#000000" fill-rule="evenodd" fill-opacity="1" /><path clip-path="url(#clip510)" d="M46.0847 784.342 Q46.0847 791.439 47.7079 794.177 Q49.3312 796.914 53.2461 796.914 Q56.3653 796.914 58.2114 794.877 Q60.0256 792.808 60.0256 789.275 Q60.0256 784.405 56.5881 781.477 Q53.1188 778.517 47.3897 778.517 L46.0847 778.517 L46.0847 784.342 M43.6657 772.66 L64.0042 772.66 L64.0042 778.517 L58.5933 778.517 Q61.8398 780.522 63.3994 783.514 Q64.9272 786.506 64.9272 790.835 Q64.9272 796.309 61.8716 799.556 Q58.7843 802.77 53.6281 802.77 Q47.6125 802.77 44.5569 798.76 Q41.5014 794.718 41.5014 786.729 L41.5014 778.517 L40.9285 778.517 Q36.8862 778.517 34.6901 781.191 Q32.4621 783.832 32.4621 788.638 Q32.4621 791.694 33.1941 794.59 Q33.9262 797.487 35.3903 800.16 L29.9795 800.16 Q28.7381 796.946 28.1334 793.922 Q27.4968 790.898 27.4968 788.034 Q27.4968 780.299 31.5072 776.48 Q35.5176 772.66 43.6657 772.66 Z" fill="#000000" fill-rule="evenodd" fill-opacity="1" /><path clip-path="url(#clip510)" d="M18.2347 754.805 L28.3562 754.805 L28.3562 742.742 L32.9077 742.742 L32.9077 754.805 L52.2594 754.805 Q56.6199 754.805 57.8613 753.627 Q59.1026 752.418 59.1026 748.757 L59.1026 742.742 L64.0042 742.742 L64.0042 748.757 Q64.0042 755.537 61.4897 758.115 Q58.9434 760.693 52.2594 760.693 L32.9077 760.693 L32.9077 764.99 L28.3562 764.99 L28.3562 760.693 L18.2347 760.693 L18.2347 754.805 Z" fill="#000000" fill-rule="evenodd" fill-opacity="1" /><path clip-path="url(#clip510)" d="M28.3562 735.039 L28.3562 729.183 L64.0042 729.183 L64.0042 735.039 L28.3562 735.039 M14.479 735.039 L14.479 729.183 L21.895 729.183 L21.895 735.039 L14.479 735.039 Z" fill="#000000" fill-rule="evenodd" fill-opacity="1" /><path clip-path="url(#clip510)" d="M32.4621 703.115 Q32.4621 707.826 36.1542 710.563 Q39.8145 713.3 46.212 713.3 Q52.6095 713.3 56.3017 710.595 Q59.9619 707.858 59.9619 703.115 Q59.9619 698.436 56.2698 695.699 Q52.5777 692.962 46.212 692.962 Q39.8781 692.962 36.186 695.699 Q32.4621 698.436 32.4621 703.115 M27.4968 703.115 Q27.4968 695.476 32.4621 691.116 Q37.4273 686.755 46.212 686.755 Q54.9649 686.755 59.9619 691.116 Q64.9272 695.476 64.9272 703.115 Q64.9272 710.786 59.9619 715.146 Q54.9649 719.475 46.212 719.475 Q37.4273 719.475 32.4621 715.146 Q27.4968 710.786 27.4968 703.115 Z" fill="#000000" fill-rule="evenodd" fill-opacity="1" /><path clip-path="url(#clip510)" d="M42.4881 647.415 L64.0042 647.415 L64.0042 653.272 L42.679 653.272 Q37.6183 653.272 35.1038 655.245 Q32.5894 657.218 32.5894 661.165 Q32.5894 665.908 35.6131 668.645 Q38.6368 671.382 43.8567 671.382 L64.0042 671.382 L64.0042 677.27 L28.3562 677.27 L28.3562 671.382 L33.8944 671.382 Q30.6797 669.281 29.0883 666.449 Q27.4968 663.584 27.4968 659.86 Q27.4968 653.717 31.3163 650.566 Q35.1038 647.415 42.4881 647.415 Z" fill="#000000" fill-rule="evenodd" fill-opacity="1" /><path clip-path="url(#clip510)" d="M14.5426 600.946 Q21.8632 605.211 29.0246 607.279 Q36.186 609.348 43.5384 609.348 Q50.8908 609.348 58.1159 607.279 Q65.3091 605.179 72.5979 600.946 L72.5979 606.038 Q65.1182 610.812 57.8931 613.2 Q50.668 615.555 43.5384 615.555 Q36.4406 615.555 29.2474 613.2 Q22.0542 610.844 14.5426 606.038 L14.5426 600.946 Z" fill="#000000" fill-rule="evenodd" fill-opacity="1" /><path clip-path="url(#clip510)" d="M16.4842 588.692 L16.4842 563.452 L21.895 563.452 L21.895 582.803 L33.5443 582.803 Q33.0668 581.403 32.844 580.002 Q32.5894 578.602 32.5894 577.201 Q32.5894 569.244 36.9499 564.597 Q41.3104 559.95 48.7583 559.95 Q56.429 559.95 60.694 564.725 Q64.9272 569.499 64.9272 578.188 Q64.9272 581.18 64.4179 584.299 Q63.9087 587.387 62.8902 590.697 L56.429 590.697 Q57.9886 587.832 58.7524 584.777 Q59.5163 581.721 59.5163 578.315 Q59.5163 572.809 56.6199 569.594 Q53.7235 566.38 48.7583 566.38 Q43.793 566.38 40.8966 569.594 Q38.0002 572.809 38.0002 578.315 Q38.0002 580.894 38.5732 583.472 Q39.1461 586.018 40.3556 588.692 L16.4842 588.692 Z" fill="#000000" fill-rule="evenodd" fill-opacity="1" /><path clip-path="url(#clip510)" d="M20.7174 533.533 Q20.7174 538.498 25.6189 541.012 Q30.4887 543.495 40.2919 543.495 Q50.0633 543.495 54.9649 541.012 Q59.8346 538.498 59.8346 533.533 Q59.8346 528.536 54.9649 526.053 Q50.0633 523.539 40.2919 523.539 Q30.4887 523.539 25.6189 526.053 Q20.7174 528.536 20.7174 533.533 M15.6248 533.533 Q15.6248 525.544 21.9587 521.342 Q28.2607 517.109 40.2919 517.109 Q52.2913 517.109 58.6251 521.342 Q64.9272 525.544 64.9272 533.533 Q64.9272 541.522 58.6251 545.755 Q52.2913 549.956 40.2919 549.956 Q28.2607 549.956 21.9587 545.755 Q15.6248 541.522 15.6248 533.533 Z" fill="#000000" fill-rule="evenodd" fill-opacity="1" /><path clip-path="url(#clip510)" d="M20.7174 492.06 Q20.7174 497.025 25.6189 499.54 Q30.4887 502.022 40.2919 502.022 Q50.0633 502.022 54.9649 499.54 Q59.8346 497.025 59.8346 492.06 Q59.8346 487.063 54.9649 484.58 Q50.0633 482.066 40.2919 482.066 Q30.4887 482.066 25.6189 484.58 Q20.7174 487.063 20.7174 492.06 M15.6248 492.06 Q15.6248 484.071 21.9587 479.87 Q28.2607 475.637 40.2919 475.637 Q52.2913 475.637 58.6251 479.87 Q64.9272 484.071 64.9272 492.06 Q64.9272 500.049 58.6251 504.282 Q52.2913 508.484 40.2919 508.484 Q28.2607 508.484 21.9587 504.282 Q15.6248 500.049 15.6248 492.06 Z" fill="#000000" fill-rule="evenodd" fill-opacity="1" /><path clip-path="url(#clip510)" d="M35.1993 437.411 Q31.2526 435.214 29.3747 432.159 Q27.4968 429.103 27.4968 424.966 Q27.4968 419.396 31.4117 416.372 Q35.2948 413.348 42.4881 413.348 L64.0042 413.348 L64.0042 419.236 L42.679 419.236 Q37.5546 419.236 35.072 421.051 Q32.5894 422.865 32.5894 426.589 Q32.5894 431.14 35.6131 433.782 Q38.6368 436.424 43.8567 436.424 L64.0042 436.424 L64.0042 442.312 L42.679 442.312 Q37.5228 442.312 35.072 444.126 Q32.5894 445.941 32.5894 449.728 Q32.5894 454.216 35.6449 456.858 Q38.6686 459.5 43.8567 459.5 L64.0042 459.5 L64.0042 465.388 L28.3562 465.388 L28.3562 459.5 L33.8944 459.5 Q30.616 457.494 29.0564 454.693 Q27.4968 451.893 27.4968 448.041 Q27.4968 444.158 29.4702 441.453 Q31.4436 438.716 35.1993 437.411 Z" fill="#000000" fill-rule="evenodd" fill-opacity="1" /><path clip-path="url(#clip510)" d="M29.4065 378.942 L34.9447 378.942 Q33.6716 381.424 33.035 384.098 Q32.3984 386.771 32.3984 389.636 Q32.3984 393.996 33.7352 396.193 Q35.072 398.357 37.7456 398.357 Q39.7826 398.357 40.9603 396.797 Q42.1061 395.238 43.1565 390.527 L43.6021 388.522 Q44.9389 382.284 47.3897 379.674 Q49.8086 377.032 54.1691 377.032 Q59.1344 377.032 62.0308 380.979 Q64.9272 384.893 64.9272 391.768 Q64.9272 394.633 64.3543 397.752 Q63.8132 400.84 62.6992 404.277 L56.6518 404.277 Q58.3387 401.031 59.198 397.88 Q60.0256 394.728 60.0256 391.641 Q60.0256 387.503 58.6251 385.275 Q57.1929 383.047 54.6147 383.047 Q52.2276 383.047 50.9545 384.671 Q49.6813 386.262 48.5037 391.705 L48.0262 393.742 Q46.8804 399.184 44.5251 401.603 Q42.138 404.022 38.0002 404.022 Q32.9713 404.022 30.2341 400.458 Q27.4968 396.893 27.4968 390.336 Q27.4968 387.09 27.9743 384.225 Q28.4517 381.36 29.4065 378.942 Z" fill="#000000" fill-rule="evenodd" fill-opacity="1" /><path clip-path="url(#clip510)" d="M14.5426 368.629 L14.5426 363.537 Q22.0542 358.762 29.2474 356.407 Q36.4406 354.02 43.5384 354.02 Q50.668 354.02 57.8931 356.407 Q65.1182 358.762 72.5979 363.537 L72.5979 368.629 Q65.3091 364.396 58.1159 362.327 Q50.8908 360.226 43.5384 360.226 Q36.186 360.226 29.0246 362.327 Q21.8632 364.396 14.5426 368.629 Z" fill="#000000" fill-rule="evenodd" fill-opacity="1" /><path clip-path="url(#clip510)" d="M245.726 12.096 L280.483 12.096 L280.483 18.9825 L253.909 18.9825 L253.909 36.8065 L277.891 36.8065 L277.891 43.6931 L253.909 43.6931 L253.909 72.576 L245.726 72.576 L245.726 12.096 Z" fill="#000000" fill-rule="evenodd" fill-opacity="1" /><path clip-path="url(#clip510)" d="M313.376 34.1734 Q312.121 33.4443 310.622 33.1202 Q309.164 32.7556 307.381 32.7556 Q301.062 32.7556 297.659 36.8875 Q294.297 40.9789 294.297 48.6757 L294.297 72.576 L286.803 72.576 L286.803 27.2059 L294.297 27.2059 L294.297 34.2544 Q296.646 30.1225 300.414 28.1376 Q304.181 26.1121 309.569 26.1121 Q310.338 26.1121 311.27 26.2337 Q312.202 26.3147 313.336 26.5172 L313.376 34.1734 Z" fill="#000000" fill-rule="evenodd" fill-opacity="1" /><path clip-path="url(#clip510)" d="M336.953 32.4315 Q330.957 32.4315 327.474 37.1306 Q323.99 41.7891 323.99 49.9314 Q323.99 58.0738 327.433 62.7728 Q330.917 67.4314 336.953 67.4314 Q342.908 67.4314 346.391 62.7323 Q349.875 58.0333 349.875 49.9314 Q349.875 41.8701 346.391 37.1711 Q342.908 32.4315 336.953 32.4315 M336.953 26.1121 Q346.675 26.1121 352.225 32.4315 Q357.774 38.7509 357.774 49.9314 Q357.774 61.0714 352.225 67.4314 Q346.675 73.7508 336.953 73.7508 Q327.19 73.7508 321.64 67.4314 Q316.131 61.0714 316.131 49.9314 Q316.131 38.7509 321.64 32.4315 Q327.19 26.1121 336.953 26.1121 Z" fill="#000000" fill-rule="evenodd" fill-opacity="1" /><path clip-path="url(#clip510)" d="M405.454 35.9153 Q408.249 30.8922 412.138 28.5022 Q416.026 26.1121 421.293 26.1121 Q428.382 26.1121 432.23 31.0947 Q436.078 36.0368 436.078 45.1919 L436.078 72.576 L428.584 72.576 L428.584 45.4349 Q428.584 38.913 426.275 35.7533 Q423.966 32.5936 419.227 32.5936 Q413.434 32.5936 410.072 36.4419 Q406.709 40.2903 406.709 46.9338 L406.709 72.576 L399.215 72.576 L399.215 45.4349 Q399.215 38.8725 396.906 35.7533 Q394.597 32.5936 389.777 32.5936 Q384.065 32.5936 380.703 36.4824 Q377.34 40.3308 377.34 46.9338 L377.34 72.576 L369.846 72.576 L369.846 27.2059 L377.34 27.2059 L377.34 34.2544 Q379.892 30.082 383.457 28.0971 Q387.022 26.1121 391.924 26.1121 Q396.866 26.1121 400.309 28.6237 Q403.793 31.1352 405.454 35.9153 Z" fill="#000000" fill-rule="evenodd" fill-opacity="1" /><path clip-path="url(#clip510)" d="M485.823 18.8205 L485.823 41.5461 L496.113 41.5461 Q501.825 41.5461 504.944 38.5889 Q508.063 35.6318 508.063 30.163 Q508.063 24.7348 504.944 21.7777 Q501.825 18.8205 496.113 18.8205 L485.823 18.8205 M477.641 12.096 L496.113 12.096 Q506.281 12.096 511.466 16.714 Q516.691 21.2916 516.691 30.163 Q516.691 39.1155 511.466 43.6931 Q506.281 48.2706 496.113 48.2706 L485.823 48.2706 L485.823 72.576 L477.641 72.576 L477.641 12.096 Z" fill="#000000" fill-rule="evenodd" fill-opacity="1" /><path clip-path="url(#clip510)" d="M565.059 45.1919 L565.059 72.576 L557.605 72.576 L557.605 45.4349 Q557.605 38.994 555.094 35.7938 Q552.582 32.5936 547.559 32.5936 Q541.523 32.5936 538.04 36.4419 Q534.556 40.2903 534.556 46.9338 L534.556 72.576 L527.062 72.576 L527.062 9.54393 L534.556 9.54393 L534.556 34.2544 Q537.229 30.163 540.835 28.1376 Q544.481 26.1121 549.22 26.1121 Q557.038 26.1121 561.049 30.9732 Q565.059 35.7938 565.059 45.1919 Z" fill="#000000" fill-rule="evenodd" fill-opacity="1" /><path clip-path="url(#clip510)" d="M597.507 32.4315 Q591.512 32.4315 588.028 37.1306 Q584.544 41.7891 584.544 49.9314 Q584.544 58.0738 587.987 62.7728 Q591.471 67.4314 597.507 67.4314 Q603.462 67.4314 606.946 62.7323 Q610.429 58.0333 610.429 49.9314 Q610.429 41.8701 606.946 37.1711 Q603.462 32.4315 597.507 32.4315 M597.507 26.1121 Q607.229 26.1121 612.779 32.4315 Q618.329 38.7509 618.329 49.9314 Q618.329 61.0714 612.779 67.4314 Q607.229 73.7508 597.507 73.7508 Q587.744 73.7508 582.194 67.4314 Q576.685 61.0714 576.685 49.9314 Q576.685 38.7509 582.194 32.4315 Q587.744 26.1121 597.507 26.1121 Z" fill="#000000" fill-rule="evenodd" fill-opacity="1" /><path clip-path="url(#clip510)" d="M638.056 14.324 L638.056 27.2059 L653.409 27.2059 L653.409 32.9987 L638.056 32.9987 L638.056 57.6282 Q638.056 63.1779 639.555 64.7578 Q641.095 66.3376 645.753 66.3376 L653.409 66.3376 L653.409 72.576 L645.753 72.576 Q637.125 72.576 633.844 69.3758 Q630.562 66.1351 630.562 57.6282 L630.562 32.9987 L625.094 32.9987 L625.094 27.2059 L630.562 27.2059 L630.562 14.324 L638.056 14.324 Z" fill="#000000" fill-rule="evenodd" fill-opacity="1" /><path clip-path="url(#clip510)" d="M680.793 32.4315 Q674.798 32.4315 671.314 37.1306 Q667.831 41.7891 667.831 49.9314 Q667.831 58.0738 671.274 62.7728 Q674.758 67.4314 680.793 67.4314 Q686.748 67.4314 690.232 62.7323 Q693.716 58.0333 693.716 49.9314 Q693.716 41.8701 690.232 37.1711 Q686.748 32.4315 680.793 32.4315 M680.793 26.1121 Q690.516 26.1121 696.065 32.4315 Q701.615 38.7509 701.615 49.9314 Q701.615 61.0714 696.065 67.4314 Q690.516 73.7508 680.793 73.7508 Q671.031 73.7508 665.481 67.4314 Q659.972 61.0714 659.972 49.9314 Q659.972 38.7509 665.481 32.4315 Q671.031 26.1121 680.793 26.1121 Z" fill="#000000" fill-rule="evenodd" fill-opacity="1" /><path clip-path="url(#clip510)" d="M743.826 34.0924 L743.826 9.54393 L751.279 9.54393 L751.279 72.576 L743.826 72.576 L743.826 65.7705 Q741.476 69.8214 737.871 71.8063 Q734.306 73.7508 729.283 73.7508 Q721.059 73.7508 715.874 67.1883 Q710.73 60.6258 710.73 49.9314 Q710.73 39.2371 715.874 32.6746 Q721.059 26.1121 729.283 26.1121 Q734.306 26.1121 737.871 28.0971 Q741.476 30.0415 743.826 34.0924 M718.426 49.9314 Q718.426 58.1548 721.789 62.8538 Q725.191 67.5124 731.106 67.5124 Q737.02 67.5124 740.423 62.8538 Q743.826 58.1548 743.826 49.9314 Q743.826 41.7081 740.423 37.0496 Q737.02 32.3505 731.106 32.3505 Q725.191 32.3505 721.789 37.0496 Q718.426 41.7081 718.426 49.9314 Z" fill="#000000" fill-rule="evenodd" fill-opacity="1" /><path clip-path="url(#clip510)" d="M766.632 27.2059 L774.086 27.2059 L774.086 72.576 L766.632 72.576 L766.632 27.2059 M766.632 9.54393 L774.086 9.54393 L774.086 18.9825 L766.632 18.9825 L766.632 9.54393 Z" fill="#000000" fill-rule="evenodd" fill-opacity="1" /><path clip-path="url(#clip510)" d="M807.263 32.4315 Q801.267 32.4315 797.784 37.1306 Q794.3 41.7891 794.3 49.9314 Q794.3 58.0738 797.743 62.7728 Q801.227 67.4314 807.263 67.4314 Q813.218 67.4314 816.701 62.7323 Q820.185 58.0333 820.185 49.9314 Q820.185 41.8701 816.701 37.1711 Q813.218 32.4315 807.263 32.4315 M807.263 26.1121 Q816.985 26.1121 822.535 32.4315 Q828.084 38.7509 828.084 49.9314 Q828.084 61.0714 822.535 67.4314 Q816.985 73.7508 807.263 73.7508 Q797.5 73.7508 791.95 67.4314 Q786.441 61.0714 786.441 49.9314 Q786.441 38.7509 791.95 32.4315 Q797.5 26.1121 807.263 26.1121 Z" fill="#000000" fill-rule="evenodd" fill-opacity="1" /><path clip-path="url(#clip510)" d="M870.295 34.0924 L870.295 9.54393 L877.748 9.54393 L877.748 72.576 L870.295 72.576 L870.295 65.7705 Q867.945 69.8214 864.34 71.8063 Q860.775 73.7508 855.752 73.7508 Q847.529 73.7508 842.344 67.1883 Q837.199 60.6258 837.199 49.9314 Q837.199 39.2371 842.344 32.6746 Q847.529 26.1121 855.752 26.1121 Q860.775 26.1121 864.34 28.0971 Q867.945 30.0415 870.295 34.0924 M844.896 49.9314 Q844.896 58.1548 848.258 62.8538 Q851.661 67.5124 857.575 67.5124 Q863.489 67.5124 866.892 62.8538 Q870.295 58.1548 870.295 49.9314 Q870.295 41.7081 866.892 37.0496 Q863.489 32.3505 857.575 32.3505 Q851.661 32.3505 848.258 37.0496 Q844.896 41.7081 844.896 49.9314 Z" fill="#000000" fill-rule="evenodd" fill-opacity="1" /><path clip-path="url(#clip510)" d="M931.909 48.0275 L931.909 51.6733 L897.638 51.6733 Q898.125 59.3701 902.256 63.421 Q906.429 67.4314 913.842 67.4314 Q918.136 67.4314 922.146 66.3781 Q926.197 65.3249 930.167 63.2184 L930.167 70.267 Q926.157 71.9684 921.944 72.8596 Q917.731 73.7508 913.396 73.7508 Q902.54 73.7508 896.18 67.4314 Q889.861 61.1119 889.861 50.3365 Q889.861 39.1965 895.856 32.6746 Q901.892 26.1121 912.1 26.1121 Q921.255 26.1121 926.562 32.0264 Q931.909 37.9003 931.909 48.0275 M924.455 45.84 Q924.374 39.7232 921.012 36.0774 Q917.69 32.4315 912.181 32.4315 Q905.943 32.4315 902.175 35.9558 Q898.449 39.4801 897.881 45.8805 L924.455 45.84 Z" fill="#000000" fill-rule="evenodd" fill-opacity="1" /><path clip-path="url(#clip510)" d="M999.519 44.2197 Q1002.15 45.1109 1004.62 48.0275 Q1007.13 50.9442 1009.65 56.0483 L1017.95 72.576 L1009.16 72.576 L1001.42 57.061 Q998.425 50.9847 995.589 48.9997 Q992.794 47.0148 987.933 47.0148 L979.021 47.0148 L979.021 72.576 L970.838 72.576 L970.838 12.096 L989.31 12.096 Q999.681 12.096 1004.78 16.4305 Q1009.89 20.7649 1009.89 29.5149 Q1009.89 35.2267 1007.22 38.994 Q1004.58 42.7613 999.519 44.2197 M979.021 18.8205 L979.021 40.2903 L989.31 40.2903 Q995.225 40.2903 998.222 37.5762 Q1001.26 34.8216 1001.26 29.5149 Q1001.26 24.2082 998.222 21.5346 Q995.225 18.8205 989.31 18.8205 L979.021 18.8205 Z" fill="#000000" fill-rule="evenodd" fill-opacity="1" /><path clip-path="url(#clip510)" d="M1063.24 48.0275 L1063.24 51.6733 L1028.97 51.6733 Q1029.45 59.3701 1033.59 63.421 Q1037.76 67.4314 1045.17 67.4314 Q1049.47 67.4314 1053.48 66.3781 Q1057.53 65.3249 1061.5 63.2184 L1061.5 70.267 Q1057.49 71.9684 1053.27 72.8596 Q1049.06 73.7508 1044.73 73.7508 Q1033.87 73.7508 1027.51 67.4314 Q1021.19 61.1119 1021.19 50.3365 Q1021.19 39.1965 1027.19 32.6746 Q1033.22 26.1121 1043.43 26.1121 Q1052.59 26.1121 1057.89 32.0264 Q1063.24 37.9003 1063.24 48.0275 M1055.79 45.84 Q1055.7 39.7232 1052.34 36.0774 Q1049.02 32.4315 1043.51 32.4315 Q1037.27 32.4315 1033.51 35.9558 Q1029.78 39.4801 1029.21 45.8805 L1055.79 45.84 Z" fill="#000000" fill-rule="evenodd" fill-opacity="1" /><path clip-path="url(#clip510)" d="M1096.09 49.7694 Q1087.06 49.7694 1083.57 51.8354 Q1080.09 53.9013 1080.09 58.8839 Q1080.09 62.8538 1082.68 65.2034 Q1085.32 67.5124 1089.81 67.5124 Q1096.01 67.5124 1099.74 63.1374 Q1103.51 58.7219 1103.51 51.4303 L1103.51 49.7694 L1096.09 49.7694 M1110.96 46.6907 L1110.96 72.576 L1103.51 72.576 L1103.51 65.6895 Q1100.95 69.8214 1097.15 71.8063 Q1093.34 73.7508 1087.83 73.7508 Q1080.86 73.7508 1076.73 69.8619 Q1072.64 65.9325 1072.64 59.3701 Q1072.64 51.7138 1077.74 47.825 Q1082.89 43.9361 1093.05 43.9361 L1103.51 43.9361 L1103.51 43.2069 Q1103.51 38.0623 1100.1 35.2672 Q1096.74 32.4315 1090.62 32.4315 Q1086.73 32.4315 1083.05 33.3632 Q1079.36 34.295 1075.96 36.1584 L1075.96 29.2718 Q1080.05 27.692 1083.9 26.9223 Q1087.75 26.1121 1091.39 26.1121 Q1101.24 26.1121 1106.1 31.2163 Q1110.96 36.3204 1110.96 46.6907 Z" fill="#000000" fill-rule="evenodd" fill-opacity="1" /><path clip-path="url(#clip510)" d="M1126.31 9.54393 L1133.77 9.54393 L1133.77 72.576 L1126.31 72.576 L1126.31 9.54393 Z" fill="#000000" fill-rule="evenodd" fill-opacity="1" /><path clip-path="url(#clip510)" d="M1145.59 46.5287 L1167.43 46.5287 L1167.43 53.1722 L1145.59 53.1722 L1145.59 46.5287 Z" fill="#000000" fill-rule="evenodd" fill-opacity="1" /><path clip-path="url(#clip510)" d="M1163.62 12.096 L1214.78 12.096 L1214.78 18.9825 L1193.31 18.9825 L1193.31 72.576 L1185.09 72.576 L1185.09 18.9825 L1163.62 18.9825 L1163.62 12.096 Z" fill="#000000" fill-rule="evenodd" fill-opacity="1" /><path clip-path="url(#clip510)" d="M1219.81 27.2059 L1227.26 27.2059 L1227.26 72.576 L1219.81 72.576 L1219.81 27.2059 M1219.81 9.54393 L1227.26 9.54393 L1227.26 18.9825 L1219.81 18.9825 L1219.81 9.54393 Z" fill="#000000" fill-rule="evenodd" fill-opacity="1" /><path clip-path="url(#clip510)" d="M1278.18 35.9153 Q1280.98 30.8922 1284.86 28.5022 Q1288.75 26.1121 1294.02 26.1121 Q1301.11 26.1121 1304.96 31.0947 Q1308.81 36.0368 1308.81 45.1919 L1308.81 72.576 L1301.31 72.576 L1301.31 45.4349 Q1301.31 38.913 1299 35.7533 Q1296.69 32.5936 1291.95 32.5936 Q1286.16 32.5936 1282.8 36.4419 Q1279.44 40.2903 1279.44 46.9338 L1279.44 72.576 L1271.94 72.576 L1271.94 45.4349 Q1271.94 38.8725 1269.63 35.7533 Q1267.32 32.5936 1262.5 32.5936 Q1256.79 32.5936 1253.43 36.4824 Q1250.07 40.3308 1250.07 46.9338 L1250.07 72.576 L1242.57 72.576 L1242.57 27.2059 L1250.07 27.2059 L1250.07 34.2544 Q1252.62 30.082 1256.18 28.0971 Q1259.75 26.1121 1264.65 26.1121 Q1269.59 26.1121 1273.04 28.6237 Q1276.52 31.1352 1278.18 35.9153 Z" fill="#000000" fill-rule="evenodd" fill-opacity="1" /><path clip-path="url(#clip510)" d="M1362.48 48.0275 L1362.48 51.6733 L1328.21 51.6733 Q1328.7 59.3701 1332.83 63.421 Q1337 67.4314 1344.41 67.4314 Q1348.71 67.4314 1352.72 66.3781 Q1356.77 65.3249 1360.74 63.2184 L1360.74 70.267 Q1356.73 71.9684 1352.51 72.8596 Q1348.3 73.7508 1343.97 73.7508 Q1333.11 73.7508 1326.75 67.4314 Q1320.43 61.1119 1320.43 50.3365 Q1320.43 39.1965 1326.43 32.6746 Q1332.46 26.1121 1342.67 26.1121 Q1351.83 26.1121 1357.13 32.0264 Q1362.48 37.9003 1362.48 48.0275 M1355.03 45.84 Q1354.94 39.7232 1351.58 36.0774 Q1348.26 32.4315 1342.75 32.4315 Q1336.51 32.4315 1332.75 35.9558 Q1329.02 39.4801 1328.45 45.8805 L1355.03 45.84 Z" fill="#000000" fill-rule="evenodd" fill-opacity="1" /><path clip-path="url(#clip510)" d="M1409.59 18.8205 L1409.59 65.8515 L1419.48 65.8515 Q1431.99 65.8515 1437.79 60.1802 Q1443.62 54.509 1443.62 42.2752 Q1443.62 30.1225 1437.79 24.4918 Q1431.99 18.8205 1419.48 18.8205 L1409.59 18.8205 M1401.41 12.096 L1418.22 12.096 Q1435.8 12.096 1444.02 19.4281 Q1452.25 26.7198 1452.25 42.2752 Q1452.25 57.9117 1443.98 65.2439 Q1435.72 72.576 1418.22 72.576 L1401.41 72.576 L1401.41 12.096 Z" fill="#000000" fill-rule="evenodd" fill-opacity="1" /><path clip-path="url(#clip510)" d="M1503.78 48.0275 L1503.78 51.6733 L1469.5 51.6733 Q1469.99 59.3701 1474.12 63.421 Q1478.3 67.4314 1485.71 67.4314 Q1490 67.4314 1494.01 66.3781 Q1498.06 65.3249 1502.03 63.2184 L1502.03 70.267 Q1498.02 71.9684 1493.81 72.8596 Q1489.6 73.7508 1485.26 73.7508 Q1474.41 73.7508 1468.05 67.4314 Q1461.73 61.1119 1461.73 50.3365 Q1461.73 39.1965 1467.72 32.6746 Q1473.76 26.1121 1483.97 26.1121 Q1493.12 26.1121 1498.43 32.0264 Q1503.78 37.9003 1503.78 48.0275 M1496.32 45.84 Q1496.24 39.7232 1492.88 36.0774 Q1489.56 32.4315 1484.05 32.4315 Q1477.81 32.4315 1474.04 35.9558 Q1470.31 39.4801 1469.75 45.8805 L1496.32 45.84 Z" fill="#000000" fill-rule="evenodd" fill-opacity="1" /><path clip-path="url(#clip510)" d="M1523.38 14.324 L1523.38 27.2059 L1538.73 27.2059 L1538.73 32.9987 L1523.38 32.9987 L1523.38 57.6282 Q1523.38 63.1779 1524.88 64.7578 Q1526.42 66.3376 1531.08 66.3376 L1538.73 66.3376 L1538.73 72.576 L1531.08 72.576 Q1522.45 72.576 1519.17 69.3758 Q1515.89 66.1351 1515.89 57.6282 L1515.89 32.9987 L1510.42 32.9987 L1510.42 27.2059 L1515.89 27.2059 L1515.89 14.324 L1523.38 14.324 Z" fill="#000000" fill-rule="evenodd" fill-opacity="1" /><path clip-path="url(#clip510)" d="M1587.35 48.0275 L1587.35 51.6733 L1553.07 51.6733 Q1553.56 59.3701 1557.69 63.421 Q1561.87 67.4314 1569.28 67.4314 Q1573.57 67.4314 1577.58 66.3781 Q1581.63 65.3249 1585.6 63.2184 L1585.6 70.267 Q1581.59 71.9684 1577.38 72.8596 Q1573.17 73.7508 1568.83 73.7508 Q1557.98 73.7508 1551.62 67.4314 Q1545.3 61.1119 1545.3 50.3365 Q1545.3 39.1965 1551.29 32.6746 Q1557.33 26.1121 1567.54 26.1121 Q1576.69 26.1121 1582 32.0264 Q1587.35 37.9003 1587.35 48.0275 M1579.89 45.84 Q1579.81 39.7232 1576.45 36.0774 Q1573.13 32.4315 1567.62 32.4315 Q1561.38 32.4315 1557.61 35.9558 Q1553.88 39.4801 1553.32 45.8805 L1579.89 45.84 Z" fill="#000000" fill-rule="evenodd" fill-opacity="1" /><path clip-path="url(#clip510)" d="M1632.23 28.9478 L1632.23 35.9153 Q1629.07 34.1734 1625.87 33.3227 Q1622.71 32.4315 1619.47 32.4315 Q1612.22 32.4315 1608.21 37.0496 Q1604.2 41.6271 1604.2 49.9314 Q1604.2 58.2358 1608.21 62.8538 Q1612.22 67.4314 1619.47 67.4314 Q1622.71 67.4314 1625.87 66.5807 Q1629.07 65.6895 1632.23 63.9476 L1632.23 70.8341 Q1629.11 72.2924 1625.75 73.0216 Q1622.43 73.7508 1618.66 73.7508 Q1608.41 73.7508 1602.37 67.3098 Q1596.34 60.8689 1596.34 49.9314 Q1596.34 38.832 1602.41 32.472 Q1608.53 26.1121 1619.14 26.1121 Q1622.59 26.1121 1625.87 26.8413 Q1629.15 27.5299 1632.23 28.9478 Z" fill="#000000" fill-rule="evenodd" fill-opacity="1" /><path clip-path="url(#clip510)" d="M1652.56 14.324 L1652.56 27.2059 L1667.92 27.2059 L1667.92 32.9987 L1652.56 32.9987 L1652.56 57.6282 Q1652.56 63.1779 1654.06 64.7578 Q1655.6 66.3376 1660.26 66.3376 L1667.92 66.3376 L1667.92 72.576 L1660.26 72.576 Q1651.63 72.576 1648.35 69.3758 Q1645.07 66.1351 1645.07 57.6282 L1645.07 32.9987 L1639.6 32.9987 L1639.6 27.2059 L1645.07 27.2059 L1645.07 14.324 L1652.56 14.324 Z" fill="#000000" fill-rule="evenodd" fill-opacity="1" /><path clip-path="url(#clip510)" d="M1716.53 48.0275 L1716.53 51.6733 L1682.26 51.6733 Q1682.74 59.3701 1686.88 63.421 Q1691.05 67.4314 1698.46 67.4314 Q1702.76 67.4314 1706.77 66.3781 Q1710.82 65.3249 1714.79 63.2184 L1714.79 70.267 Q1710.78 71.9684 1706.56 72.8596 Q1702.35 73.7508 1698.02 73.7508 Q1687.16 73.7508 1680.8 67.4314 Q1674.48 61.1119 1674.48 50.3365 Q1674.48 39.1965 1680.48 32.6746 Q1686.51 26.1121 1696.72 26.1121 Q1705.87 26.1121 1711.18 32.0264 Q1716.53 37.9003 1716.53 48.0275 M1709.08 45.84 Q1708.99 39.7232 1705.63 36.0774 Q1702.31 32.4315 1696.8 32.4315 Q1690.56 32.4315 1686.8 35.9558 Q1683.07 39.4801 1682.5 45.8805 L1709.08 45.84 Z" fill="#000000" fill-rule="evenodd" fill-opacity="1" /><path clip-path="url(#clip510)" d="M1758.62 34.0924 L1758.62 9.54393 L1766.07 9.54393 L1766.07 72.576 L1758.62 72.576 L1758.62 65.7705 Q1756.27 69.8214 1752.66 71.8063 Q1749.1 73.7508 1744.07 73.7508 Q1735.85 73.7508 1730.67 67.1883 Q1725.52 60.6258 1725.52 49.9314 Q1725.52 39.2371 1730.67 32.6746 Q1735.85 26.1121 1744.07 26.1121 Q1749.1 26.1121 1752.66 28.0971 Q1756.27 30.0415 1758.62 34.0924 M1733.22 49.9314 Q1733.22 58.1548 1736.58 62.8538 Q1739.98 67.5124 1745.9 67.5124 Q1751.81 67.5124 1755.21 62.8538 Q1758.62 58.1548 1758.62 49.9314 Q1758.62 41.7081 1755.21 37.0496 Q1751.81 32.3505 1745.9 32.3505 Q1739.98 32.3505 1736.58 37.0496 Q1733.22 41.7081 1733.22 49.9314 Z" fill="#000000" fill-rule="evenodd" fill-opacity="1" /><path clip-path="url(#clip510)" d="M1816.3 18.8205 L1816.3 65.8515 L1826.19 65.8515 Q1838.7 65.8515 1844.5 60.1802 Q1850.33 54.509 1850.33 42.2752 Q1850.33 30.1225 1844.5 24.4918 Q1838.7 18.8205 1826.19 18.8205 L1816.3 18.8205 M1808.12 12.096 L1824.93 12.096 Q1842.51 12.096 1850.74 19.4281 Q1858.96 26.7198 1858.96 42.2752 Q1858.96 57.9117 1850.69 65.2439 Q1842.43 72.576 1824.93 72.576 L1808.12 72.576 L1808.12 12.096 Z" fill="#000000" fill-rule="evenodd" fill-opacity="1" /><path clip-path="url(#clip510)" d="M1871.68 27.2059 L1879.13 27.2059 L1879.13 72.576 L1871.68 72.576 L1871.68 27.2059 M1871.68 9.54393 L1879.13 9.54393 L1879.13 18.9825 L1871.68 18.9825 L1871.68 9.54393 Z" fill="#000000" fill-rule="evenodd" fill-opacity="1" /><path clip-path="url(#clip510)" d="M1924.58 49.3643 Q1924.58 41.2625 1921.22 36.8065 Q1917.9 32.3505 1911.86 32.3505 Q1905.87 32.3505 1902.51 36.8065 Q1899.18 41.2625 1899.18 49.3643 Q1899.18 57.4256 1902.51 61.8816 Q1905.87 66.3376 1911.86 66.3376 Q1917.9 66.3376 1921.22 61.8816 Q1924.58 57.4256 1924.58 49.3643 M1932.04 66.9452 Q1932.04 78.5308 1926.89 84.1616 Q1921.75 89.8329 1911.13 89.8329 Q1907.2 89.8329 1903.72 89.2252 Q1900.24 88.6581 1896.96 87.4428 L1896.96 80.1917 Q1900.24 81.9741 1903.44 82.8248 Q1906.64 83.6755 1909.96 83.6755 Q1917.29 83.6755 1920.94 79.8271 Q1924.58 76.0193 1924.58 68.282 L1924.58 64.5957 Q1922.27 68.6061 1918.67 70.5911 Q1915.06 72.576 1910.04 72.576 Q1901.7 72.576 1896.59 66.2161 Q1891.49 59.8562 1891.49 49.3643 Q1891.49 38.832 1896.59 32.472 Q1901.7 26.1121 1910.04 26.1121 Q1915.06 26.1121 1918.67 28.0971 Q1922.27 30.082 1924.58 34.0924 L1924.58 27.2059 L1932.04 27.2059 L1932.04 66.9452 Z" fill="#000000" fill-rule="evenodd" fill-opacity="1" /><path clip-path="url(#clip510)" d="M1947.39 27.2059 L1954.84 27.2059 L1954.84 72.576 L1947.39 72.576 L1947.39 27.2059 M1947.39 9.54393 L1954.84 9.54393 L1954.84 18.9825 L1947.39 18.9825 L1947.39 9.54393 Z" fill="#000000" fill-rule="evenodd" fill-opacity="1" /><path clip-path="url(#clip510)" d="M1977.81 14.324 L1977.81 27.2059 L1993.16 27.2059 L1993.16 32.9987 L1977.81 32.9987 L1977.81 57.6282 Q1977.81 63.1779 1979.31 64.7578 Q1980.85 66.3376 1985.51 66.3376 L1993.16 66.3376 L1993.16 72.576 L1985.51 72.576 Q1976.88 72.576 1973.6 69.3758 Q1970.32 66.1351 1970.32 57.6282 L1970.32 32.9987 L1964.85 32.9987 L1964.85 27.2059 L1970.32 27.2059 L1970.32 14.324 L1977.81 14.324 Z" fill="#000000" fill-rule="evenodd" fill-opacity="1" /><path clip-path="url(#clip510)" d="M2023.59 49.7694 Q2014.55 49.7694 2011.07 51.8354 Q2007.59 53.9013 2007.59 58.8839 Q2007.59 62.8538 2010.18 65.2034 Q2012.81 67.5124 2017.31 67.5124 Q2023.51 67.5124 2027.23 63.1374 Q2031 58.7219 2031 51.4303 L2031 49.7694 L2023.59 49.7694 M2038.45 46.6907 L2038.45 72.576 L2031 72.576 L2031 65.6895 Q2028.45 69.8214 2024.64 71.8063 Q2020.83 73.7508 2015.32 73.7508 Q2008.36 73.7508 2004.22 69.8619 Q2000.13 65.9325 2000.13 59.3701 Q2000.13 51.7138 2005.24 47.825 Q2010.38 43.9361 2020.55 43.9361 L2031 43.9361 L2031 43.2069 Q2031 38.0623 2027.6 35.2672 Q2024.24 32.4315 2018.12 32.4315 Q2014.23 32.4315 2010.54 33.3632 Q2006.86 34.295 2003.45 36.1584 L2003.45 29.2718 Q2007.55 27.692 2011.39 26.9223 Q2015.24 26.1121 2018.89 26.1121 Q2028.73 26.1121 2033.59 31.2163 Q2038.45 36.3204 2038.45 46.6907 Z" fill="#000000" fill-rule="evenodd" fill-opacity="1" /><path clip-path="url(#clip510)" d="M2053.81 9.54393 L2061.26 9.54393 L2061.26 72.576 L2053.81 72.576 L2053.81 9.54393 Z" fill="#000000" fill-rule="evenodd" fill-opacity="1" /><path clip-path="url(#clip510)" d="M2139.81 14.0809 L2139.81 22.0612 Q2135.15 19.8332 2131.02 18.7395 Q2126.89 17.6457 2123.04 17.6457 Q2116.35 17.6457 2112.71 20.2383 Q2109.1 22.8309 2109.1 27.611 Q2109.1 31.6214 2111.49 33.6873 Q2113.92 35.7128 2120.65 36.9686 L2125.59 37.9813 Q2134.74 39.7232 2139.08 44.1387 Q2143.45 48.5136 2143.45 55.8863 Q2143.45 64.6767 2137.54 69.2137 Q2131.67 73.7508 2120.28 73.7508 Q2115.99 73.7508 2111.13 72.7785 Q2106.31 71.8063 2101.12 69.9024 L2101.12 61.4765 Q2106.1 64.2716 2110.88 65.6895 Q2115.66 67.1073 2120.28 67.1073 Q2127.29 67.1073 2131.1 64.3527 Q2134.91 61.598 2134.91 56.4939 Q2134.91 52.0379 2132.15 49.5264 Q2129.44 47.0148 2123.2 45.759 L2118.22 44.7868 Q2109.06 42.9639 2104.97 39.075 Q2100.88 35.1862 2100.88 28.2591 Q2100.88 20.2383 2106.51 15.6203 Q2112.18 11.0023 2122.11 11.0023 Q2126.36 11.0023 2130.77 11.7719 Q2135.19 12.5416 2139.81 14.0809 Z" fill="#000000" fill-rule="evenodd" fill-opacity="1" /><path clip-path="url(#clip510)" d="M2155.89 27.2059 L2163.34 27.2059 L2163.34 72.576 L2155.89 72.576 L2155.89 27.2059 M2155.89 9.54393 L2163.34 9.54393 L2163.34 18.9825 L2155.89 18.9825 L2155.89 9.54393 Z" fill="#000000" fill-rule="evenodd" fill-opacity="1" /><path clip-path="url(#clip510)" d="M2208.79 49.3643 Q2208.79 41.2625 2205.43 36.8065 Q2202.11 32.3505 2196.07 32.3505 Q2190.08 32.3505 2186.72 36.8065 Q2183.4 41.2625 2183.4 49.3643 Q2183.4 57.4256 2186.72 61.8816 Q2190.08 66.3376 2196.07 66.3376 Q2202.11 66.3376 2205.43 61.8816 Q2208.79 57.4256 2208.79 49.3643 M2216.25 66.9452 Q2216.25 78.5308 2211.1 84.1616 Q2205.96 89.8329 2195.35 89.8329 Q2191.42 89.8329 2187.93 89.2252 Q2184.45 88.6581 2181.17 87.4428 L2181.17 80.1917 Q2184.45 81.9741 2187.65 82.8248 Q2190.85 83.6755 2194.17 83.6755 Q2201.5 83.6755 2205.15 79.8271 Q2208.79 76.0193 2208.79 68.282 L2208.79 64.5957 Q2206.49 68.6061 2202.88 70.5911 Q2199.27 72.576 2194.25 72.576 Q2185.91 72.576 2180.8 66.2161 Q2175.7 59.8562 2175.7 49.3643 Q2175.7 38.832 2180.8 32.472 Q2185.91 26.1121 2194.25 26.1121 Q2199.27 26.1121 2202.88 28.0971 Q2206.49 30.082 2208.79 34.0924 L2208.79 27.2059 L2216.25 27.2059 L2216.25 66.9452 Z" fill="#000000" fill-rule="evenodd" fill-opacity="1" /><path clip-path="url(#clip510)" d="M2269.32 45.1919 L2269.32 72.576 L2261.86 72.576 L2261.86 45.4349 Q2261.86 38.994 2259.35 35.7938 Q2256.84 32.5936 2251.82 32.5936 Q2245.78 32.5936 2242.3 36.4419 Q2238.81 40.2903 2238.81 46.9338 L2238.81 72.576 L2231.32 72.576 L2231.32 27.2059 L2238.81 27.2059 L2238.81 34.2544 Q2241.49 30.163 2245.09 28.1376 Q2248.74 26.1121 2253.48 26.1121 Q2261.29 26.1121 2265.3 30.9732 Q2269.32 35.7938 2269.32 45.1919 Z" fill="#000000" fill-rule="evenodd" fill-opacity="1" /><path clip-path="url(#clip510)" d="M2304.8 49.7694 Q2295.77 49.7694 2292.28 51.8354 Q2288.8 53.9013 2288.8 58.8839 Q2288.8 62.8538 2291.39 65.2034 Q2294.03 67.5124 2298.52 67.5124 Q2304.72 67.5124 2308.45 63.1374 Q2312.21 58.7219 2312.21 51.4303 L2312.21 49.7694 L2304.8 49.7694 M2319.67 46.6907 L2319.67 72.576 L2312.21 72.576 L2312.21 65.6895 Q2309.66 69.8214 2305.85 71.8063 Q2302.05 73.7508 2296.54 73.7508 Q2289.57 73.7508 2285.44 69.8619 Q2281.35 65.9325 2281.35 59.3701 Q2281.35 51.7138 2286.45 47.825 Q2291.6 43.9361 2301.76 43.9361 L2312.21 43.9361 L2312.21 43.2069 Q2312.21 38.0623 2308.81 35.2672 Q2305.45 32.4315 2299.33 32.4315 Q2295.44 32.4315 2291.76 33.3632 Q2288.07 34.295 2284.67 36.1584 L2284.67 29.2718 Q2288.76 27.692 2292.61 26.9223 Q2296.46 26.1121 2300.1 26.1121 Q2309.95 26.1121 2314.81 31.2163 Q2319.67 36.3204 2319.67 46.6907 Z" fill="#000000" fill-rule="evenodd" fill-opacity="1" /><path clip-path="url(#clip510)" d="M2335.02 9.54393 L2342.47 9.54393 L2342.47 72.576 L2335.02 72.576 L2335.02 9.54393 Z" fill="#000000" fill-rule="evenodd" fill-opacity="1" /><path clip-path="url(#clip510)" d="M368.185 100.345 Q362.757 109.662 360.124 118.777 Q357.491 127.891 357.491 137.249 Q357.491 146.606 360.124 155.802 Q362.798 164.957 368.185 174.233 L361.704 174.233 Q355.627 164.714 352.589 155.518 Q349.592 146.323 349.592 137.249 Q349.592 128.215 352.589 119.06 Q355.587 109.905 361.704 100.345 L368.185 100.345 Z" fill="#000000" fill-rule="evenodd" fill-opacity="1" /><path clip-path="url(#clip510)" d="M398.567 163.296 L375.477 102.816 L384.024 102.816 L403.185 153.736 L422.386 102.816 L430.893 102.816 L407.844 163.296 L398.567 163.296 Z" fill="#000000" fill-rule="evenodd" fill-opacity="1" /><path clip-path="url(#clip510)" d="M475.98 104.801 L475.98 112.781 Q471.321 110.553 467.189 109.459 Q463.057 108.366 459.209 108.366 Q452.525 108.366 448.879 110.958 Q445.274 113.551 445.274 118.331 Q445.274 122.341 447.664 124.407 Q450.095 126.433 456.819 127.689 L461.761 128.701 Q470.916 130.443 475.251 134.859 Q479.626 139.234 479.626 146.606 Q479.626 155.397 473.711 159.934 Q467.837 164.471 456.454 164.471 Q452.16 164.471 447.299 163.499 Q442.479 162.526 437.294 160.622 L437.294 152.197 Q442.276 154.992 447.056 156.409 Q451.836 157.827 456.454 157.827 Q463.462 157.827 467.27 155.073 Q471.078 152.318 471.078 147.214 Q471.078 142.758 468.324 140.246 Q465.609 137.735 459.371 136.479 L454.388 135.507 Q445.233 133.684 441.142 129.795 Q437.051 125.906 437.051 118.979 Q437.051 110.958 442.681 106.34 Q448.353 101.722 458.277 101.722 Q462.531 101.722 466.946 102.492 Q471.362 103.262 475.98 104.801 Z" fill="#000000" fill-rule="evenodd" fill-opacity="1" /><path clip-path="url(#clip510)" d="M510.939 167.509 Q507.779 175.611 504.782 178.082 Q501.784 180.553 496.761 180.553 L490.806 180.553 L490.806 174.314 L495.181 174.314 Q498.26 174.314 499.961 172.856 Q501.663 171.398 503.728 165.97 L505.065 162.567 L486.715 117.926 L494.614 117.926 L508.792 153.412 L522.97 117.926 L530.87 117.926 L510.939 167.509 Z" fill="#000000" fill-rule="evenodd" fill-opacity="1" /><path clip-path="url(#clip510)" d="M578.873 135.912 L578.873 163.296 L571.419 163.296 L571.419 136.155 Q571.419 129.714 568.908 126.514 Q566.396 123.314 561.373 123.314 Q555.337 123.314 551.853 127.162 Q548.369 131.01 548.369 137.654 L548.369 163.296 L540.875 163.296 L540.875 117.926 L548.369 117.926 L548.369 124.974 Q551.043 120.883 554.648 118.858 Q558.294 116.832 563.034 116.832 Q570.852 116.832 574.862 121.693 Q578.873 126.514 578.873 135.912 Z" fill="#000000" fill-rule="evenodd" fill-opacity="1" /><path clip-path="url(#clip510)" d="M626.39 119.668 L626.39 126.635 Q623.23 124.893 620.03 124.043 Q616.87 123.152 613.63 123.152 Q606.378 123.152 602.368 127.77 Q598.358 132.347 598.358 140.651 Q598.358 148.956 602.368 153.574 Q606.378 158.151 613.63 158.151 Q616.87 158.151 620.03 157.301 Q623.23 156.409 626.39 154.668 L626.39 161.554 Q623.271 163.012 619.908 163.742 Q616.587 164.471 612.819 164.471 Q602.571 164.471 596.535 158.03 Q590.499 151.589 590.499 140.651 Q590.499 129.552 596.575 123.192 Q602.692 116.832 613.305 116.832 Q616.749 116.832 620.03 117.561 Q623.311 118.25 626.39 119.668 Z" fill="#000000" fill-rule="evenodd" fill-opacity="1" /><path clip-path="url(#clip510)" d="M640.325 125.623 L692.258 125.623 L692.258 132.428 L640.325 132.428 L640.325 125.623 M640.325 142.15 L692.258 142.15 L692.258 149.037 L640.325 149.037 L640.325 142.15 Z" fill="#000000" fill-rule="evenodd" fill-opacity="1" /><path clip-path="url(#clip510)" d="M733.739 108.366 Q724.827 108.366 719.561 115.009 Q714.335 121.653 714.335 133.117 Q714.335 144.54 719.561 151.184 Q724.827 157.827 733.739 157.827 Q742.651 157.827 747.836 151.184 Q753.062 144.54 753.062 133.117 Q753.062 121.653 747.836 115.009 Q742.651 108.366 733.739 108.366 M733.739 101.722 Q746.459 101.722 754.074 110.27 Q761.69 118.777 761.69 133.117 Q761.69 147.416 754.074 155.964 Q746.459 164.471 733.739 164.471 Q720.978 164.471 713.322 155.964 Q705.707 147.457 705.707 133.117 Q705.707 118.777 713.322 110.27 Q720.978 101.722 733.739 101.722 Z" fill="#000000" fill-rule="evenodd" fill-opacity="1" /><path clip-path="url(#clip510)" d="M811.881 135.912 L811.881 163.296 L804.427 163.296 L804.427 136.155 Q804.427 129.714 801.916 126.514 Q799.404 123.314 794.381 123.314 Q788.345 123.314 784.861 127.162 Q781.377 131.01 781.377 137.654 L781.377 163.296 L773.883 163.296 L773.883 117.926 L781.377 117.926 L781.377 124.974 Q784.051 120.883 787.656 118.858 Q791.302 116.832 796.042 116.832 Q803.86 116.832 807.87 121.693 Q811.881 126.514 811.881 135.912 Z" fill="#000000" fill-rule="evenodd" fill-opacity="1" /><path clip-path="url(#clip510)" d="M828.652 153.007 L837.199 153.007 L837.199 159.974 L830.555 172.937 L825.33 172.937 L828.652 159.974 L828.652 153.007 Z" fill="#000000" fill-rule="evenodd" fill-opacity="1" /><path clip-path="url(#clip510)" d="M921.053 154.668 L921.053 138.423 L907.685 138.423 L907.685 131.699 L929.154 131.699 L929.154 157.665 Q924.415 161.027 918.703 162.769 Q912.991 164.471 906.51 164.471 Q892.332 164.471 884.311 156.207 Q876.331 147.903 876.331 133.117 Q876.331 118.29 884.311 110.027 Q892.332 101.722 906.51 101.722 Q912.424 101.722 917.731 103.181 Q923.078 104.639 927.575 107.475 L927.575 116.184 Q923.038 112.336 917.933 110.391 Q912.829 108.447 907.199 108.447 Q896.099 108.447 890.509 114.645 Q884.959 120.843 884.959 133.117 Q884.959 145.35 890.509 151.548 Q896.099 157.746 907.199 157.746 Q911.533 157.746 914.936 157.017 Q918.339 156.247 921.053 154.668 Z" fill="#000000" fill-rule="evenodd" fill-opacity="1" /><path clip-path="url(#clip510)" d="M980.358 104.801 L980.358 112.781 Q975.699 110.553 971.567 109.459 Q967.435 108.366 963.587 108.366 Q956.903 108.366 953.257 110.958 Q949.652 113.551 949.652 118.331 Q949.652 122.341 952.042 124.407 Q954.473 126.433 961.197 127.689 L966.139 128.701 Q975.294 130.443 979.629 134.859 Q984.004 139.234 984.004 146.606 Q984.004 155.397 978.089 159.934 Q972.216 164.471 960.833 164.471 Q956.539 164.471 951.677 163.499 Q946.857 162.526 941.672 160.622 L941.672 152.197 Q946.654 154.992 951.434 156.409 Q956.214 157.827 960.833 157.827 Q967.841 157.827 971.648 155.073 Q975.456 152.318 975.456 147.214 Q975.456 142.758 972.702 140.246 Q969.988 137.735 963.749 136.479 L958.767 135.507 Q949.612 133.684 945.52 129.795 Q941.429 125.906 941.429 118.979 Q941.429 110.958 947.059 106.34 Q952.731 101.722 962.655 101.722 Q966.909 101.722 971.324 102.492 Q975.74 103.262 980.358 104.801 Z" fill="#000000" fill-rule="evenodd" fill-opacity="1" /><path clip-path="url(#clip510)" d="M1015.32 167.509 Q1012.16 175.611 1009.16 178.082 Q1006.16 180.553 1001.14 180.553 L995.184 180.553 L995.184 174.314 L999.559 174.314 Q1002.64 174.314 1004.34 172.856 Q1006.04 171.398 1008.11 165.97 L1009.44 162.567 L991.093 117.926 L998.992 117.926 L1013.17 153.412 L1027.35 117.926 L1035.25 117.926 L1015.32 167.509 Z" fill="#000000" fill-rule="evenodd" fill-opacity="1" /><path clip-path="url(#clip510)" d="M1083.25 135.912 L1083.25 163.296 L1075.8 163.296 L1075.8 136.155 Q1075.8 129.714 1073.29 126.514 Q1070.77 123.314 1065.75 123.314 Q1059.72 123.314 1056.23 127.162 Q1052.75 131.01 1052.75 137.654 L1052.75 163.296 L1045.25 163.296 L1045.25 117.926 L1052.75 117.926 L1052.75 124.974 Q1055.42 120.883 1059.03 118.858 Q1062.67 116.832 1067.41 116.832 Q1075.23 116.832 1079.24 121.693 Q1083.25 126.514 1083.25 135.912 Z" fill="#000000" fill-rule="evenodd" fill-opacity="1" /><path clip-path="url(#clip510)" d="M1130.77 119.668 L1130.77 126.635 Q1127.61 124.893 1124.41 124.043 Q1121.25 123.152 1118.01 123.152 Q1110.76 123.152 1106.75 127.77 Q1102.74 132.347 1102.74 140.651 Q1102.74 148.956 1106.75 153.574 Q1110.76 158.151 1118.01 158.151 Q1121.25 158.151 1124.41 157.301 Q1127.61 156.409 1130.77 154.668 L1130.77 161.554 Q1127.65 163.012 1124.29 163.742 Q1120.96 164.471 1117.2 164.471 Q1106.95 164.471 1100.91 158.03 Q1094.88 151.589 1094.88 140.651 Q1094.88 129.552 1100.95 123.192 Q1107.07 116.832 1117.68 116.832 Q1121.13 116.832 1124.41 117.561 Q1127.69 118.25 1130.77 119.668 Z" fill="#000000" fill-rule="evenodd" fill-opacity="1" /><path clip-path="url(#clip510)" d="M1144.7 125.623 L1196.64 125.623 L1196.64 132.428 L1144.7 132.428 L1144.7 125.623 M1144.7 142.15 L1196.64 142.15 L1196.64 149.037 L1144.7 149.037 L1144.7 142.15 Z" fill="#000000" fill-rule="evenodd" fill-opacity="1" /><path clip-path="url(#clip510)" d="M1238.12 108.366 Q1229.2 108.366 1223.94 115.009 Q1218.71 121.653 1218.71 133.117 Q1218.71 144.54 1223.94 151.184 Q1229.2 157.827 1238.12 157.827 Q1247.03 157.827 1252.21 151.184 Q1257.44 144.54 1257.44 133.117 Q1257.44 121.653 1252.21 115.009 Q1247.03 108.366 1238.12 108.366 M1238.12 101.722 Q1250.84 101.722 1258.45 110.27 Q1266.07 118.777 1266.07 133.117 Q1266.07 147.416 1258.45 155.964 Q1250.84 164.471 1238.12 164.471 Q1225.36 164.471 1217.7 155.964 Q1210.08 147.457 1210.08 133.117 Q1210.08 118.777 1217.7 110.27 Q1225.36 101.722 1238.12 101.722 Z" fill="#000000" fill-rule="evenodd" fill-opacity="1" /><path clip-path="url(#clip510)" d="M1316.26 135.912 L1316.26 163.296 L1308.81 163.296 L1308.81 136.155 Q1308.81 129.714 1306.29 126.514 Q1303.78 123.314 1298.76 123.314 Q1292.72 123.314 1289.24 127.162 Q1285.76 131.01 1285.76 137.654 L1285.76 163.296 L1278.26 163.296 L1278.26 117.926 L1285.76 117.926 L1285.76 124.974 Q1288.43 120.883 1292.03 118.858 Q1295.68 116.832 1300.42 116.832 Q1308.24 116.832 1312.25 121.693 Q1316.26 126.514 1316.26 135.912 Z" fill="#000000" fill-rule="evenodd" fill-opacity="1" /><path clip-path="url(#clip510)" d="M1333.03 153.007 L1341.58 153.007 L1341.58 159.974 L1334.93 172.937 L1329.71 172.937 L1333.03 159.974 L1333.03 153.007 Z" fill="#000000" fill-rule="evenodd" fill-opacity="1" /><path clip-path="url(#clip510)" d="M1412.87 134.94 Q1415.51 135.831 1417.98 138.748 Q1420.49 141.664 1423 146.768 L1431.3 163.296 L1422.51 163.296 L1414.78 147.781 Q1411.78 141.705 1408.94 139.72 Q1406.15 137.735 1401.29 137.735 L1392.38 137.735 L1392.38 163.296 L1384.19 163.296 L1384.19 102.816 L1402.66 102.816 Q1413.03 102.816 1418.14 107.15 Q1423.24 111.485 1423.24 120.235 Q1423.24 125.947 1420.57 129.714 Q1417.94 133.481 1412.87 134.94 M1392.38 109.541 L1392.38 131.01 L1402.66 131.01 Q1408.58 131.01 1411.58 128.296 Q1414.61 125.542 1414.61 120.235 Q1414.61 114.928 1411.58 112.255 Q1408.58 109.541 1402.66 109.541 L1392.38 109.541 Z" fill="#000000" fill-rule="evenodd" fill-opacity="1" /><path clip-path="url(#clip510)" d="M1476.59 138.748 L1476.59 142.393 L1442.32 142.393 Q1442.81 150.09 1446.94 154.141 Q1451.11 158.151 1458.53 158.151 Q1462.82 158.151 1466.83 157.098 Q1470.88 156.045 1474.85 153.938 L1474.85 160.987 Q1470.84 162.688 1466.63 163.58 Q1462.42 164.471 1458.08 164.471 Q1447.22 164.471 1440.86 158.151 Q1434.55 151.832 1434.55 141.057 Q1434.55 129.917 1440.54 123.395 Q1446.58 116.832 1456.78 116.832 Q1465.94 116.832 1471.25 122.746 Q1476.59 128.62 1476.59 138.748 M1469.14 136.56 Q1469.06 130.443 1465.7 126.797 Q1462.37 123.152 1456.87 123.152 Q1450.63 123.152 1446.86 126.676 Q1443.13 130.2 1442.57 136.601 L1469.14 136.56 Z" fill="#000000" fill-rule="evenodd" fill-opacity="1" /><path clip-path="url(#clip510)" d="M1511.8 100.264 L1511.8 106.462 L1504.67 106.462 Q1500.66 106.462 1499.08 108.082 Q1497.54 109.703 1497.54 113.915 L1497.54 117.926 L1509.81 117.926 L1509.81 123.719 L1497.54 123.719 L1497.54 163.296 L1490.04 163.296 L1490.04 123.719 L1482.91 123.719 L1482.91 117.926 L1490.04 117.926 L1490.04 114.766 Q1490.04 107.191 1493.57 103.748 Q1497.09 100.264 1504.75 100.264 L1511.8 100.264 Z" fill="#000000" fill-rule="evenodd" fill-opacity="1" /><path clip-path="url(#clip510)" d="M1544.32 124.893 Q1543.07 124.164 1541.57 123.84 Q1540.11 123.476 1538.33 123.476 Q1532.01 123.476 1528.61 127.608 Q1525.24 131.699 1525.24 139.396 L1525.24 163.296 L1517.75 163.296 L1517.75 117.926 L1525.24 117.926 L1525.24 124.974 Q1527.59 120.843 1531.36 118.858 Q1535.13 116.832 1540.52 116.832 Q1541.29 116.832 1542.22 116.954 Q1543.15 117.035 1544.28 117.237 L1544.32 124.893 Z" fill="#000000" fill-rule="evenodd" fill-opacity="1" /><path clip-path="url(#clip510)" d="M1589.13 138.748 L1589.13 142.393 L1554.86 142.393 Q1555.34 150.09 1559.48 154.141 Q1563.65 158.151 1571.06 158.151 Q1575.35 158.151 1579.37 157.098 Q1583.42 156.045 1587.39 153.938 L1587.39 160.987 Q1583.38 162.688 1579.16 163.58 Q1574.95 164.471 1570.62 164.471 Q1559.76 164.471 1553.4 158.151 Q1547.08 151.832 1547.08 141.057 Q1547.08 129.917 1553.07 123.395 Q1559.11 116.832 1569.32 116.832 Q1578.47 116.832 1583.78 122.746 Q1589.13 128.62 1589.13 138.748 M1581.67 136.56 Q1581.59 130.443 1578.23 126.797 Q1574.91 123.152 1569.4 123.152 Q1563.16 123.152 1559.39 126.676 Q1555.67 130.2 1555.1 136.601 L1581.67 136.56 Z" fill="#000000" fill-rule="evenodd" fill-opacity="1" /><path clip-path="url(#clip510)" d="M1630.28 119.263 L1630.28 126.311 Q1627.13 124.691 1623.72 123.881 Q1620.32 123.071 1616.67 123.071 Q1611.12 123.071 1608.33 124.772 Q1605.57 126.473 1605.57 129.876 Q1605.57 132.469 1607.56 133.967 Q1609.54 135.426 1615.54 136.763 L1618.09 137.33 Q1626.03 139.031 1629.35 142.15 Q1632.72 145.229 1632.72 150.779 Q1632.72 157.098 1627.69 160.784 Q1622.71 164.471 1613.96 164.471 Q1610.31 164.471 1606.34 163.742 Q1602.41 163.053 1598.04 161.635 L1598.04 153.938 Q1602.17 156.085 1606.18 157.179 Q1610.19 158.232 1614.12 158.232 Q1619.39 158.232 1622.22 156.45 Q1625.06 154.627 1625.06 151.346 Q1625.06 148.308 1622.99 146.687 Q1620.97 145.067 1614.04 143.568 L1611.45 142.96 Q1604.52 141.502 1601.44 138.504 Q1598.36 135.466 1598.36 130.2 Q1598.36 123.8 1602.9 120.316 Q1607.44 116.832 1615.78 116.832 Q1619.91 116.832 1623.56 117.44 Q1627.21 118.047 1630.28 119.263 Z" fill="#000000" fill-rule="evenodd" fill-opacity="1" /><path clip-path="url(#clip510)" d="M1682.3 135.912 L1682.3 163.296 L1674.84 163.296 L1674.84 136.155 Q1674.84 129.714 1672.33 126.514 Q1669.82 123.314 1664.8 123.314 Q1658.76 123.314 1655.28 127.162 Q1651.8 131.01 1651.8 137.654 L1651.8 163.296 L1644.3 163.296 L1644.3 100.264 L1651.8 100.264 L1651.8 124.974 Q1654.47 120.883 1658.07 118.858 Q1661.72 116.832 1666.46 116.832 Q1674.28 116.832 1678.29 121.693 Q1682.3 126.514 1682.3 135.912 Z" fill="#000000" fill-rule="evenodd" fill-opacity="1" /><path clip-path="url(#clip510)" d="M1726.17 134.94 Q1728.8 135.831 1731.27 138.748 Q1733.79 141.664 1736.3 146.768 L1744.6 163.296 L1735.81 163.296 L1728.07 147.781 Q1725.08 141.705 1722.24 139.72 Q1719.45 137.735 1714.58 137.735 L1705.67 137.735 L1705.67 163.296 L1697.49 163.296 L1697.49 102.816 L1715.96 102.816 Q1726.33 102.816 1731.44 107.15 Q1736.54 111.485 1736.54 120.235 Q1736.54 125.947 1733.87 129.714 Q1731.23 133.481 1726.17 134.94 M1705.67 109.541 L1705.67 131.01 L1715.96 131.01 Q1721.88 131.01 1724.87 128.296 Q1727.91 125.542 1727.91 120.235 Q1727.91 114.928 1724.87 112.255 Q1721.88 109.541 1715.96 109.541 L1705.67 109.541 Z" fill="#000000" fill-rule="evenodd" fill-opacity="1" /><path clip-path="url(#clip510)" d="M1773.61 140.489 Q1764.57 140.489 1761.09 142.555 Q1757.6 144.621 1757.6 149.604 Q1757.6 153.574 1760.2 155.923 Q1762.83 158.232 1767.33 158.232 Q1773.52 158.232 1777.25 153.857 Q1781.02 149.442 1781.02 142.15 L1781.02 140.489 L1773.61 140.489 M1788.47 137.411 L1788.47 163.296 L1781.02 163.296 L1781.02 156.409 Q1778.47 160.541 1774.66 162.526 Q1770.85 164.471 1765.34 164.471 Q1758.37 164.471 1754.24 160.582 Q1750.15 156.653 1750.15 150.09 Q1750.15 142.434 1755.26 138.545 Q1760.4 134.656 1770.57 134.656 L1781.02 134.656 L1781.02 133.927 Q1781.02 128.782 1777.62 125.987 Q1774.25 123.152 1768.14 123.152 Q1764.25 123.152 1760.56 124.083 Q1756.88 125.015 1753.47 126.878 L1753.47 119.992 Q1757.56 118.412 1761.41 117.642 Q1765.26 116.832 1768.91 116.832 Q1778.75 116.832 1783.61 121.936 Q1788.47 127.04 1788.47 137.411 Z" fill="#000000" fill-rule="evenodd" fill-opacity="1" /><path clip-path="url(#clip510)" d="M1811.2 105.044 L1811.2 117.926 L1826.55 117.926 L1826.55 123.719 L1811.2 123.719 L1811.2 148.348 Q1811.2 153.898 1812.7 155.478 Q1814.24 157.058 1818.9 157.058 L1826.55 157.058 L1826.55 163.296 L1818.9 163.296 Q1810.27 163.296 1806.99 160.096 Q1803.7 156.855 1803.7 148.348 L1803.7 123.719 L1798.24 123.719 L1798.24 117.926 L1803.7 117.926 L1803.7 105.044 L1811.2 105.044 Z" fill="#000000" fill-rule="evenodd" fill-opacity="1" /><path clip-path="url(#clip510)" d="M1875.16 138.748 L1875.16 142.393 L1840.89 142.393 Q1841.38 150.09 1845.51 154.141 Q1849.68 158.151 1857.1 158.151 Q1861.39 158.151 1865.4 157.098 Q1869.45 156.045 1873.42 153.938 L1873.42 160.987 Q1869.41 162.688 1865.2 163.58 Q1860.98 164.471 1856.65 164.471 Q1845.79 164.471 1839.43 158.151 Q1833.11 151.832 1833.11 141.057 Q1833.11 129.917 1839.11 123.395 Q1845.14 116.832 1855.35 116.832 Q1864.51 116.832 1869.81 122.746 Q1875.16 128.62 1875.16 138.748 M1867.71 136.56 Q1867.63 130.443 1864.27 126.797 Q1860.94 123.152 1855.43 123.152 Q1849.2 123.152 1845.43 126.676 Q1841.7 130.2 1841.13 136.601 L1867.71 136.56 Z" fill="#000000" fill-rule="evenodd" fill-opacity="1" /><path clip-path="url(#clip510)" d="M1888.37 125.623 L1940.3 125.623 L1940.3 132.428 L1888.37 132.428 L1888.37 125.623 M1888.37 142.15 L1940.3 142.15 L1940.3 149.037 L1888.37 149.037 L1888.37 142.15 Z" fill="#000000" fill-rule="evenodd" fill-opacity="1" /><path clip-path="url(#clip510)" d="M1959.38 156.409 L1972.75 156.409 L1972.75 110.27 L1958.21 113.186 L1958.21 105.733 L1972.67 102.816 L1980.85 102.816 L1980.85 156.409 L1994.22 156.409 L1994.22 163.296 L1959.38 163.296 L1959.38 156.409 Z" fill="#000000" fill-rule="evenodd" fill-opacity="1" /><path clip-path="url(#clip510)" d="M2033.23 109.946 L2012.57 142.231 L2033.23 142.231 L2033.23 109.946 M2031.08 102.816 L2041.37 102.816 L2041.37 142.231 L2050 142.231 L2050 149.037 L2041.37 149.037 L2041.37 163.296 L2033.23 163.296 L2033.23 149.037 L2005.93 149.037 L2005.93 141.138 L2031.08 102.816 Z" fill="#000000" fill-rule="evenodd" fill-opacity="1" /><path clip-path="url(#clip510)" d="M2086.01 109.946 L2065.35 142.231 L2086.01 142.231 L2086.01 109.946 M2083.86 102.816 L2094.15 102.816 L2094.15 142.231 L2102.78 142.231 L2102.78 149.037 L2094.15 149.037 L2094.15 163.296 L2086.01 163.296 L2086.01 149.037 L2058.71 149.037 L2058.71 141.138 L2083.86 102.816 Z" fill="#000000" fill-rule="evenodd" fill-opacity="1" /><path clip-path="url(#clip510)" d="M2115.58 102.816 L2123.77 102.816 L2123.77 127.608 L2153.5 127.608 L2153.5 102.816 L2161.68 102.816 L2161.68 163.296 L2153.5 163.296 L2153.5 134.494 L2123.77 134.494 L2123.77 163.296 L2115.58 163.296 L2115.58 102.816 Z" fill="#000000" fill-rule="evenodd" fill-opacity="1" /><path clip-path="url(#clip510)" d="M2174.4 117.926 L2209.81 117.926 L2209.81 124.731 L2181.78 157.341 L2209.81 157.341 L2209.81 163.296 L2173.39 163.296 L2173.39 156.49 L2201.42 123.881 L2174.4 123.881 L2174.4 117.926 Z" fill="#000000" fill-rule="evenodd" fill-opacity="1" /><path clip-path="url(#clip510)" d="M2220.02 100.345 L2226.5 100.345 Q2232.57 109.905 2235.57 119.06 Q2238.61 128.215 2238.61 137.249 Q2238.61 146.323 2235.57 155.518 Q2232.57 164.714 2226.5 174.233 L2220.02 174.233 Q2225.4 164.957 2228.04 155.802 Q2230.71 146.606 2230.71 137.249 Q2230.71 127.891 2228.04 118.777 Q2225.4 109.662 2220.02 100.345 Z" fill="#000000" fill-rule="evenodd" fill-opacity="1" /><polyline clip-path="url(#clip512)" style="stroke:#009af9; stroke-linecap:butt; stroke-linejoin:round; stroke-width:4; stroke-opacity:1; fill:none" points="
  295.369,1388.11 305.018,499.284 314.668,579.358 324.318,563.344 333.967,627.403 343.617,619.395 353.266,347.143 362.916,475.262 372.565,411.203 382.215,459.247 
  391.865,379.173 401.514,555.336 411.164,491.277 420.813,587.366 430.463,507.292 440.112,419.21 449.762,339.136 459.412,539.321 469.061,859.618 478.711,595.373 
  488.36,355.151 498.01,499.284 507.66,267.069 517.309,499.284 526.959,475.262 536.608,483.269 546.258,491.277 555.907,499.284 565.557,427.217 575.207,323.121 
  584.856,507.292 594.506,603.381 604.155,307.106 613.805,387.18 623.455,555.336 633.104,499.284 642.754,571.351 652.403,475.262 662.053,411.203 671.702,531.314 
  681.352,419.21 691.002,571.351 700.651,659.432 710.301,531.314 719.95,443.232 729.6,675.447 739.249,555.336 748.899,531.314 758.549,515.299 768.198,531.314 
  777.848,395.188 787.497,523.306 797.147,219.025 806.797,307.106 816.446,443.232 826.096,483.269 835.745,691.462 845.395,419.21 855.044,675.447 864.694,563.344 
  874.344,371.166 883.993,587.366 893.643,643.418 903.292,363.158 912.942,491.277 922.592,395.188 932.241,371.166 941.891,595.373 951.54,347.143 961.19,419.21 
  970.839,395.188 980.489,419.21 990.139,643.418 999.788,531.314 1009.44,467.255 1019.09,475.262 1028.74,555.336 1038.39,499.284 1048.04,387.18 1057.69,291.091 
  1067.34,579.358 1076.98,547.329 1086.63,395.188 1096.28,339.136 1105.93,451.24 1115.58,715.484 1125.23,659.432 1134.88,587.366 1144.53,419.21 1154.18,499.284 
  1163.83,555.336 1173.48,523.306 1183.13,483.269 1192.78,523.306 1202.43,427.217 1212.08,515.299 1221.73,539.321 1231.38,491.277 1241.03,723.492 1250.68,531.314 
  1260.33,435.225 1269.98,675.447 1279.63,435.225 1289.28,451.24 1298.93,659.432 1308.57,515.299 1318.22,403.195 1327.87,483.269 1337.52,355.151 1347.17,611.388 
  1356.82,491.277 1366.47,667.44 1376.12,603.381 1385.77,475.262 1395.42,411.203 1405.07,539.321 1414.72,443.232 1424.37,363.158 1434.02,555.336 1443.67,619.395 
  1453.32,627.403 1462.97,683.455 1472.62,339.136 1482.27,675.447 1491.92,467.255 1501.57,627.403 1511.22,307.106 1520.87,451.24 1530.52,483.269 1540.16,347.143 
  1549.81,499.284 1559.46,603.381 1569.11,635.41 1578.76,419.21 1588.41,331.128 1598.06,531.314 1607.71,475.262 1617.36,475.262 1627.01,427.217 1636.66,547.329 
  1646.31,627.403 1655.96,483.269 1665.61,459.247 1675.26,595.373 1684.91,531.314 1694.56,411.203 1704.21,771.536 1713.86,491.277 1723.51,555.336 1733.16,443.232 
  1742.81,555.336 1752.46,515.299 1762.11,467.255 1771.75,579.358 1781.4,539.321 1791.05,571.351 1800.7,331.128 1810.35,507.292 1820,483.269 1829.65,339.136 
  1839.3,491.277 1848.95,259.062 1858.6,275.077 1868.25,427.217 1877.9,627.403 1887.55,339.136 1897.2,523.306 1906.85,491.277 1916.5,427.217 1926.15,531.314 
  1935.8,435.225 1945.45,691.462 1955.1,467.255 1964.75,411.203 1974.4,387.18 1984.05,307.106 1993.7,611.388 2003.34,563.344 2012.99,411.203 2022.64,459.247 
  2032.29,459.247 2041.94,523.306 2051.59,811.573 2061.24,459.247 2070.89,571.351 2080.54,555.336 2090.19,475.262 2099.84,411.203 2109.49,539.321 2119.14,411.203 
  2128.79,419.21 2138.44,483.269 2148.09,515.299 2157.74,611.388 2167.39,395.188 2177.04,499.284 2186.69,643.418 2196.34,315.114 2205.99,451.24 2215.64,627.403 
  2225.28,443.232 2234.93,443.232 2244.58,443.232 2254.23,507.292 2263.88,443.232 2273.53,571.351 2283.18,371.166 2292.83,523.306 
  "/>
</svg>
