<?xml version="1.0" encoding="UTF-8" standalone="no"?>
<!-- Created with Inkscape (http://www.inkscape.org/) -->

<svg
   width="785.56567"
   height="997.59412"
   viewBox="0 0 207.84758 263.94678"
   version="1.1"
   id="svg8"
   inkscape:export-filename="C:\Users\Alex\Experica_Logo.png"
   inkscape:export-xdpi="96.000008"
   inkscape:export-ydpi="96.000008"
   inkscape:version="1.3.1 (9b9bdc1480, 2023-11-25, custom)"
   sodipodi:docname="logo.svg"
   xmlns:inkscape="http://www.inkscape.org/namespaces/inkscape"
   xmlns:sodipodi="http://sodipodi.sourceforge.net/DTD/sodipodi-0.dtd"
   xmlns="http://www.w3.org/2000/svg"
   xmlns:svg="http://www.w3.org/2000/svg"
   xmlns:rdf="http://www.w3.org/1999/02/22-rdf-syntax-ns#"
   xmlns:cc="http://creativecommons.org/ns#"
   xmlns:dc="http://purl.org/dc/elements/1.1/">
  <defs
     id="defs2" />
  <sodipodi:namedview
     id="base"
     pagecolor="#ffffff"
     bordercolor="#666666"
     borderopacity="1.0"
     inkscape:pageopacity="0.0"
     inkscape:pageshadow="2"
     inkscape:zoom="0.68252378"
     inkscape:cx="488.62766"
     inkscape:cy="617.5609"
     inkscape:document-units="mm"
     inkscape:current-layer="svg8"
     showgrid="false"
     inkscape:pagecheckerboard="false"
     units="px"
     fit-margin-top="0"
     fit-margin-left="0"
     fit-margin-right="0"
     fit-margin-bottom="0"
     inkscape:window-width="2560"
     inkscape:window-height="1371"
     inkscape:window-x="0"
     inkscape:window-y="0"
     inkscape:window-maximized="1"
     inkscape:showpageshadow="2"
     inkscape:deskcolor="#d1d1d1">
    <inkscape:page
       x="0"
       y="0"
       width="207.84758"
       height="263.94678"
       id="page1"
       margin="3.0000002"
       bleed="0" />
  </sodipodi:namedview>
  <metadata
     id="metadata5">
    <rdf:RDF>
      <cc:Work
         rdf:about="">
        <dc:format>image/svg+xml</dc:format>
        <dc:type
           rdf:resource="http://purl.org/dc/dcmitype/StillImage" />
      </cc:Work>
    </rdf:RDF>
  </metadata>
  <g
     inkscape:label="Layer 1"
     inkscape:groupmode="layer"
     id="layer1"
     transform="translate(-125.82299,109.04924)" />
  <g
     id="g1"
     style="fill:#262626;fill-opacity:1;stroke:none"
     transform="translate(-31.322986,0.44377252)">
    <rect
       y="113.02961"
       x="98.940887"
       height="37"
       width="72.611786"
       id="rect815-7"
       style="fill:#262626;fill-opacity:1;stroke:none;stroke-width:6.77122;stroke-miterlimit:4;stroke-dasharray:none;stroke-opacity:1"
       rx="3.4174895"
       ry="13.060598" />
    <rect
       y="2.5562277"
       x="34.322987"
       height="26.91301"
       width="201.84758"
       id="rect815"
       style="fill:#262626;fill-opacity:1;stroke:none;stroke-width:9.62843;stroke-miterlimit:4;stroke-dasharray:none;stroke-opacity:1"
       rx="9.5"
       ry="9.5" />
    <rect
       y="233.58998"
       x="34.322987"
       height="26.91301"
       width="201.84758"
       id="rect815-3"
       style="fill:#262626;fill-opacity:1;stroke:none;stroke-width:9.62843;stroke-miterlimit:4;stroke-dasharray:none;stroke-opacity:1"
       rx="9.5"
       ry="9.5" />
    <path
       id="rect815-6"
       style="fill:#262626;fill-opacity:1;stroke:none;stroke-width:7.1329;stroke-miterlimit:4;stroke-dasharray:none;stroke-opacity:1"
       d="m 48.768304,14.274099 c -1.011547,0.03087 -2.033646,0.224065 -3.011633,0.596165 l -5.881284,2.237696 c -1.955977,0.744197 -0.667042,2.866366 -1.348211,4.393415 -0.68117,1.527049 -3.332445,2.458975 -2.420358,4.054913 L 96.670902,131.52918 36.106391,237.50277 c -0.912086,1.59593 1.618766,2.70201 2.299937,4.22898 0.681171,1.52696 0.01767,3.50464 1.973643,4.24885 l 5.3767,2.2082 c 3.91195,1.48839 8.530068,0.11699 10.354239,-3.07489 l 63.37531,-110.89264 c 0.045,-0.0788 0.0626,-0.16121 0.10342,-0.24069 0.11283,-0.21906 0.2048,-0.44146 0.28692,-0.66948 0.065,-0.18029 0.12654,-0.3588 0.17123,-0.54049 0.0522,-0.21221 0.0827,-0.4254 0.10807,-0.64182 0.0235,-0.20082 0.0441,-0.39932 0.0441,-0.59927 2e-5,-0.20006 -0.0205,-0.39867 -0.0441,-0.59963 -0.0254,-0.21632 -0.0559,-0.42933 -0.10808,-0.64146 -0.0448,-0.18214 -0.10642,-0.36113 -0.17164,-0.54187 -0.0817,-0.22657 -0.17323,-0.44759 -0.28523,-0.66532 -0.0413,-0.0804 -0.0586,-0.16399 -0.10426,-0.2438 L 56.110908,17.94515 C 54.74278,15.551245 51.802945,14.181506 48.768304,14.274099 Z"
       sodipodi:nodetypes="sccscccsccccccscsssccccs" />
    <path
       id="rect815-6-9"
       style="fill:#262626;fill-opacity:1;stroke:none;stroke-width:7.1329;stroke-miterlimit:4;stroke-dasharray:none;stroke-opacity:1"
       d="m 221.72523,14.274098 c 1.01155,0.03087 2.03365,0.224065 3.01164,0.596165 l 5.88128,2.237696 c 1.95598,0.744197 0.66704,2.866366 1.34821,4.393415 0.68117,1.527049 3.33245,2.458975 2.42036,4.054913 l -60.56408,105.972893 60.56451,105.97359 c 0.91208,1.59593 -1.61877,2.70201 -2.29994,4.22898 -0.68117,1.52696 -0.0177,3.50464 -1.97364,4.24885 l -5.3767,2.2082 c -3.91195,1.48839 -8.53007,0.11699 -10.35424,-3.07489 L 151.00734,134.22127 c -0.045,-0.0788 -0.0626,-0.16121 -0.10342,-0.24069 -0.11283,-0.21906 -0.2048,-0.44146 -0.28692,-0.66948 -0.065,-0.18029 -0.12654,-0.3588 -0.17123,-0.54049 -0.0522,-0.21221 -0.0827,-0.4254 -0.10807,-0.64182 -0.0235,-0.20082 -0.0441,-0.39932 -0.0441,-0.59927 -2e-5,-0.20006 0.0205,-0.39867 0.0441,-0.59963 0.0254,-0.21632 0.0559,-0.42933 0.10808,-0.64146 0.0448,-0.18214 0.10642,-0.36113 0.17164,-0.54187 0.0817,-0.22657 0.17323,-0.44759 0.28523,-0.66532 0.0413,-0.0804 0.0586,-0.16399 0.10426,-0.2438 L 214.38263,17.945149 c 1.36813,-2.393905 4.30796,-3.763644 7.3426,-3.671051 z"
       sodipodi:nodetypes="sccscccsccccccscsssccccs" />
  </g>
</svg>
