<?xml version="1.0" encoding="UTF-8" standalone="no"?>
<!-- Created with Inkscape (http://www.inkscape.org/) -->

<svg
   width="89.275383mm"
   height="48.903858mm"
   viewBox="0 0 89.275381 48.903859"
   version="1.1"
   id="svg1"
   xml:space="preserve"
   inkscape:version="1.3.1 (9b9bdc1480, 2023-11-25, custom)"
   sodipodi:docname="logo-Salk.svg"
   xmlns:inkscape="http://www.inkscape.org/namespaces/inkscape"
   xmlns:sodipodi="http://sodipodi.sourceforge.net/DTD/sodipodi-0.dtd"
   xmlns="http://www.w3.org/2000/svg"
   xmlns:svg="http://www.w3.org/2000/svg"><sodipodi:namedview
     id="namedview1"
     pagecolor="#ffffff"
     bordercolor="#666666"
     borderopacity="1.0"
     inkscape:showpageshadow="2"
     inkscape:pageopacity="0.0"
     inkscape:pagecheckerboard="0"
     inkscape:deskcolor="#d1d1d1"
     inkscape:document-units="mm"
     inkscape:zoom="1.0431888"
     inkscape:cx="-25.882179"
     inkscape:cy="6.2308949"
     inkscape:window-width="2560"
     inkscape:window-height="1371"
     inkscape:window-x="0"
     inkscape:window-y="0"
     inkscape:window-maximized="1"
     inkscape:current-layer="layer1"><inkscape:page
       x="0"
       y="0"
       width="89.275383"
       height="48.903858"
       id="page2"
       margin="3.0000002"
       bleed="0" /></sodipodi:namedview><defs
     id="defs1" /><g
     inkscape:label="Layer 1"
     inkscape:groupmode="layer"
     id="layer1"
     transform="translate(-117.65605,-144.11185)"><path
       style="fill:#000000"
       d="m 133.63084,188.87698 c 8.53186,-2.53369 7.45154,-11.91711 -2.14631,-18.6425 -4.22635,-2.96149 -5.43511,-5.28169 -3.67076,-7.04603 1.65291,-1.65291 4.23412,-1.03041 5.39209,1.3004 l 0.83118,1.67301 h 2.60841 c 1.43462,0 2.6084,-0.12994 2.6084,-0.28875 0,-8.54334 -13.59608,-11.74357 -17.30879,-4.07412 -2.23487,4.61663 -0.0497,9.31446 6.32448,13.5968 4.55858,3.06257 6.09216,5.94846 4.22004,7.94125 -1.80326,1.91948 -5.36481,0.58538 -6.24057,-2.33762 -0.48954,-1.63396 -0.5382,-1.64526 -3.39849,-0.7891 -2.47008,0.73936 -2.62944,1.09213 -1.58743,3.51433 1.97685,4.59532 7.0819,6.72206 12.36775,5.15233 z m 16.60296,0.0253 c 0.84902,-0.29858 2.13557,-0.93358 2.85902,-1.41111 1.63499,-1.07921 1.57961,-1.08487 1.85964,0.19011 l 0.23245,1.05834 2.88239,2.1e-4 2.88238,2.1e-4 -0.0775,-11.90646 c -0.0462,-7.08957 -0.2368,-12.66472 -0.47123,-13.78074 -1.673,-7.96431 -16.92128,-7.74912 -18.63958,0.26304 -0.63752,2.97264 -0.75186,2.84596 2.56852,2.84596 h 2.95935 l 0.22877,-1.21944 c 0.47192,-2.51553 3.71453,-3.55118 5.71936,-1.8267 1.13087,0.97273 1.77627,5.51558 0.7836,5.51558 -1.51983,0 -7.9848,3.73724 -10.00121,5.78145 -7.07923,7.17682 -2.61186,17.59353 6.21407,14.48955 z m -2.63499,-5.39391 c -2.06275,-2.27931 -0.0396,-6.29776 4.67656,-9.28865 2.19934,-1.39478 2.14793,-1.47114 2.14793,3.18996 v 4.19228 l -1.41213,1.27577 c -1.67461,1.51291 -4.33354,1.82272 -5.41236,0.63064 z m 22.69949,-15.58264 v -20.81388 h -3.175 -3.175 v 20.81388 20.81389 h 3.175 3.175 z m 9.525,15.5277 v -5.28618 l 1.4993,-2.27179 c 1.97419,-2.99134 1.79022,-3.2033 4.65025,5.35785 l 2.4935,7.46399 3.21477,0.0112 3.21476,0.0112 -1.91436,-5.37986 c -2.30829,-6.48688 -4.61802,-13.07054 -5.13962,-14.65001 l -0.38184,-1.15625 3.14898,-4.62826 c 1.73193,-2.54554 3.20395,-4.76982 3.27113,-4.94285 0.0679,-0.17488 -1.34213,-0.26935 -3.175,-0.21271 l -3.29715,0.10188 -3.52778,5.37543 c -1.94028,2.95649 -3.64684,5.37743 -3.79236,5.37986 -0.14552,0.002 -0.26458,-4.83744 -0.26458,-10.75529 v -10.75971 h -3.175 -3.175 v 20.81388 20.81389 h 3.175 3.175 z"
       id="path2-5"
       sodipodi:nodetypes="sssscssssssssssssccccssscssssssssscsscccccccccccsscccsscssscscscccccccc" /><g
       id="g2"
       transform="translate(-0.42425985,0.50725876)"><path
         id="path2"
         style="fill:none;stroke:#000000;stroke-width:0.9;stroke-linecap:round;stroke-linejoin:round"
         d="m 203.90569,185.96469 a 3.0937541,3.0937541 0 0 1 -3.09375,3.09376 3.0937541,3.0937541 0 0 1 -3.09376,-3.09376 3.0937541,3.0937541 0 0 1 3.09376,-3.09375 3.0937541,3.0937541 0 0 1 3.09375,3.09375 z" /><path
         d="m 200.84526,185.84924 q 0.2189,0 0.37783,-0.054 0.15893,-0.057 0.26088,-0.15293 0.10195,-0.099 0.14993,-0.23089 0.048,-0.13194 0.048,-0.28787 0,-0.30886 -0.20691,-0.47978 -0.2039,-0.17092 -0.62371,-0.17092 h -0.46778 v 1.37636 z m 2.10803,2.29094 h -0.81263 q -0.22789,0 -0.32984,-0.17392 l -0.82762,-1.33438 q -0.051,-0.078 -0.11395,-0.11395 -0.06,-0.036 -0.17991,-0.036 h -0.30586 v 1.65823 h -0.89958 v -4.35098 h 1.36736 q 0.45579,0 0.77964,0.096 0.32385,0.093 0.53075,0.26088 0.20691,0.16793 0.30286,0.40182 0.096,0.23089 0.096,0.50976 0,0.2159 -0.063,0.41081 -0.06,0.19191 -0.17692,0.35084 -0.11695,0.15892 -0.28787,0.28187 -0.17092,0.12294 -0.38982,0.19791 0.087,0.048 0.16193,0.11694 0.075,0.066 0.13494,0.15893 z"
         id="text2"
         style="font-weight:800;font-size:5.99722px;line-height:1.25;font-family:Lato;-inkscape-font-specification:'Lato, Ultra-Bold';stroke-width:0.264583"
         aria-label="R" /></g></g></svg>
