<?xml version="1.0" encoding="UTF-8" standalone="no"?>
<!-- Created with Inkscape (http://www.inkscape.org/) -->

<svg
   xmlns:dc="http://purl.org/dc/elements/1.1/"
   xmlns:cc="http://creativecommons.org/ns#"
   xmlns:rdf="http://www.w3.org/1999/02/22-rdf-syntax-ns#"
   xmlns:svg="http://www.w3.org/2000/svg"
   xmlns="http://www.w3.org/2000/svg"
   xmlns:sodipodi="http://sodipodi.sourceforge.net/DTD/sodipodi-0.dtd"
   xmlns:inkscape="http://www.inkscape.org/namespaces/inkscape"
   width="1024"
   height="1024"
   viewBox="0 0 270.93333 270.93334"
   version="1.1"
   id="svg8"
   inkscape:export-filename="C:\Users\Alex\Experica_Logo.png"
   inkscape:export-xdpi="96.000008"
   inkscape:export-ydpi="96.000008"
   inkscape:version="0.92.3 (2405546, 2018-03-11)"
   sodipodi:docname="Experica_Logo.svg">
  <defs
     id="defs2" />
  <sodipodi:namedview
     id="base"
     pagecolor="#ffffff"
     bordercolor="#666666"
     borderopacity="1.0"
     inkscape:pageopacity="0.0"
     inkscape:pageshadow="2"
     inkscape:zoom="0.68252378"
     inkscape:cx="304.32764"
     inkscape:cy="491.57958"
     inkscape:document-units="mm"
     inkscape:current-layer="svg8"
     showgrid="false"
     inkscape:pagecheckerboard="false"
     units="px"
     fit-margin-top="0"
     fit-margin-left="0"
     fit-margin-right="0"
     fit-margin-bottom="0"
     inkscape:window-width="2736"
     inkscape:window-height="1699"
     inkscape:window-x="-13"
     inkscape:window-y="-13"
     inkscape:window-maximized="1" />
  <metadata
     id="metadata5">
    <rdf:RDF>
      <cc:Work
         rdf:about="">
        <dc:format>image/svg+xml</dc:format>
        <dc:type
           rdf:resource="http://purl.org/dc/dcmitype/StillImage" />
        <dc:title></dc:title>
      </cc:Work>
    </rdf:RDF>
  </metadata>
  <g
     inkscape:label="Layer 1"
     inkscape:groupmode="layer"
     id="layer1"
     transform="translate(-94.5,108.60547)" />
  <g
     id="g2742"
     transform="matrix(4.320393,0,0,4.320393,34.542877,-24.257511)">
    <path
       id="rect815-8-4-1"
       style="opacity:1;fill:#969696;fill-opacity:1;stroke:none;stroke-width:1.79475963;stroke-miterlimit:4;stroke-dasharray:none;stroke-opacity:1"
       d="m 28.912346,38.656839 12.769547,26.44708 c 0.75459,1.562685 2.348356,2.146949 3.573569,1.309976 1.225214,-0.837017 1.604156,-2.768967 0.849565,-4.331675 L 33.335481,35.63514 c -0.754613,-1.562708 -2.348356,-2.146971 -3.57357,-1.309976 -1.225191,0.837017 -1.604133,2.768922 -0.849565,4.331675 z M 41.77729,8.8229791 28.911857,35.204206 c -0.76013,1.55886 -0.38853,3.493212 0.833324,4.337148 1.221854,0.843936 2.817489,0.268416 3.577663,-1.290443 L 46.1883,11.869706 C 46.948474,10.310847 46.576852,8.3765165 45.354998,7.532558 44.133166,6.6886218 42.537487,7.2641198 41.77729,8.8229791 Z"
       inkscape:connector-curvature="0" />
    <rect
       ry="2.2247488"
       rx="2.2247488"
       y="6.2063193"
       x="0"
       height="6.2292967"
       width="46.719727"
       id="rect815"
       style="opacity:1;fill:#323232;fill-opacity:1;stroke:none;stroke-width:2.22859836;stroke-miterlimit:4;stroke-dasharray:none;stroke-opacity:1" />
    <rect
       ry="2.2247488"
       rx="2.2247488"
       y="61.504036"
       x="0"
       height="6.2292967"
       width="46.719727"
       id="rect815-1"
       style="opacity:1;fill:#323232;fill-opacity:1;stroke:none;stroke-width:2.22859859;stroke-miterlimit:4;stroke-dasharray:none;stroke-opacity:1" />
    <circle
       r="9.8101826"
       cy="36.969814"
       cx="23.359863"
       id="path877"
       style="opacity:1;fill:#646464;fill-opacity:1;stroke:none;stroke-width:2.40717816;stroke-miterlimit:4;stroke-dasharray:none;stroke-opacity:1" />
    <path
       id="rect815-8-4"
       style="opacity:1;fill:#323232;fill-opacity:1;stroke:none;stroke-width:1.79475963;stroke-miterlimit:4;stroke-dasharray:none;stroke-opacity:1"
       d="M 17.807357,38.656839 5.037828,65.103919 C 4.2832333,66.666604 2.6894633,67.250868 1.4642496,66.413895 0.23904259,65.576878 -0.13988998,63.644928 0.61468475,62.08222 L 13.384222,35.63514 c 0.754613,-1.562708 2.348356,-2.146971 3.57357,-1.309976 1.225191,0.837017 1.604133,2.768922 0.849565,4.331675 z M 4.9424241,8.8229791 17.807846,35.204206 c 0.76013,1.55886 0.38853,3.493212 -0.833324,4.337148 -1.221854,0.843936 -2.817489,0.268416 -3.577663,-1.290443 L 0.5314124,11.869706 C -0.22874423,10.310847 0.14286225,8.3765165 1.3647188,7.532558 2.5865597,6.6886218 4.1822252,7.2641198 4.9424241,8.8229791 Z"
       inkscape:connector-curvature="0" />
  </g>
</svg>
