<?xml version="1.0" encoding="UTF-8" standalone="no"?>
<!-- Created with Inkscape (http://www.inkscape.org/) -->

<svg
   width="1024"
   height="1024"
   viewBox="0 0 270.93333 270.93338"
   version="1.1"
   id="svg8"
   inkscape:export-filename="C:\Users\Alex\Experica_Logo.png"
   inkscape:export-xdpi="96.000008"
   inkscape:export-ydpi="96.000008"
   inkscape:version="1.3.2 (1:1.3.2+202404261509+091e20ef0f)"
   sodipodi:docname="logo.svg"
   xmlns:inkscape="http://www.inkscape.org/namespaces/inkscape"
   xmlns:sodipodi="http://sodipodi.sourceforge.net/DTD/sodipodi-0.dtd"
   xmlns="http://www.w3.org/2000/svg"
   xmlns:svg="http://www.w3.org/2000/svg"
   xmlns:rdf="http://www.w3.org/1999/02/22-rdf-syntax-ns#"
   xmlns:cc="http://creativecommons.org/ns#"
   xmlns:dc="http://purl.org/dc/elements/1.1/">
  <defs
     id="defs2" />
  <sodipodi:namedview
     id="base"
     pagecolor="#ffffff"
     bordercolor="#666666"
     borderopacity="1.0"
     inkscape:pageopacity="0.0"
     inkscape:pageshadow="2"
     inkscape:zoom="0.68252378"
     inkscape:cx="518.66325"
     inkscape:cy="509.13977"
     inkscape:document-units="mm"
     inkscape:current-layer="svg8"
     showgrid="false"
     inkscape:pagecheckerboard="false"
     units="px"
     fit-margin-top="0"
     fit-margin-left="0"
     fit-margin-right="0"
     fit-margin-bottom="0"
     inkscape:window-width="2560"
     inkscape:window-height="1371"
     inkscape:window-x="0"
     inkscape:window-y="0"
     inkscape:window-maximized="1"
     inkscape:showpageshadow="2"
     inkscape:deskcolor="#d1d1d1">
    <inkscape:page
       x="0"
       y="0"
       width="270.93332"
       height="270.93338"
       id="page1"
       margin="0"
       bleed="0"
       inkscape:export-filename="logo.png"
       inkscape:export-xdpi="96.000008"
       inkscape:export-ydpi="96.000008" />
  </sodipodi:namedview>
  <metadata
     id="metadata5">
    <rdf:RDF>
      <cc:Work
         rdf:about="">
        <dc:format>image/svg+xml</dc:format>
        <dc:type
           rdf:resource="http://purl.org/dc/dcmitype/StillImage" />
      </cc:Work>
    </rdf:RDF>
  </metadata>
  <g
     inkscape:label="Layer 1"
     inkscape:groupmode="layer"
     id="layer1"
     transform="translate(-125.82299,109.04924)" />
  <g
     id="g1"
     style="fill:#262626;fill-opacity:1;stroke:none"
     transform="translate(0.21988463,3.1873017)">
    <rect
       y="113.27937"
       x="98.940887"
       height="38"
       width="72.611786"
       id="rect815-7"
       style="fill:#262626;fill-opacity:1;stroke:none;stroke-width:6.86211;stroke-miterlimit:4;stroke-dasharray:none;stroke-opacity:1"
       rx="3.4174895"
       ry="13.413588" />
    <rect
       y="2.5562277"
       x="34.322987"
       height="30"
       width="201.84758"
       id="rect815"
       style="fill:#262626;fill-opacity:1;stroke:none;stroke-width:10.1656;stroke-miterlimit:4;stroke-dasharray:none;stroke-opacity:1"
       rx="9.5"
       ry="10.589674" />
    <rect
       y="232.0025"
       x="34.322987"
       height="30"
       width="201.84758"
       id="rect815-3"
       style="fill:#262626;fill-opacity:1;stroke:none;stroke-width:10.1656;stroke-miterlimit:4;stroke-dasharray:none;stroke-opacity:1"
       rx="9.5"
       ry="10.589674" />
    <path
       id="rect815-6"
       style="fill:#262626;fill-opacity:1;stroke:none;stroke-width:7.1329;stroke-miterlimit:4;stroke-dasharray:none;stroke-opacity:1"
       d="m 47.880803,15.023855 c -1.011547,0.03087 -2.033646,0.224065 -3.011633,0.596165 l -5.881284,2.237696 c -1.955977,0.744197 -0.667042,2.866366 -1.348211,4.393415 -0.68117,1.527049 -3.332445,2.458975 -2.420358,4.054913 L 95.783401,132.27894 35.21889,238.25253 c -0.912086,1.59593 1.618766,2.70201 2.299937,4.22898 0.681171,1.52696 0.01767,3.50464 1.973643,4.24885 l 5.3767,2.2082 c 3.91195,1.48839 8.530068,0.11699 10.354239,-3.07489 L 118.59872,134.97103 c 0.045,-0.0788 0.0626,-0.16121 0.10342,-0.24069 0.11283,-0.21906 0.2048,-0.44146 0.28692,-0.66948 0.065,-0.18029 0.12654,-0.3588 0.17123,-0.54049 0.0522,-0.21221 0.0827,-0.4254 0.10807,-0.64182 0.0235,-0.20082 0.0441,-0.39932 0.0441,-0.59927 2e-5,-0.20006 -0.0205,-0.39867 -0.0441,-0.59963 -0.0254,-0.21632 -0.0559,-0.42933 -0.10808,-0.64146 -0.0448,-0.18214 -0.10642,-0.36113 -0.17164,-0.54187 -0.0817,-0.22657 -0.17323,-0.44759 -0.28523,-0.66532 -0.0413,-0.0804 -0.0586,-0.16399 -0.10426,-0.2438 L 55.223407,18.694906 c -1.368128,-2.393905 -4.307963,-3.763644 -7.342604,-3.671051 z"
       sodipodi:nodetypes="sccscccsccccccscsssccccs" />
    <path
       id="rect815-6-9"
       style="fill:#262626;fill-opacity:1;stroke:none;stroke-width:7.1329;stroke-miterlimit:4;stroke-dasharray:none;stroke-opacity:1"
       d="m 222.61262,15.023854 c 1.01155,0.03087 2.03365,0.224065 3.01164,0.596165 l 5.88128,2.237696 c 1.95598,0.744197 0.66704,2.866366 1.34821,4.393415 0.68117,1.527049 3.33245,2.458975 2.42036,4.054913 l -60.56408,105.972897 60.56451,105.97359 c 0.91208,1.59593 -1.61877,2.70201 -2.29994,4.22898 -0.68117,1.52696 -0.0177,3.50464 -1.97364,4.24885 l -5.3767,2.2082 c -3.91195,1.48839 -8.53007,0.11699 -10.35424,-3.07489 L 151.89473,134.97103 c -0.045,-0.0788 -0.0626,-0.16121 -0.10342,-0.24069 -0.11283,-0.21906 -0.2048,-0.44146 -0.28692,-0.66948 -0.065,-0.18029 -0.12654,-0.3588 -0.17123,-0.54049 -0.0522,-0.21221 -0.0827,-0.4254 -0.10807,-0.64182 -0.0235,-0.20082 -0.0441,-0.39932 -0.0441,-0.59927 -2e-5,-0.20006 0.0205,-0.39867 0.0441,-0.59963 0.0254,-0.21632 0.0559,-0.42933 0.10808,-0.64146 0.0448,-0.18214 0.10642,-0.36113 0.17164,-0.54187 0.0817,-0.22657 0.17323,-0.44759 0.28523,-0.66532 0.0413,-0.0804 0.0586,-0.16399 0.10426,-0.2438 L 215.27002,18.694905 c 1.36813,-2.393905 4.30796,-3.763644 7.3426,-3.671051 z"
       sodipodi:nodetypes="sccscccsccccccscsssccccs" />
  </g>
</svg>
