<?xml version="1.0" encoding="UTF-8" standalone="no"?>
<svg
   width="116.17578"
   height="116.23437"
   viewBox="0 0 116.17578 116.23436"
   version="1.1"
   id="svg74"
   sodipodi:docname="logo-CAS.svg"
   inkscape:version="1.3.1 (9b9bdc1480, 2023-11-25, custom)"
   xmlns:inkscape="http://www.inkscape.org/namespaces/inkscape"
   xmlns:sodipodi="http://sodipodi.sourceforge.net/DTD/sodipodi-0.dtd"
   xmlns="http://www.w3.org/2000/svg"
   xmlns:svg="http://www.w3.org/2000/svg">
  <defs
     id="defs74" />
  <sodipodi:namedview
     id="namedview74"
     pagecolor="#ffffff"
     bordercolor="#666666"
     borderopacity="1.0"
     inkscape:showpageshadow="2"
     inkscape:pageopacity="0.0"
     inkscape:pagecheckerboard="0"
     inkscape:deskcolor="#d1d1d1"
     inkscape:zoom="3.0578662"
     inkscape:cx="94.346836"
     inkscape:cy="59.355115"
     inkscape:window-width="2560"
     inkscape:window-height="1371"
     inkscape:window-x="0"
     inkscape:window-y="0"
     inkscape:window-maximized="1"
     inkscape:current-layer="svg74">
    <inkscape:page
       x="0"
       y="0"
       width="116.17578"
       height="116.23436"
       id="page74"
       margin="5.9999995"
       bleed="0" />
  </sodipodi:namedview>
  <g
     id="surface1"
     transform="translate(5.9999996,1.2695309)">
    <path
       style="fill:#ffffff;fill-opacity:1;fill-rule:nonzero;stroke:none"
       d="m 104.15625,56.847656 c 0,28.773438 -23.308594,52.101564 -52.070312,52.101564 -28.757813,0 -52.070313,-23.328126 -52.070313,-52.101564 0,-28.773437 23.3125,-52.097656 52.070313,-52.097656 28.761718,0 52.070312,23.324219 52.070312,52.097656"
       id="path15" />
    <path
       style="fill:#264f97;fill-opacity:1;fill-rule:nonzero;stroke:none"
       d="m 37.832031,97.925781 c -0.01172,0.04297 0.04297,0.08594 0.175781,0.128907 l 0.777344,0.253906 c 0.09766,0.03516 0.152344,0.03906 0.160156,0.01953 0.0078,-0.02734 0.01563,-0.1875 0.02344,-0.476563 l 0.01563,-1.523437 -1.003906,1.378906 c -0.08594,0.113281 -0.136719,0.1875 -0.148438,0.21875"
       id="path16" />
    <path
       style="fill:#264f97;fill-opacity:1;fill-rule:nonzero;stroke:none"
       d="m 65.648438,97.988281 c -0.08984,-0.3125 -0.195313,-0.609375 -0.316407,-0.890625 -0.121093,-0.285156 -0.253906,-0.527344 -0.410156,-0.730468 -0.15625,-0.203126 -0.332031,-0.351563 -0.527344,-0.441407 -0.199219,-0.09375 -0.425781,-0.101562 -0.679687,-0.02734 -0.234375,0.07031 -0.402344,0.191406 -0.503906,0.363281 -0.101563,0.171875 -0.15625,0.378906 -0.164063,0.621093 -0.01172,0.242188 0.01563,0.511719 0.07813,0.800782 0.05859,0.292968 0.136719,0.597656 0.230469,0.914062 0.101562,0.34375 0.214843,0.65625 0.335937,0.945313 0.125,0.289062 0.261719,0.531248 0.414063,0.726558 0.152343,0.19141 0.320312,0.33203 0.507812,0.41016 0.183594,0.082 0.394531,0.0898 0.628907,0.0195 0.222656,-0.0664 0.390624,-0.18359 0.496093,-0.34766 0.109375,-0.16797 0.171875,-0.367182 0.191407,-0.609369 0.01953,-0.238282 0.0039,-0.507813 -0.05078,-0.808594 -0.05469,-0.296875 -0.132812,-0.613282 -0.230468,-0.945313"
       id="path17" />
    <path
       style="fill:#264f97;fill-opacity:1;fill-rule:nonzero;stroke:none"
       d="m 43.53125,96.746094 c -0.08594,-0.01953 -0.15625,-0.03125 -0.214844,-0.03516 -0.05859,-0.0039 -0.109375,0.0078 -0.148437,0.03125 -0.03906,0.02344 -0.07031,0.0625 -0.09375,0.121093 -0.02344,0.05859 -0.04687,0.136719 -0.06641,0.238281 l -0.785156,3.652352 c -0.02734,0.13281 -0.04297,0.23828 -0.03906,0.3125 0,0.0742 0.01953,0.13672 0.05469,0.1875 0.03516,0.0469 0.08594,0.082 0.152344,0.10547 0.06641,0.0234 0.144531,0.043 0.246094,0.0664 0.421875,0.0898 0.777343,-0.0273 1.070312,-0.35547 0.289063,-0.33203 0.519531,-0.89453 0.695313,-1.69922 0.167968,-0.789063 0.191406,-1.398438 0.0625,-1.828125 -0.125,-0.425781 -0.4375,-0.691407 -0.933594,-0.796875"
       id="path18" />
    <path
       style="fill:#264f97;fill-opacity:1;fill-rule:nonzero;stroke:none"
       d="m 30.660156,94.621094 c -0.02344,0.03906 0.02734,0.09375 0.148438,0.160156 l 0.714844,0.390625 c 0.09375,0.05078 0.148437,0.06641 0.15625,0.04687 0.01562,-0.02344 0.05078,-0.179688 0.113281,-0.460938 l 0.292969,-1.496093 -1.238282,1.171875 c -0.109375,0.09375 -0.171875,0.160156 -0.1875,0.1875"
       id="path19" />
    <path
       style="fill:#264f97;fill-opacity:1;fill-rule:nonzero;stroke:none"
       d="m 94.199219,75.4375 c -0.105469,0.121094 -0.242188,0.210938 -0.40625,0.265625 0.03906,0.113281 0.06641,0.226563 0.08594,0.335937 0.02344,0.113282 0.03125,0.226563 0.02734,0.332032 -0.203125,-0.02734 -0.402344,-0.07031 -0.59375,-0.128906 -0.195312,-0.05469 -0.390625,-0.125 -0.589844,-0.210938 -0.132812,-0.05469 -0.265625,-0.113281 -0.394531,-0.175781 -0.128906,-0.0625 -0.253906,-0.128907 -0.382813,-0.203125 l 0.167969,-0.398438 c 0.171875,0.07422 0.351563,0.128906 0.542969,0.167969 0.191406,0.04297 0.378906,0.05469 0.558594,0.03906 0.183594,-0.01563 0.347656,-0.0625 0.492187,-0.148438 0.148438,-0.08594 0.257813,-0.214844 0.332031,-0.390625 0.06641,-0.160156 0.101563,-0.304687 0.101563,-0.429687 0.0039,-0.128907 -0.02344,-0.242188 -0.07031,-0.339844 -0.05078,-0.101563 -0.121093,-0.1875 -0.210937,-0.261719 -0.08594,-0.07422 -0.1875,-0.132813 -0.304687,-0.183594 C 93.371094,73.632812 93.207031,73.605469 93.050781,73.625 92.898438,73.648438 92.75,73.726562 92.605469,73.863281 92.390625,74.0625 92.1875,74.25 91.992188,74.410156 c -0.195313,0.164063 -0.398438,0.292969 -0.609376,0.382813 -0.214843,0.08984 -0.441406,0.132812 -0.679687,0.136719 -0.238281,-0.0039 -0.507813,-0.06641 -0.804687,-0.191407 -0.226563,-0.09375 -0.414063,-0.210937 -0.5625,-0.355469 -0.152344,-0.144531 -0.265626,-0.296874 -0.34375,-0.464843 C 88.914062,73.75 88.875,73.578125 88.875,73.394531 c 0,-0.179687 0.03516,-0.355469 0.105469,-0.527343 0.06641,-0.152344 0.160156,-0.28125 0.289062,-0.390626 0.128907,-0.109374 0.296875,-0.175781 0.503907,-0.199218 -0.08594,-0.08594 -0.144532,-0.1875 -0.175782,-0.304688 -0.03125,-0.113281 -0.04297,-0.21875 -0.03906,-0.320312 0.277344,0.04687 0.574218,0.128906 0.894531,0.246094 0.324219,0.117187 0.625,0.238281 0.90625,0.355468 l -0.179687,0.421875 c -0.222657,-0.05469 -0.429688,-0.09375 -0.621094,-0.117187 -0.191406,-0.02344 -0.367188,-0.02734 -0.523438,-0.0078 -0.152344,0.01953 -0.285156,0.0625 -0.390625,0.125 -0.105469,0.0625 -0.183593,0.152344 -0.234375,0.265625 -0.09766,0.238282 -0.113281,0.445313 -0.04687,0.628906 0.07031,0.183594 0.199219,0.316407 0.398438,0.398438 0.140625,0.05859 0.265625,0.08594 0.375,0.07813 0.109375,-0.0078 0.214843,-0.03906 0.320312,-0.09766 0.105469,-0.05469 0.21875,-0.132813 0.328125,-0.230469 0.113282,-0.09766 0.242188,-0.210938 0.386719,-0.332031 0.160156,-0.136719 0.320313,-0.261719 0.46875,-0.371094 0.152344,-0.109375 0.308594,-0.191406 0.480469,-0.242187 0.167968,-0.05078 0.355468,-0.06641 0.554687,-0.05078 0.203125,0.01953 0.4375,0.08594 0.710938,0.199219 0.261719,0.113281 0.480469,0.242187 0.65625,0.394531 0.171875,0.15625 0.308593,0.324219 0.398437,0.507813 0.08984,0.1875 0.136719,0.382812 0.140625,0.585937 0,0.207032 -0.03906,0.414063 -0.128906,0.621094 -0.0625,0.152344 -0.148437,0.289062 -0.253906,0.40625 m -2.515625,4.941406 -0.316406,-0.167968 c 0.1875,-0.351563 0.136718,-0.605469 -0.152344,-0.761719 L 87.886726,77.68361 c -0.378907,-0.199219 -0.664063,-0.109375 -0.867188,0.269531 l -0.328125,-0.171875 1.785156,-3.371094 1.496094,0.734375 -0.152344,0.378907 c -0.292968,-0.113282 -0.53125,-0.171876 -0.714843,-0.1875 -0.183594,-0.0078 -0.332031,0.01172 -0.449219,0.07031 -0.117188,0.05859 -0.214844,0.144531 -0.292969,0.261719 -0.07813,0.113281 -0.152343,0.246093 -0.230469,0.394531 -0.07031,0.128906 -0.101562,0.242188 -0.08984,0.335938 0.0078,0.09375 0.05859,0.167968 0.148437,0.214843 l 1.3125,0.699219 c 0.121094,0.0625 0.203125,0.04687 0.253906,-0.04297 0.04688,-0.09375 0.08594,-0.183593 0.113282,-0.269531 0.02734,-0.08594 0.02734,-0.171875 0.0078,-0.261719 -0.01953,-0.08594 -0.07031,-0.179687 -0.15625,-0.273437 -0.08203,-0.09766 -0.210937,-0.195313 -0.386718,-0.304688 l 0.183593,-0.339844 2,1.0625 -0.179687,0.339844 c -0.179688,-0.07813 -0.324219,-0.132812 -0.445313,-0.160156 -0.117187,-0.02734 -0.21875,-0.03125 -0.300781,-0.01172 -0.08203,0.01953 -0.152344,0.0625 -0.210938,0.125 -0.05859,0.0625 -0.117187,0.148438 -0.179687,0.25 -0.05469,0.140625 -0.02344,0.242188 0.09766,0.304688 l 1.402344,0.746093 c 0.238281,0.125 0.4375,0.04297 0.589844,-0.25 0.128906,-0.238281 0.207031,-0.441406 0.234375,-0.609374 0.02734,-0.167969 0.01563,-0.320313 -0.03125,-0.464844 C 92.445312,77.011719 92.359375,76.875 92.238281,76.738281 92.117188,76.605469 91.96875,76.453125 91.789062,76.28125 l 0.238282,-0.300781 1.464844,0.988281 z m -0.867188,1.351563 c -0.03516,0.207031 -0.109375,0.398437 -0.230468,0.578125 -0.222657,0.335937 -0.472657,0.582031 -0.746094,0.734375 -0.273438,0.152343 -0.566406,0.230469 -0.875,0.234375 -0.308594,0.0078 -0.628906,-0.05469 -0.957032,-0.179688 C 87.675781,82.96875 87.339844,82.792969 87,82.570312 86.640625,82.328125 86.324219,82.078125 86.058594,81.8125 c -0.269532,-0.261719 -0.46875,-0.53125 -0.605469,-0.808594 -0.132813,-0.277344 -0.195313,-0.5625 -0.183594,-0.851562 0.0078,-0.285156 0.113281,-0.574219 0.304688,-0.867188 0.05469,-0.08594 0.125,-0.171875 0.203125,-0.257812 0.07813,-0.08594 0.160156,-0.167969 0.253906,-0.242188 0.09375,-0.07031 0.191406,-0.132812 0.296875,-0.183594 0.105469,-0.05078 0.210937,-0.08203 0.320313,-0.09375 -0.121094,-0.214843 -0.15625,-0.425781 -0.105469,-0.636718 0.488281,0.132812 1.089843,0.4375 1.808593,0.914062 L 88.09375,79.171875 C 87.550781,78.945312 87.125,78.84375 86.808594,78.867188 c -0.3125,0.01953 -0.558594,0.167968 -0.738282,0.4375 -0.125,0.1875 -0.171874,0.375 -0.144531,0.566406 0.02734,0.1875 0.105469,0.371094 0.234375,0.554687 0.125,0.183594 0.292969,0.363281 0.5,0.535157 0.207032,0.175781 0.425782,0.339843 0.65625,0.492187 0.316406,0.210937 0.621094,0.390625 0.917969,0.546875 0.292969,0.152344 0.566406,0.257812 0.820313,0.3125 0.253906,0.05859 0.484374,0.05859 0.691406,0.0039 0.207031,-0.05469 0.378906,-0.183594 0.515625,-0.390625 0.175781,-0.269531 0.230469,-0.554687 0.160156,-0.859375 -0.07031,-0.300781 -0.277344,-0.660156 -0.617187,-1.078125 l 0.269531,-0.164062 c 0.191406,0.199219 0.347656,0.410156 0.46875,0.625 0.125,0.21875 0.207031,0.433593 0.253906,0.652343 0.04687,0.21875 0.05078,0.425782 0.01953,0.628907 m -2.136718,3.273437 -4.722657,-0.21875 1.855469,1.519532 c 0.484375,0.398437 0.867188,0.417968 1.152344,0.07031 l 0.277344,0.226562 -1.046876,1.277344 -0.277343,-0.226562 C 86.152343,87.36718 86.031249,87.02343 85.55078,86.628898 L 82.699219,84.296875 C 82.5625,84.183594 82.367188,84.28125 82.113281,84.574219 l 0.921875,0.867187 -0.257812,0.316406 c -0.25,-0.191406 -0.457032,-0.320312 -0.628906,-0.382812 -0.171876,-0.06641 -0.320313,-0.08984 -0.449219,-0.07031 -0.132813,0.02344 -0.25,0.07422 -0.355469,0.164062 -0.109375,0.08594 -0.222656,0.1875 -0.339844,0.308594 -0.105468,0.101562 -0.164062,0.199218 -0.183594,0.296875 -0.01953,0.09375 0.0078,0.175781 0.07813,0.246093 L 81.949219,87.375 c 0.09375,0.09766 0.175781,0.109375 0.25,0.03906 0.07422,-0.07812 0.136719,-0.152343 0.191406,-0.226562 0.04687,-0.07422 0.07813,-0.15625 0.08594,-0.246094 0.0039,-0.08984 -0.01953,-0.195312 -0.07031,-0.308594 -0.05469,-0.117187 -0.144531,-0.25 -0.28125,-0.40625 l 0.273438,-0.273437 1.597656,1.609375 -0.273438,0.273438 c -0.144531,-0.128907 -0.269531,-0.222657 -0.375,-0.285157 -0.105468,-0.0625 -0.199218,-0.09766 -0.285156,-0.101562 -0.08203,-0.0039 -0.160156,0.01563 -0.234375,0.05859 -0.07813,0.04297 -0.160156,0.105469 -0.25,0.183594 -0.09375,0.117188 -0.09375,0.226563 0.0039,0.320313 l 1.117188,1.128906 c 0.195312,0.191406 0.40625,0.171875 0.640625,-0.0625 0.191406,-0.191406 0.328125,-0.363281 0.402344,-0.515625 0.07812,-0.152344 0.113281,-0.304688 0.109374,-0.453125 -0.0078,-0.148437 -0.04687,-0.308594 -0.125,-0.46875 -0.07422,-0.167969 -0.171874,-0.355469 -0.292968,-0.570313 l 0.316406,-0.21875 1.105469,1.375 -2.734375,2.722657 -0.25,-0.253907 c 0.28125,-0.277343 0.308594,-0.535156 0.07422,-0.769531 l -2.65625,-2.671875 c -0.300781,-0.300781 -0.601562,-0.300781 -0.90625,0.0039 l -0.261718,-0.265624 2.699218,-2.691407 0.01563,0.01563 0.742187,-0.90625 4.214844,0.238282 -1.683594,-1.382813 c -0.445313,-0.363281 -0.804687,-0.371094 -1.089844,-0.02734 l -0.289062,-0.234375 1.042969,-1.273437 0.289062,0.234375 c -0.253906,0.3125 -0.160156,0.648437 0.28125,1.011718 l 3.421875,2.804688 z M 80.96875,92.761719 80.738281,92.488281 C 81.054688,92.226562 81.097656,91.960938 80.875,91.695312 L 78.472656,88.867188 C 78.183594,88.527344 77.875,88.496094 77.550781,88.773438 l -0.242187,-0.28125 1.769531,-1.507813 0.242187,0.285156 c -0.300781,0.253907 -0.304687,0.554688 -0.01562,0.894531 l 2.402343,2.828126 c 0.222657,0.261718 0.492188,0.257812 0.808594,-0.01172 l 0.230469,0.273437 z m -0.984375,0.324219 c -0.03125,0.21875 -0.09766,0.417968 -0.199219,0.597656 -0.105468,0.179687 -0.242187,0.332031 -0.417968,0.460937 -0.328126,0.234375 -0.644532,0.375 -0.957032,0.421875 -0.308594,0.04687 -0.613281,0.01953 -0.902344,-0.08203 -0.289062,-0.10547 -0.566406,-0.273438 -0.832031,-0.507814 -0.265625,-0.234374 -0.519531,-0.515624 -0.757812,-0.847656 -0.257813,-0.351562 -0.464844,-0.699218 -0.621094,-1.035156 -0.160156,-0.34375 -0.253906,-0.664062 -0.28125,-0.972656 -0.02734,-0.308594 0.01172,-0.59375 0.125,-0.859375 0.109375,-0.269531 0.304687,-0.503907 0.589844,-0.707031 0.08203,-0.0625 0.175781,-0.117188 0.277343,-0.171876 0.105469,-0.05469 0.210938,-0.09766 0.324219,-0.136718 0.113281,-0.03516 0.230469,-0.05859 0.34375,-0.07031 0.117188,-0.0078 0.226563,0 0.335938,0.02734 -0.03906,-0.246094 0,-0.457031 0.121093,-0.636719 0.410157,0.296875 0.871094,0.792969 1.375,1.492188 l -0.378906,0.269531 c -0.425781,-0.402344 -0.792968,-0.648437 -1.09375,-0.734375 -0.300781,-0.08984 -0.585937,-0.03906 -0.847656,0.152344 -0.179688,0.132812 -0.292969,0.292968 -0.332031,0.476562 -0.03906,0.1875 -0.03125,0.390625 0.02344,0.605469 0.05469,0.214844 0.148438,0.441406 0.28125,0.675781 0.132813,0.238282 0.28125,0.46875 0.445313,0.691406 0.222656,0.308594 0.441406,0.585938 0.664062,0.832032 0.222657,0.246094 0.441407,0.4375 0.660157,0.582031 0.21875,0.144531 0.433593,0.226563 0.644531,0.246094 0.214843,0.02344 0.417969,-0.03906 0.621093,-0.1875 0.261719,-0.1875 0.410157,-0.4375 0.453126,-0.746094 0.03906,-0.308594 -0.03125,-0.71875 -0.203126,-1.226563 l 0.3125,-0.05859 c 0.109376,0.253906 0.183594,0.507812 0.21875,0.753906 0.03906,0.242187 0.04297,0.476563 0.0078,0.695313 m -3.382813,2.382812 c -0.03516,0.203125 -0.113281,0.390625 -0.230468,0.558594 -0.121094,0.167968 -0.277344,0.308594 -0.46875,0.421875 -0.140625,0.08594 -0.289063,0.144531 -0.449219,0.183593 -0.15625,0.03125 -0.316406,0.02344 -0.484375,-0.02734 -0.03516,0.113281 -0.07813,0.21875 -0.125,0.324219 -0.05078,0.101562 -0.109375,0.195312 -0.175781,0.28125 -0.148438,-0.140626 -0.28125,-0.292969 -0.40625,-0.453126 -0.121094,-0.164062 -0.238281,-0.335937 -0.347657,-0.519531 -0.07422,-0.125 -0.148437,-0.25 -0.214843,-0.375 -0.06641,-0.125 -0.128907,-0.257812 -0.191407,-0.390625 L 73.878906,95.25 c 0.09766,0.160156 0.210938,0.3125 0.339844,0.457031 0.132812,0.148438 0.277344,0.265625 0.429688,0.363281 0.15625,0.09375 0.316406,0.148438 0.484374,0.167969 0.167969,0.01563 0.335938,-0.02344 0.5,-0.121093 0.144532,-0.08984 0.257813,-0.183594 0.335938,-0.285157 0.07422,-0.101562 0.121094,-0.207031 0.140625,-0.316406 0.01953,-0.113281 0.01563,-0.222656 -0.01563,-0.335937 -0.02734,-0.109376 -0.07422,-0.21875 -0.136719,-0.328126 -0.101562,-0.167968 -0.222656,-0.289062 -0.359375,-0.363281 -0.136718,-0.07031 -0.300781,-0.09766 -0.5,-0.07031 -0.289062,0.03516 -0.566406,0.0625 -0.816406,0.07813 -0.253906,0.01953 -0.492188,0 -0.71875,-0.05078 -0.226562,-0.05469 -0.433594,-0.152343 -0.628906,-0.292968 -0.191406,-0.140625 -0.371094,-0.351563 -0.539063,-0.628906 -0.125,-0.207032 -0.207031,-0.414063 -0.242187,-0.617188 -0.03906,-0.207031 -0.03906,-0.398438 -0.0039,-0.578125 0.03516,-0.179687 0.109374,-0.34375 0.214843,-0.488281 0.105469,-0.148438 0.238281,-0.269532 0.398438,-0.367188 0.140625,-0.08203 0.292969,-0.132812 0.460937,-0.140625 0.167969,-0.01563 0.34375,0.03125 0.523438,0.132813 -0.01563,-0.121094 -0.0039,-0.238282 0.03906,-0.347656 0.04297,-0.113282 0.09375,-0.203126 0.15625,-0.28125 0.195313,0.199218 0.390625,0.441406 0.578125,0.726562 0.191407,0.285156 0.363281,0.558594 0.523438,0.820312 l -0.394531,0.234376 C 74.5,92.441406 74.355469,92.289062 74.214844,92.15625 c -0.140625,-0.132812 -0.28125,-0.238281 -0.417969,-0.3125 -0.136719,-0.07813 -0.265625,-0.121094 -0.386719,-0.136719 -0.125,-0.0078 -0.238281,0.01563 -0.347656,0.08203 -0.21875,0.128907 -0.355469,0.289063 -0.410156,0.476563 -0.05078,0.1875 -0.01953,0.375 0.08984,0.558594 0.07812,0.132812 0.164062,0.226562 0.253906,0.28125 0.09375,0.05859 0.199218,0.09766 0.316406,0.113281 0.117188,0.01953 0.253906,0.01953 0.402344,0.0078 0.148437,-0.01562 0.316406,-0.02734 0.507812,-0.04297 0.210938,-0.01172 0.410156,-0.01953 0.597656,-0.01953 0.1875,0 0.363282,0.02734 0.527344,0.08594 0.167969,0.05859 0.328125,0.15625 0.480469,0.289062 0.152344,0.132813 0.304687,0.328126 0.457031,0.582032 0.144532,0.242187 0.242188,0.476562 0.292969,0.703125 0.05078,0.226562 0.05859,0.441406 0.02344,0.644531 M 68.011719,100.125 67.875,99.796875 c 0.351562,-0.144531 0.449219,-0.40625 0.292969,-0.789063 L 66.800781,95.667969 C 66.632812,95.253906 66.355469,95.125 65.972656,95.28125 l -0.140625,-0.34375 3.453125,-1.417969 0.722656,1.464844 -0.386718,0.214844 c -0.140625,-0.242188 -0.277344,-0.425781 -0.40625,-0.550781 -0.128906,-0.121094 -0.257813,-0.199219 -0.390625,-0.234376 -0.132813,-0.03125 -0.269531,-0.02734 -0.417969,0.0078 -0.148438,0.03516 -0.308594,0.08984 -0.484375,0.164063 -0.222656,0.08984 -0.296875,0.222656 -0.222656,0.402343 L 68.25,96.332031 c 0.06641,0.160157 0.203125,0.199219 0.40625,0.117188 0.101562,-0.04297 0.179688,-0.08984 0.234375,-0.140625 0.05469,-0.04687 0.08984,-0.109375 0.101563,-0.1875 0.01562,-0.07422 0.01172,-0.167969 -0.01172,-0.277344 -0.01953,-0.113281 -0.05078,-0.25 -0.08984,-0.417969 l 0.332031,-0.136719 0.847656,2.066407 -0.339843,0.136719 -0.07813,-0.195313 c -0.02734,-0.0625 -0.0625,-0.128906 -0.105469,-0.199219 -0.04297,-0.07031 -0.101563,-0.132812 -0.171875,-0.175781 -0.07422,-0.04687 -0.164062,-0.07422 -0.269531,-0.07813 -0.109375,-0.0039 -0.238281,0.02344 -0.386719,0.08594 -0.07813,0.03125 -0.125,0.06641 -0.136719,0.109374 -0.01172,0.03906 -0.0039,0.08984 0.01953,0.148438 l 0.574219,1.40625 c 0.160157,0.382812 0.445313,0.488281 0.863281,0.316406 l 0.132813,0.328125 z m -1.3125,-0.21875 c -0.128907,0.30078 -0.3125,0.55469 -0.550781,0.76172 -0.234376,0.20703 -0.515626,0.35547 -0.839844,0.45312 -0.304688,0.0898 -0.605469,0.1211 -0.90625,0.0977 -0.296875,-0.0273 -0.578125,-0.125 -0.847656,-0.28906 -0.265626,-0.16797 -0.507813,-0.41016 -0.726563,-0.72656 -0.21875,-0.320318 -0.402344,-0.722661 -0.546875,-1.210942 -0.144531,-0.496094 -0.21875,-0.9375 -0.210938,-1.324219 0.0039,-0.386719 0.07031,-0.726563 0.199219,-1.015625 0.128907,-0.289063 0.3125,-0.53125 0.550781,-0.71875 0.238282,-0.1875 0.511719,-0.328125 0.828126,-0.421875 0.308593,-0.08984 0.617187,-0.121094 0.925781,-0.08594 0.308593,0.03516 0.597656,0.140625 0.871093,0.308594 0.273438,0.171875 0.519532,0.410156 0.738282,0.71875 0.222656,0.3125 0.402344,0.695313 0.535156,1.148437 0.136719,0.460938 0.199219,0.886719 0.191406,1.273438 -0.01172,0.386719 -0.08203,0.730469 -0.210937,1.03125 m -7.738281,-2.515625 -0.886719,2.777347 0.199219,1.66016 c 0.02344,0.19531 0.246093,0.26953 0.667968,0.21875 l 0.04297,0.35546 -2.394531,0.28516 -0.04297,-0.35547 c 0.441406,-0.0508 0.648437,-0.1875 0.621094,-0.40625 l -0.191407,-1.59375 -1.347656,-2.148438 c -0.1875,-0.296875 -0.375,-0.476563 -0.566406,-0.546875 -0.01172,0.0039 -0.03906,0.0039 -0.05078,0.0078 -0.07813,0.02344 -0.140625,0.05859 -0.1875,0.101563 -0.04687,0.04297 -0.07813,0.08984 -0.08984,0.140625 -0.01172,0.05078 -0.01953,0.105469 -0.01953,0.160156 l 0.09766,3.839849 c 0.01172,0.41406 0.210938,0.61719 0.59375,0.61719 l 0.0039,0.35547 -2.105468,0.0117 -0.0039,-0.35937 c 0.386719,0 0.578125,-0.1875 0.574219,-0.5625 l -0.06641,-3.54688 -1.296875,4.47266 h -0.597657 l -1.441406,-4.433598 -0.01172,3.406258 c 0.0039,0.45312 0.222656,0.67578 0.65625,0.67578 v 0.35547 l -1.652344,0.008 -0.0039,-0.35547 c 0.199218,0 0.351562,-0.0625 0.460937,-0.18359 0.105469,-0.1211 0.160156,-0.3125 0.160156,-0.56641 l 0.03516,-3.710942 c 0,-0.06641 0,-0.128906 -0.0078,-0.183593 -0.0078,-0.05469 -0.03125,-0.09766 -0.07422,-0.132813 -0.04297,-0.03906 -0.109375,-0.06641 -0.195312,-0.08984 -0.0625,-0.01562 -0.144532,-0.02344 -0.238282,-0.02734 l -0.09375,1.222656 h -0.40625 c -0.0039,-0.316406 -0.03516,-0.558594 -0.09375,-0.734375 -0.05859,-0.171875 -0.132812,-0.304688 -0.230468,-0.390625 -0.09766,-0.08984 -0.214844,-0.148437 -0.347656,-0.175781 -0.136719,-0.02734 -0.285157,-0.05078 -0.453126,-0.07031 -0.144531,-0.01563 -0.261718,-0.0039 -0.347656,0.04297 -0.08203,0.04297 -0.132812,0.117188 -0.144531,0.21875 l -0.160156,1.476562 c -0.01563,0.136719 0.02734,0.207032 0.128906,0.21875 0.105469,0.01172 0.203125,0.01172 0.292969,0.0078 0.08984,-0.0078 0.171875,-0.03906 0.246094,-0.08984 0.07422,-0.05078 0.140624,-0.132812 0.199218,-0.246093 0.05859,-0.113282 0.101563,-0.269532 0.136719,-0.472657 l 0.382813,0.04297 -0.246094,2.253911 -0.382813,-0.043 c 0.0078,-0.19141 0.0039,-0.35156 -0.01563,-0.47266 -0.01953,-0.12109 -0.05078,-0.21484 -0.09766,-0.28125 -0.05078,-0.0703 -0.113281,-0.12109 -0.195312,-0.152343 -0.08203,-0.03125 -0.179688,-0.05469 -0.300782,-0.07422 -0.148437,0 -0.234375,0.06641 -0.246094,0.203123 l -0.175781,1.57813 c -0.02734,0.26953 0.121094,0.42578 0.453125,0.46094 0.265625,0.0273 0.484375,0.0273 0.652344,-0.0117 0.164062,-0.0352 0.304688,-0.10156 0.417969,-0.19922 0.113281,-0.0977 0.210937,-0.23047 0.289062,-0.39063 0.08203,-0.16406 0.167969,-0.35937 0.261719,-0.58984 l 0.367188,0.10938 -0.375,1.72656 -3.835938,-0.42188 0.03516,-0.35156 c 0.398438,0.043 0.613282,-0.0977 0.648438,-0.42578 l 0.414062,-3.746097 c 0.04687,-0.421875 -0.144531,-0.65625 -0.570312,-0.703125 l 0.03906,-0.371094 3.789063,0.414063 -0.0039,0.05859 1.609376,-0.0078 1.304687,4.101563 1.214844,-4.113282 1.035156,-0.0039 2.191406,-0.265625 0.04687,0.371094 c -0.3125,0.03906 -0.460937,0.132812 -0.441406,0.285156 0.0078,0.05469 0.05469,0.152344 0.140625,0.28125 l 1.082031,1.726562 0.585938,-1.917968 c 0.01172,-0.08594 0.01172,-0.199219 -0.0039,-0.339844 -0.01953,-0.128906 -0.195313,-0.171875 -0.539063,-0.132812 l -0.04297,-0.371094 1.585938,-0.191406 0.04687,0.371093 c -0.238281,0.03125 -0.402344,0.144531 -0.488281,0.339844 m -14.46875,4.175782 c -0.226563,0.1875 -0.492188,0.30468 -0.800782,0.35156 -0.308594,0.043 -0.671875,0.0234 -1.085937,-0.0664 l -2.261719,-0.48437 0.07422,-0.34766 c 0.128906,0.0234 0.230469,0.0391 0.316406,0.0391 0.08203,0 0.152344,-0.0195 0.207031,-0.0586 0.05078,-0.0391 0.09766,-0.10547 0.132813,-0.19141 0.03516,-0.0898 0.06641,-0.21093 0.09766,-0.35937 l 0.726563,-3.378905 c 0.03906,-0.1875 0.05859,-0.324218 0.05469,-0.417968 -0.0039,-0.08984 -0.02344,-0.15625 -0.06641,-0.199219 -0.03906,-0.04297 -0.09766,-0.07813 -0.175781,-0.109375 -0.07813,-0.02734 -0.171876,-0.07031 -0.28125,-0.128906 l 0.07812,-0.367188 c 0.105469,0.04297 0.207032,0.07422 0.300782,0.101563 0.08984,0.02734 0.1875,0.04687 0.289062,0.07031 0.132813,0.03125 0.257813,0.05078 0.367188,0.07031 0.113281,0.01953 0.234375,0.03516 0.367187,0.05859 0.128907,0.01953 0.28125,0.04297 0.457031,0.07422 0.167969,0.03125 0.386719,0.07422 0.644532,0.132813 0.339844,0.07031 0.628906,0.1875 0.867187,0.34375 0.242188,0.160156 0.425781,0.371093 0.558594,0.628906 0.132813,0.261719 0.207031,0.578125 0.222656,0.953125 0.01563,0.375 -0.02734,0.808594 -0.132812,1.308594 -0.101563,0.47266 -0.230469,0.875 -0.386719,1.20313 -0.152344,0.33203 -0.34375,0.58984 -0.570312,0.77344 m -6.363282,-0.91797 0.109375,-0.32813 c 0.0625,0.008 0.125,0.0156 0.195313,0.0273 0.06641,0.0117 0.132812,0.0195 0.1875,0.0234 0.05859,0.004 0.105468,0 0.144531,-0.008 0.04297,-0.008 0.0625,-0.0234 0.07031,-0.043 0.01172,-0.0273 0.01562,-0.0586 0.01562,-0.0977 0,-0.0391 0.0039,-0.082 0.0039,-0.12891 l 0.04687,-1.074223 c 0,-0.06641 -0.02734,-0.121093 -0.08594,-0.167969 -0.0625,-0.04687 -0.125,-0.08203 -0.195312,-0.105468 l -0.921875,-0.300782 c -0.136719,-0.04297 -0.234375,-0.01953 -0.300781,0.07813 l -0.472657,0.757812 c -0.01563,0.02344 -0.03125,0.05078 -0.04687,0.08203 -0.01563,0.03125 -0.02734,0.06641 -0.03906,0.101563 -0.07031,0.210937 0.07422,0.375 0.433594,0.492187 l -0.125,0.3711 -1.46875,-0.480475 0.121093,-0.371094 c 0.242188,0.05469 0.476563,-0.07031 0.703125,-0.378906 l 2.992188,-4.066406 0.550781,0.296875 -0.07813,5.210936 c -0.0039,0.0625 0.0078,0.1211 0.03125,0.17188 0.02734,0.0508 0.0625,0.0937 0.101562,0.13281 0.04297,0.0352 0.08594,0.0703 0.132813,0.10156 0.04297,0.0273 0.08984,0.0547 0.132813,0.0742 l -0.105469,0.33203 z M 34.71875,99.402344 c -0.207031,0 -0.410156,-0.04297 -0.609375,-0.128906 C 33.742188,99.113281 33.457031,98.910156 33.261719,98.664062 33.0625,98.421875 32.933594,98.144531 32.875,97.84375 c -0.05859,-0.304688 -0.05078,-0.628906 0.01563,-0.976562 0.06641,-0.347657 0.183594,-0.707032 0.347656,-1.082032 0.171875,-0.398437 0.367188,-0.753906 0.578125,-1.0625 0.210938,-0.308594 0.445313,-0.550781 0.695313,-0.734375 0.25,-0.179687 0.519531,-0.289062 0.804687,-0.328125 0.285156,-0.03906 0.585938,0.01172 0.90625,0.152344 0.09375,0.03906 0.191406,0.09375 0.289063,0.15625 0.09766,0.05859 0.191406,0.128906 0.28125,0.207031 0.08984,0.08203 0.167969,0.167969 0.234375,0.261719 0.06641,0.09375 0.117187,0.195312 0.148437,0.300781 0.1875,-0.15625 0.390625,-0.226562 0.609375,-0.214843 -0.05078,0.507812 -0.246094,1.152343 -0.589844,1.941406 l -0.425781,-0.1875 c 0.128907,-0.574219 0.15625,-1.011719 0.08203,-1.320313 -0.07812,-0.304687 -0.265624,-0.523437 -0.558593,-0.652343 -0.207031,-0.08984 -0.402344,-0.105469 -0.582031,-0.04297 -0.183594,0.05859 -0.351563,0.167969 -0.511719,0.324219 -0.15625,0.15625 -0.304688,0.351562 -0.4375,0.585937 -0.140625,0.234375 -0.261719,0.476563 -0.375,0.734375 -0.152344,0.347656 -0.277344,0.679688 -0.378907,0.996094 -0.09766,0.3125 -0.152343,0.601562 -0.164062,0.863281 -0.01563,0.261719 0.02344,0.488281 0.113281,0.679687 0.08984,0.195313 0.246094,0.339844 0.476563,0.441407 0.292968,0.128906 0.585937,0.132812 0.871094,0.01172 0.285156,-0.121094 0.605468,-0.386719 0.957031,-0.796876 l 0.207031,0.242188 c -0.164062,0.222656 -0.34375,0.414062 -0.535156,0.570312 -0.195313,0.15625 -0.390625,0.273438 -0.597656,0.359376 -0.207032,0.08203 -0.410157,0.125 -0.617188,0.128906 m -2.296875,-0.96875 -1.96875,-1.078125 0.167969,-0.308594 c 0.05859,0.01953 0.121094,0.04297 0.1875,0.06641 0.0625,0.02344 0.125,0.03906 0.179687,0.05469 0.05469,0.01563 0.105469,0.02344 0.144531,0.02344 0.03906,-0.0039 0.06641,-0.01172 0.07813,-0.03125 0.01172,-0.02734 0.02344,-0.05859 0.03125,-0.09375 0.0078,-0.03906 0.01562,-0.08203 0.02734,-0.128906 l 0.242188,-1.046875 c 0.01172,-0.0625 -0.0039,-0.125 -0.05469,-0.179687 -0.05078,-0.05469 -0.109375,-0.101563 -0.171875,-0.136719 l -0.851562,-0.46875 c -0.125,-0.06641 -0.226563,-0.05859 -0.308594,0.02734 l -0.601562,0.65625 c -0.02344,0.01953 -0.04297,0.04297 -0.0625,0.07031 -0.01953,0.02734 -0.04297,0.05859 -0.05859,0.09375 -0.109375,0.195313 0.0039,0.382813 0.335937,0.5625 l -0.1875,0.34375 -1.359375,-0.746094 0.1875,-0.339843 c 0.226563,0.09766 0.480469,0.01562 0.761719,-0.242188 l 3.683594,-3.453125 0.488281,0.394531 -1.03125,5.109375 c -0.01563,0.0625 -0.01563,0.121094 0.0039,0.175781 0.01563,0.05469 0.03906,0.101563 0.07422,0.148438 0.03125,0.04297 0.07031,0.08594 0.109375,0.121094 0.03906,0.03906 0.07813,0.07031 0.117188,0.101562 z M 27.78516,91.082031 c 0.160156,-0.269531 0.261719,-0.496093 0.304688,-0.671875 0.04297,-0.179687 0.04687,-0.332031 0.0078,-0.457031 -0.03516,-0.125 -0.105468,-0.238281 -0.203125,-0.332031 -0.101562,-0.09375 -0.21875,-0.195313 -0.351562,-0.296875 -0.113281,-0.08984 -0.21875,-0.140625 -0.316407,-0.144531 -0.09375,-0.0078 -0.175781,0.02734 -0.234374,0.109374 l -0.914063,1.171876 c -0.08203,0.109374 -0.08594,0.195312 -0.0039,0.257812 0.08203,0.06641 0.164062,0.117188 0.246093,0.160156 0.07813,0.03906 0.164063,0.05859 0.253907,0.05078 0.09375,-0.0039 0.191406,-0.03906 0.300781,-0.105469 0.105469,-0.06641 0.230469,-0.175781 0.363281,-0.328125 l 0.304688,0.234375 -1.390625,1.789062 -0.304688,-0.234375 c 0.109375,-0.160156 0.1875,-0.296875 0.234375,-0.410156 0.05078,-0.113281 0.07031,-0.210938 0.0625,-0.292969 -0.0039,-0.08203 -0.03125,-0.160156 -0.08594,-0.230469 -0.05078,-0.06641 -0.125,-0.140624 -0.214844,-0.222656 -0.128906,-0.07813 -0.234375,-0.0625 -0.316406,0.04687 l -0.976563,1.25 c -0.164062,0.214844 -0.117187,0.425781 0.144531,0.628907 0.210938,0.164062 0.398438,0.277343 0.558594,0.335937 0.164063,0.05469 0.316406,0.07031 0.464844,0.04687 0.148438,-0.02344 0.300781,-0.08594 0.453125,-0.183594 0.152344,-0.09375 0.328125,-0.214844 0.523437,-0.363281 l 0.257813,0.289063 -1.222656,1.273437 -3.046875,-2.371094 0.21875,-0.28125 c 0.3125,0.242188 0.574218,0.234375 0.773437,-0.02344 l 2.3125,-2.976563 C 26.25,88.464844 26.210938,88.167969 25.871094,87.902344 l 0.230468,-0.292969 3.007813,2.339844 -0.976563,1.347656 z m -6.019531,0.160157 c -0.191406,-0.07031 -0.371094,-0.179688 -0.539063,-0.332032 -0.121093,-0.113281 -0.21875,-0.238281 -0.296874,-0.378906 -0.07813,-0.140625 -0.113282,-0.296875 -0.109376,-0.472656 -0.121093,0 -0.234374,-0.01172 -0.347656,-0.03125 -0.113281,-0.01953 -0.21875,-0.05078 -0.320312,-0.08984 0.09375,-0.179688 0.203125,-0.351562 0.324218,-0.515625 0.117188,-0.164063 0.25,-0.324219 0.398438,-0.480469 0.09766,-0.109375 0.199219,-0.210937 0.300781,-0.3125 0.09766,-0.09766 0.207031,-0.195312 0.320313,-0.292968 l 0.316406,0.292968 c -0.128906,0.136719 -0.242188,0.289063 -0.34375,0.457032 -0.105469,0.167968 -0.179688,0.335937 -0.226562,0.511718 -0.04688,0.175782 -0.05469,0.347656 -0.02734,0.515625 0.03125,0.167969 0.117187,0.316407 0.253906,0.441407 0.128906,0.117187 0.253906,0.199218 0.371094,0.246093 0.117187,0.04297 0.234375,0.05859 0.34375,0.04687 0.113281,-0.01563 0.21875,-0.05078 0.316406,-0.109375 0.101562,-0.05859 0.191406,-0.132812 0.277344,-0.222656 0.132812,-0.148437 0.214844,-0.296875 0.246094,-0.449219 0.03125,-0.152344 0.0078,-0.316406 -0.07031,-0.5 -0.117187,-0.269531 -0.222656,-0.523437 -0.308594,-0.761718 -0.08594,-0.238282 -0.136719,-0.472657 -0.148437,-0.703126 -0.01172,-0.234374 0.01953,-0.460937 0.101562,-0.6875 0.08203,-0.222656 0.230469,-0.457031 0.449219,-0.691406 0.167969,-0.179687 0.34375,-0.316406 0.527344,-0.410156 0.1875,-0.09375 0.371093,-0.148438 0.554687,-0.164062 0.183594,-0.01563 0.359375,0.0078 0.53125,0.06641 0.167969,0.0625 0.320313,0.152344 0.457032,0.28125 0.121093,0.109375 0.210937,0.246094 0.269531,0.402344 0.05859,0.160156 0.0625,0.339843 0.01563,0.542968 0.113281,-0.05078 0.230468,-0.07031 0.347656,-0.0625 0.117188,0.0078 0.222656,0.03125 0.3125,0.07031 -0.132812,0.246093 -0.3125,0.5 -0.53125,0.761719 -0.222656,0.261718 -0.4375,0.503906 -0.644531,0.730468 l -0.335938,-0.3125 c 0.128907,-0.191406 0.234375,-0.371094 0.324219,-0.546875 0.08594,-0.171875 0.148438,-0.335937 0.183594,-0.488281 0.03516,-0.152344 0.03906,-0.289062 0.01563,-0.410156 C 25.0508,87.0625 24.99611,86.960938 24.902365,86.875 c -0.1875,-0.175781 -0.378906,-0.261719 -0.574219,-0.257812 -0.191406,0 -0.363281,0.08203 -0.511719,0.238281 -0.101562,0.113281 -0.167968,0.222656 -0.199218,0.324219 -0.02734,0.105468 -0.03516,0.21875 -0.01953,0.335937 0.01563,0.117187 0.05469,0.25 0.109375,0.386719 0.05469,0.140625 0.113281,0.300781 0.179688,0.476562 0.07422,0.199219 0.140625,0.390625 0.191406,0.570313 0.05078,0.175781 0.07422,0.355469 0.0625,0.53125 -0.0078,0.175781 -0.05469,0.355469 -0.140625,0.539062 -0.08594,0.183594 -0.226562,0.386719 -0.429688,0.601563 -0.191406,0.207031 -0.386718,0.371094 -0.59375,0.480468 -0.203124,0.113282 -0.40625,0.183594 -0.609374,0.207032 -0.207032,0.01953 -0.40625,0 -0.601563,-0.06641 m -4.542969,-4.652344 0.261719,-0.238282 c 0.269531,0.292969 0.523437,0.328126 0.765625,0.109376 l 2.78125,-2.546876 c 0.230469,-0.207031 0.292969,-0.425781 0.199219,-0.652343 -0.234375,-0.242188 -0.558594,-0.222657 -0.980469,0.08984 l -3.539062,2.652344 -0.195313,-0.136718 1.347656,-4.535157 -1.925781,1.4375 c -0.496094,0.375 -0.609375,0.742188 -0.339844,1.101563 l -0.285156,0.214844 -0.992188,-1.324219 0.285157,-0.214844 c 0.222656,0.300781 0.585937,0.261719 1.082031,-0.109375 l 2.949219,-2.210938 c 0.152343,-0.109374 0.09375,-0.339843 -0.164063,-0.6875 l 0.0039,-0.0039 c -0.1875,-0.132812 -0.417968,-0.113281 -0.695312,0.05859 l -3.132812,1.980469 c -0.292969,0.183593 -0.328126,0.453125 -0.105469,0.804687 l -0.304688,0.191406 -1.242187,-1.972656 0.300781,-0.191406 c 0.222656,0.347656 0.476563,0.429688 0.769531,0.246094 l 3.136719,-1.980469 c 0.332031,-0.210937 0.414063,-0.472656 0.277344,-0.777344 l -0.04297,0.01953 c -0.183594,-0.359374 -0.476562,-0.433593 -0.875,-0.230468 l -3.300781,1.6875 c -0.308594,0.15625 -0.371094,0.414062 -0.1875,0.773437 l -0.316407,0.160157 -1.066406,-2.089844 0.316406,-0.160156 c 0.199219,0.386718 0.449219,0.5 0.757813,0.34375 l 1.527344,-0.78125 c 0.0039,-0.05078 -0.0039,-0.117188 -0.01953,-0.195313 -0.01953,-0.07813 -0.05078,-0.164063 -0.101563,-0.257813 L 13.8125,76.453125 c -0.07422,-0.144531 -0.171875,-0.257813 -0.289062,-0.335937 l -1.527344,0.777343 c -0.304688,0.160157 -0.367188,0.414063 -0.1875,0.769531 l -0.316406,0.164063 -1.074219,-2.101563 0.316406,-0.164062 c 0.207031,0.398438 0.460937,0.519531 0.769531,0.363281 l 3.300782,-1.6875 c 0.367187,-0.1875 0.46875,-0.464843 0.320312,-0.816406 -0.359375,0.21875 -0.816406,0.4375 -1.378906,0.652344 l -0.164063,-0.433594 c 0.5,-0.308594 0.832031,-0.597656 0.996094,-0.867187 0.164063,-0.269532 0.1875,-0.554688 0.07422,-0.855469 -0.08203,-0.210938 -0.207032,-0.359375 -0.375,-0.449219 -0.171875,-0.08594 -0.367188,-0.128906 -0.589844,-0.132812 -0.222656,-0.0039 -0.464844,0.02734 -0.726562,0.09375 -0.261719,0.06641 -0.523438,0.152343 -0.785157,0.25 -0.355469,0.132812 -0.679687,0.277343 -0.972656,0.425781 -0.296875,0.152343 -0.539063,0.3125 -0.734375,0.488281 -0.195312,0.171875 -0.328125,0.359375 -0.40625,0.558594 -0.074219,0.199218 -0.070312,0.414062 0.01953,0.644531 0.113281,0.304687 0.316407,0.515625 0.601563,0.632813 0.289062,0.117187 0.699218,0.160156 1.238281,0.125 l -0.02344,0.316406 c -0.277344,0.03906 -0.539063,0.04297 -0.785157,0.01563 -0.246093,-0.02344 -0.472656,-0.08203 -0.671875,-0.171875 C 10.234375,74.625 10.0625,74.511719 9.914062,74.363281 9.769531,74.21875 9.65625,74.042969 9.578125,73.839844 9.4375,73.464844 9.382812,73.117188 9.417969,72.808594 c 0.035156,-0.3125 0.140625,-0.597656 0.316406,-0.851563 0.175781,-0.253906 0.414063,-0.476562 0.707031,-0.671875 0.296875,-0.195312 0.632813,-0.367187 1.015625,-0.511718 0.40625,-0.15625 0.792969,-0.265626 1.164063,-0.328126 0.367187,-0.06641 0.703125,-0.07422 1.007812,-0.01953 0.304688,0.05078 0.570313,0.167969 0.800782,0.34375 0.226562,0.175781 0.402343,0.429688 0.527343,0.753907 0.03516,0.09766 0.06641,0.199218 0.08984,0.316406 0.02734,0.113281 0.03906,0.226562 0.04687,0.347656 0.0039,0.117188 0,0.234375 -0.01953,0.347656 -0.02344,0.113282 -0.05859,0.222656 -0.113281,0.316406 0.246093,0.02734 0.4375,0.121094 0.578124,0.285157 -0.02344,0.01953 -0.0625,0.04297 -0.08984,0.06641 l 1.054687,2.0625 -0.335937,0.171875 C 15.988276,75.082036 15.699214,75.003911 15.29687,75.210943 L 14.0625,75.84375 c 0.0039,0.07031 0.01563,0.140625 0.03516,0.203125 0.01953,0.06641 0.05078,0.136719 0.08984,0.214844 l 0.363281,0.710937 c 0.105469,0.203125 0.195313,0.328125 0.269531,0.375 l 1.246094,-0.636718 c 0.398438,-0.203126 0.5,-0.496094 0.300782,-0.882813 l 0.335937,-0.171875 0.992187,1.945312 0.04688,-0.03125 1.238281,1.96875 -0.02734,0.01953 0.570313,0.761718 -1.242188,4.039063 1.746094,-1.304687 c 0.460937,-0.34375 0.554687,-0.695313 0.285156,-1.050782 l 0.300781,-0.226562 0.734375,0.988281 2.566406,2.804687 -1.191406,1.164063 -0.304687,-0.269531 c 0.203125,-0.238282 0.339843,-0.445313 0.414062,-0.613282 0.07422,-0.167968 0.101563,-0.316406 0.08594,-0.445312 -0.01563,-0.132812 -0.06641,-0.25 -0.148438,-0.363281 C 22.6875,84.933594 22.589844,84.8125 22.476562,84.691406 22.378906,84.582031 22.28125,84.519531 22.1875,84.496094 c -0.08984,-0.02344 -0.175781,0 -0.25,0.06641 l -1.097656,1.003906 c -0.101563,0.09375 -0.117188,0.175782 -0.04687,0.25 0.07031,0.07813 0.144531,0.144532 0.214843,0.199219 0.07422,0.05469 0.152344,0.08594 0.246094,0.09766 0.08984,0.01172 0.191406,-0.0078 0.308594,-0.05469 0.121094,-0.04687 0.257812,-0.136719 0.417969,-0.265625 l 0.257812,0.285156 -1.671875,1.53125 -0.257812,-0.285156 c 0.132812,-0.136719 0.230468,-0.261719 0.300781,-0.363281 0.0625,-0.101563 0.101563,-0.195313 0.109375,-0.28125 0.01172,-0.08203 -0.0078,-0.160157 -0.04687,-0.238282 -0.03906,-0.07813 -0.09766,-0.164062 -0.175781,-0.253906 -0.113282,-0.101562 -0.21875,-0.105469 -0.320313,-0.01172 l -1.167969,1.070313 c -0.203124,0.183594 -0.191406,0.398437 0.03125,0.644531 0.183594,0.199219 0.347657,0.339844 0.5,0.421875 0.148438,0.08203 0.296876,0.125 0.445313,0.125 0.152344,0 0.308594,-0.03125 0.476563,-0.101562 0.167968,-0.06641 0.363281,-0.160157 0.582031,-0.269532 l 0.203125,0.324219 -1.421875,1.050781 z M 52.089867,21.18359 c 19.652344,0 35.640625,16 35.640625,35.660156 0,19.667969 -15.988281,35.667969 -35.640625,35.667969 -19.652344,0 -35.640625,-16 -35.640625,-35.667969 0,-19.660156 15.988281,-35.660156 35.640625,-35.660156 m 0,-14.210938 c -27.484375,0 -49.847656,22.375 -49.847656,49.871094 0,27.503906 22.363281,49.878914 49.847656,49.878914 27.484375,0 49.843743,-22.375008 49.843743,-49.878914 0,-27.496094 -22.359368,-49.871094 -49.843743,-49.871094"
       id="path20" />
    <path
       style="fill:#264f97;fill-opacity:1;fill-rule:nonzero;stroke:none"
       d="m 103.41406,56.851562 c 0,-28.320312 -23.027341,-51.359374 -51.324216,-51.359374 -28.304688,0 -51.328125,23.039062 -51.328125,51.359374 0,28.316407 23.023437,51.351568 51.328125,51.351568 28.296875,0 51.324216,-23.035161 51.324216,-51.351568 M 52.089844,4.820312 c 28.667968,0 51.992186,23.34375 51.992186,52.03125 0,28.683594 -23.324218,52.023438 -51.992186,52.023438 -28.671875,0 -52.0000002,-23.339844 -52.0000002,-52.023438 0,-28.6875 23.3281252,-52.03125 52.0000002,-52.03125"
       id="path21" />
    <path
       style="fill:#264f97;fill-opacity:1;fill-rule:nonzero;stroke:none"
       d="m 52.089844,4.914062 c -28.621094,0 -51.90625,23.296876 -51.90625,51.9375 0,28.636719 23.285156,51.933598 51.90625,51.933598 28.621094,0 51.902346,-23.296879 51.902346,-51.933598 0,-28.640624 -23.281252,-51.9375 -51.902346,-51.9375 m 0,104.050778 C 23.367188,108.96484 0,85.585938 0,56.851562 0,28.113281 23.367188,4.730469 52.089844,4.730469 c 28.71875,0 52.085936,23.382812 52.085936,52.121093 0,28.734376 -23.367186,52.113278 -52.085936,52.113278"
       id="path22" />
    <path
       style="fill:#264f97;fill-opacity:1;fill-rule:nonzero;stroke:none"
       d="m 52.089844,5.585938 c -28.253906,0 -51.238282,22.996093 -51.238282,51.265624 0,28.265626 22.984376,51.261718 51.238282,51.261718 28.25,0 51.230466,-22.996092 51.230466,-51.261718 0,-28.269531 -22.980466,-51.265624 -51.230466,-51.265624 m 0,102.707032 c -28.351563,0 -51.417969,-23.07422 -51.417969,-51.441408 0,-28.367187 23.066406,-51.449218 51.417969,-51.449218 28.347656,0 51.414066,23.082031 51.414066,51.449218 0,28.367188 -23.06641,51.441408 -51.414066,51.441408"
       id="path23" />
    <path
       style="fill:#264f97;fill-opacity:1;fill-rule:nonzero;stroke:none"
       d="m 52.089844,53.488281 c -1.855469,0 -3.363282,1.503907 -3.363282,3.359375 0,1.859375 1.507813,3.363282 3.363282,3.363282 1.855468,0 3.359375,-1.503907 3.359375,-3.363282 0,-1.855468 -1.503907,-3.359375 -3.359375,-3.359375"
       id="path24" />
    <path
       style="fill:#264f97;fill-opacity:1;fill-rule:nonzero;stroke:none"
       d="m 62.765625,63.023438 c -1.101563,0 -2,-0.898438 -2,-2 0,-1.105469 0.898437,-2.003907 2,-2.003907 1.105469,0 2.003906,0.898438 2.003906,2.003907 0,1.101562 -0.898437,2 -2.003906,2 M 59.035156,49.683594 c 0,-1.105469 0.898438,-2.003906 2.003906,-2.003906 1.105469,0 2.003907,0.898437 2.003907,2.003906 0,1.101562 -0.898438,2 -2.003907,2 -1.105468,0 -2.003906,-0.898438 -2.003906,-2 m 0.1875,5.664062 -1.230468,-0.02344 -0.867188,6.921875 c -0.0078,0.03906 -0.03516,0.07031 -0.07422,0.07813 -0.03906,0.0078 -0.07813,-0.01172 -0.09766,-0.04297 l -0.589844,-1.082031 -6.429687,2.710937 c -0.01172,0.0039 -0.02344,0.0078 -0.03516,0.0078 -0.02344,0 -0.05078,-0.01172 -0.06641,-0.03125 -0.02734,-0.03125 -0.03125,-0.07422 -0.01172,-0.105469 l 0.636719,-1.054688 -5.558593,-4.214843 c -0.03125,-0.02344 -0.04297,-0.0625 -0.03125,-0.101563 0.01172,-0.03516 0.04687,-0.05859 0.08984,-0.05859 l 1.226563,0.02344 0.871094,-6.925781 c 0.0039,-0.03906 0.03516,-0.07031 0.07031,-0.07813 0.03906,-0.0078 0.07813,0.01172 0.09766,0.04687 l 0.59375,1.078125 6.425782,-2.710938 c 0.03516,-0.01172 0.07812,-0.0039 0.105468,0.02734 0.02344,0.02734 0.02734,0.07031 0.0078,0.105469 l -0.636719,1.050781 5.558594,4.214844 c 0.03125,0.02344 0.04687,0.06641 0.03125,0.101562 -0.01172,0.03906 -0.04687,0.06641 -0.08594,0.0625 m -5.40625,14.84375 c -1.105468,0 -2.003906,-0.898437 -2.003906,-2.003906 0,-1.105469 0.898438,-2.003906 2.003906,-2.003906 1.101563,0 2,0.898437 2,2.003906 0,1.105469 -0.898437,2.003906 -2,2.003906 M 43.136719,66.019531 c -1.101563,0 -2,-0.898437 -2,-2.003906 0,-1.105469 0.898437,-2.003906 2,-2.003906 1.105469,0 2.003906,0.898437 2.003906,2.003906 0,1.105469 -0.898437,2.003906 -2.003906,2.003906 m -3.726563,-13.34375 c 0,-1.105469 0.898438,-2.003906 2,-2.003906 1.105469,0 2.003906,0.898437 2.003906,2.003906 0,1.105469 -0.898437,2.003907 -2.003906,2.003907 -1.101562,0 -2,-0.898438 -2,-2.003907 m 10.953125,-9.167969 c 1.101563,0 2,0.898438 2,2 0,1.105469 -0.898437,2.003907 -2,2.003907 -1.105469,0 -2.003906,-0.898438 -2.003906,-2.003907 0,-1.101562 0.898437,-2 2.003906,-2 m 27.222657,10.652344 5.292968,-8.839844 -8.261718,-6.214843 -15.078126,2.921875 2.96875,-8.617188 -5.003906,-9.007812 -9.507812,4.050781 -5.011719,14.53125 -5.972656,-6.886719 -10.296875,-0.164062 -1.25,10.265625 10.070312,11.605469 -8.945312,1.734374 -5.289063,8.839844 8.257813,6.214844 15.082031,-2.925781 -2.972656,8.617187 5.003906,9.007813 9.507813,-4.050781 5.011718,-14.527344 5.972656,6.882812 10.300782,0.164063 L 78.710938,67.5 68.640625,55.894531 Z m 0,0"
       id="path25" />
    <path
       style="fill:#264f97;fill-opacity:1;fill-rule:nonzero;stroke:none"
       d="m 52.085938,23.449219 c -18.398438,0 -33.367188,14.980469 -33.367188,33.390625 0,18.410156 14.96875,33.390625 33.367188,33.390625 18.402343,0 33.371093,-14.980469 33.371093,-33.390625 0,-18.410156 -14.96875,-33.390625 -33.371093,-33.390625 m 0,67.6875 C 33.1875,91.136719 17.808594,75.75 17.808594,56.839844 c 0,-18.914063 15.378906,-34.296875 34.277344,-34.296875 18.902343,0 34.277343,15.382812 34.277343,34.296875 0,18.910156 -15.375,34.296875 -34.277343,34.296875"
       id="path26" />
    <path
       style="fill:#ffffff;fill-opacity:1;fill-rule:nonzero;stroke:none"
       d="m 12.4375,39.136719 c 0,0.0039 0,0.0078 -0.0039,0.0078 -0.0078,0.02344 -0.03516,0.03125 -0.05469,0.01953 -0.07422,-0.03125 -0.148437,-0.0625 -0.226562,-0.08984 -0.05859,-0.01953 -0.109375,-0.05078 -0.15625,-0.08984 -0.148438,-0.07031 -0.277344,-0.175781 -0.375,-0.308594 -0.01953,-0.02734 -0.03906,-0.05469 -0.05469,-0.08203 -0.03906,-0.07031 -0.04687,-0.148438 -0.02734,-0.226562 0.01953,-0.08594 0.02734,-0.179688 0.01172,-0.269532 -0.0078,-0.07031 -0.0039,-0.144531 0.01563,-0.214844 0.02344,-0.07812 0.06641,-0.148437 0.125,-0.203124 0.04297,-0.03906 0.105469,-0.05078 0.15625,-0.03125 0.03906,0.01562 0.0625,0.05078 0.06641,0.08984 0.01172,0.08594 0.05078,0.164063 0.117188,0.222657 0.03906,0.03906 0.08594,0.06641 0.136719,0.08594 0.0625,0.02734 0.101562,0.08984 0.101562,0.152344 0,0.05469 -0.0039,0.105469 -0.01172,0.152343 -0.01562,0.07031 -0.0039,0.144532 0.02734,0.207032 0.01953,0.03516 0.04687,0.06641 0.07813,0.09375 0.06641,0.04687 0.101563,0.121094 0.101563,0.203125 0,0.09375 -0.0078,0.1875 -0.02734,0.28125 m 4.957031,3.464843 c -0.261719,-0.125 -0.511719,-0.273437 -0.742187,-0.441406 -0.09375,-0.06641 -0.179688,-0.140625 -0.261719,-0.222656 -0.175781,-0.171875 -0.367187,-0.332031 -0.574219,-0.472656 -0.105468,-0.07031 -0.203125,-0.15625 -0.285156,-0.253906 -0.07031,-0.08203 -0.128906,-0.171876 -0.171875,-0.273438 -0.03906,-0.09375 -0.117187,-0.164062 -0.214844,-0.199219 -0.121093,-0.04297 -0.242187,-0.09375 -0.363281,-0.148437 -0.105469,-0.05078 -0.1875,-0.140625 -0.226562,-0.25 -0.01953,-0.04687 -0.04297,-0.09766 -0.06641,-0.144532 -0.03906,-0.07031 -0.07813,-0.144531 -0.109375,-0.21875 -0.05859,-0.136718 -0.113281,-0.277343 -0.160156,-0.417968 -0.03516,-0.105469 -0.03516,-0.21875 0,-0.324219 0.04297,-0.132813 0.05469,-0.277344 0.02344,-0.414063 -0.01172,-0.07812 -0.04297,-0.148437 -0.08203,-0.214843 -0.02344,-0.03906 -0.05469,-0.07422 -0.08984,-0.109375 -0.05859,-0.05078 -0.07812,-0.136719 -0.04687,-0.210938 0.03125,-0.08984 0.02734,-0.1875 -0.01953,-0.269531 -0.02734,-0.05078 -0.05859,-0.101563 -0.08984,-0.148437 -0.03125,-0.03906 -0.08984,-0.05078 -0.128906,-0.01953 -0.0078,0.0039 -0.01172,0.0078 -0.01563,0.01172 -0.07813,0.08594 -0.136719,0.183594 -0.171875,0.289063 -0.03906,0.113281 -0.05078,0.234374 -0.02734,0.355468 0.01953,0.113282 0.02344,0.234375 0.0078,0.351563 -0.0078,0.07031 -0.03125,0.136719 -0.0625,0.199219 -0.01172,0.02344 -0.03516,0.04297 -0.05859,0.05469 -0.0625,0.02344 -0.128906,-0.0078 -0.152343,-0.06641 -0.04297,-0.105469 -0.117188,-0.195313 -0.210938,-0.257813 -0.08203,-0.05078 -0.136719,-0.140625 -0.144531,-0.238281 -0.01172,-0.105469 -0.02734,-0.210937 -0.04687,-0.316406 -0.01172,-0.0625 -0.03516,-0.117188 -0.07422,-0.164063 -0.09766,-0.132812 -0.136719,-0.296875 -0.101563,-0.457031 0.01953,-0.07422 0.0078,-0.152344 -0.03516,-0.21875 -0.04297,-0.07031 -0.0625,-0.15625 -0.05469,-0.238281 0.01172,-0.09766 0,-0.191406 -0.02734,-0.285156 -0.02734,-0.08203 -0.05859,-0.164063 -0.09766,-0.246094 -0.06641,-0.121094 -0.08984,-0.261719 -0.06641,-0.402344 0.01563,-0.08203 -0.04297,-0.164062 -0.128906,-0.179688 -0.140625,-0.02734 -0.289062,-0.01562 -0.425781,0.03516 -0.195313,0.07031 -0.351563,0.21875 -0.429687,0.410156 -0.06641,0.152344 -0.113282,0.3125 -0.148438,0.476563 -0.04687,0.226562 -0.08984,0.457031 -0.136719,0.683593 -0.03906,0.203125 -0.07031,0.40625 -0.08984,0.613281 -0.01172,0.09375 -0.09375,0.15625 -0.183594,0.144532 -0.125,-0.01563 -0.246094,-0.0625 -0.347656,-0.136719 -0.09375,-0.06641 -0.183594,-0.136719 -0.273438,-0.210937 -0.136719,-0.109376 -0.308594,-0.171876 -0.484375,-0.171876 -0.203125,-0.0039 -0.398437,0.07422 -0.546875,0.21875 -0.078125,0.07422 -0.140625,0.164063 -0.183594,0.265626 -0.03125,0.07031 -0.109375,0.105468 -0.183594,0.08203 -0.0625,-0.02344 -0.132812,-0.03906 -0.199218,-0.04687 -0.132813,-0.01563 -0.253906,0.07813 -0.273438,0.210937 0,0.0039 0,0.01172 0,0.01953 -0.00391,0.02344 -0.011718,0.05078 -0.027344,0.07031 -0.050781,0.0625 -0.082031,0.132813 -0.101562,0.210937 -0.039062,0.167969 -0.015625,0.34375 0.066406,0.492188 0.0625,0.125 0.171875,0.222656 0.300782,0.273438 0.089843,0.03906 0.199218,0.01562 0.261718,-0.0625 0.035156,-0.04297 0.074219,-0.07813 0.117188,-0.113282 0.03125,-0.02344 0.066406,-0.04297 0.097656,-0.06641 0.140625,-0.01563 0.277344,0.01172 0.398438,0.08594 0.222656,0.132812 0.457031,0.246093 0.695312,0.339843 0.21875,0.08203 0.425781,0.203125 0.605469,0.355469 0.03906,0.03125 0.07422,0.0625 0.113281,0.09766 0.09766,0.09766 0.164062,0.226563 0.183594,0.363282 0.04297,0.289062 0.117187,0.574218 0.21875,0.847656 0.117187,0.308594 0.238281,0.617187 0.363281,0.921875 0.05469,0.140625 0.125,0.277343 0.210937,0.40625 0.06641,0.101562 0.05469,0.242187 -0.03906,0.328125 -0.06641,0.06641 -0.140625,0.128906 -0.21875,0.1875 -0.105469,0.07813 -0.234375,0.113281 -0.363281,0.09766 -0.132813,-0.01953 -0.265625,-0.03125 -0.402344,-0.04687 -0.125,-0.01172 -0.25,-0.04687 -0.367187,-0.09766 -0.08594,-0.03906 -0.175782,-0.05859 -0.269532,-0.05469 -0.07031,0 -0.140625,0.01953 -0.199218,0.05859 -0.03516,0.02344 -0.04297,0.0625 -0.02734,0.09766 0.08203,0.175781 0.199218,0.332031 0.347656,0.460938 0.09375,0.08203 0.203125,0.144531 0.320312,0.183593 0.203126,0.07031 0.417969,0.105469 0.636719,0.113282 0.105469,0 0.214844,0.0078 0.320313,0.02734 0.08594,0.01172 0.171875,0.02734 0.253906,0.04687 0.3125,0.06641 0.636719,0.07422 0.953125,0.02344 0.152344,-0.02734 0.285156,-0.121094 0.359375,-0.253906 0.08594,-0.152344 0.125,-0.328125 0.109375,-0.503906 -0.0078,-0.109376 -0.04297,-0.214844 -0.09375,-0.3125 -0.06641,-0.121094 -0.183594,-0.207032 -0.320313,-0.234376 -0.148437,-0.02734 -0.285156,-0.09375 -0.402343,-0.191406 -0.07422,-0.0625 -0.125,-0.148437 -0.144531,-0.246094 -0.01563,-0.06641 -0.01953,-0.136718 -0.01172,-0.210937 0.0039,-0.07031 -0.0078,-0.144531 -0.03125,-0.210937 -0.01953,-0.0625 -0.05469,-0.113282 -0.101563,-0.160157 -0.0625,-0.05859 -0.08594,-0.140625 -0.07422,-0.222656 0.02734,-0.132813 0.06641,-0.261719 0.117187,-0.386719 0.03906,-0.09766 0.148437,-0.148437 0.246094,-0.113281 0.160156,0.05469 0.320312,0.105469 0.484375,0.148437 0.246094,0.0625 0.484375,0.152344 0.710937,0.261719 0.04297,0.02344 0.07031,0.07031 0.06641,0.117188 -0.01172,0.08203 -0.03125,0.164062 -0.0625,0.242187 -0.05078,0.117188 -0.109376,0.226563 -0.175782,0.332032 -0.04297,0.06641 -0.105468,0.121093 -0.175781,0.152343 -0.05859,0.02734 -0.08984,0.08594 -0.08594,0.148438 0.0039,0.05469 0.03516,0.101562 0.08203,0.132812 0.08594,0.05469 0.1875,0.08594 0.292969,0.08984 0.136718,0.0039 0.269531,-0.03125 0.390624,-0.09375 0.08203,-0.04687 0.148438,-0.113281 0.199219,-0.195313 0.04297,-0.07422 0.05078,-0.164062 0.01953,-0.242187 -0.02344,-0.05469 -0.02734,-0.113281 -0.01562,-0.167969 0.01172,-0.05469 0.04297,-0.105468 0.08984,-0.136718 0.06641,-0.04688 0.152344,-0.05078 0.222657,-0.0039 0.101562,0.06641 0.210937,0.125 0.328124,0.171875 0.210938,0.08594 0.421876,0.175782 0.628907,0.277344 0.230469,0.113281 0.476562,0.183594 0.730469,0.21875 0.195312,0.02344 0.382812,0.07422 0.566406,0.148438 0.191406,0.07422 0.390625,0.125 0.597656,0.144531 0.08594,0.01172 0.171875,0.01172 0.253906,0 0.05078,-0.0039 0.08984,-0.05078 0.08203,-0.101563 0,-0.01953 -0.01172,-0.04297 -0.02734,-0.05859 -0.09375,-0.08984 -0.203125,-0.164062 -0.320313,-0.21875"
       id="path27" />
    <path
       style="fill:#ffffff;fill-opacity:1;fill-rule:nonzero;stroke:none"
       d="m 29.320312,24.003906 c -0.01562,-0.08203 0.02344,-0.167968 0.09766,-0.207031 0.05469,-0.03125 0.121093,-0.03516 0.179687,-0.0078 0.06641,0.03125 0.105469,0.09766 0.113282,0.167969 0.0039,0.109375 0,0.21875 -0.01563,0.328125 -0.01562,0.109375 -0.01953,0.21875 -0.0078,0.328125 0.0039,0.05078 -0.02734,0.09375 -0.07031,0.113281 -0.08984,0.03125 -0.171876,0.07422 -0.25,0.125 -0.03516,0.02734 -0.07422,0.05469 -0.105469,0.08594 -0.02734,0.01953 -0.05859,0.01563 -0.07422,-0.0078 -0.01172,-0.02344 -0.01953,-0.04688 -0.01953,-0.07422 -0.02734,-0.175781 0.0039,-0.359375 0.09375,-0.515625 0.0625,-0.101563 0.08203,-0.21875 0.05859,-0.335938 m 3.097657,0.484375 c -0.207031,0.152344 -0.40625,0.320313 -0.589844,0.496094 -0.175781,0.167969 -0.367187,0.324219 -0.5625,0.464844 -0.128906,0.09375 -0.253906,0.1875 -0.371094,0.292969 -0.128906,0.113281 -0.28125,0.203124 -0.445312,0.261718 -0.230469,0.08203 -0.472657,0.136719 -0.71875,0.15625 -0.144531,0.01172 -0.292969,0.0039 -0.4375,-0.01953 -0.03125,-0.0078 -0.0625,-0.01953 -0.08984,-0.03906 -0.101563,-0.07031 -0.125,-0.210937 -0.05469,-0.3125 0.113281,-0.160156 0.257812,-0.296874 0.429687,-0.398437 0.128906,-0.07813 0.261719,-0.160156 0.394531,-0.242187 0.21875,-0.136719 0.414063,-0.3125 0.5625,-0.523438 0.08594,-0.117188 0.09766,-0.277344 0.03125,-0.40625 -0.06641,-0.125 -0.136718,-0.242188 -0.214844,-0.359375 -0.125,-0.1875 -0.261718,-0.359375 -0.417968,-0.523437 -0.09766,-0.105469 -0.140625,-0.253907 -0.113282,-0.398438 0.01953,-0.113281 0.03125,-0.234375 0.02734,-0.347656 -0.0039,-0.09766 0.04687,-0.183594 0.125,-0.234375 0.08203,-0.05078 0.15625,-0.117188 0.214844,-0.195313 0.09375,-0.121094 0.152344,-0.269531 0.164062,-0.425781 0.0078,-0.08984 -0.0078,-0.179687 -0.04687,-0.261719 C 30.25,21.359375 30.125,21.300781 30.003906,21.328125 c -0.160156,0.03516 -0.3125,0.07813 -0.464844,0.125 -0.171874,0.05469 -0.296874,0.195313 -0.332031,0.367187 -0.02344,0.117188 -0.05078,0.230469 -0.08594,0.339844 -0.01172,0.03906 -0.04687,0.06641 -0.08984,0.07031 -0.07031,0.0039 -0.128906,0.06641 -0.125,0.136719 0.0039,0.02734 0.01172,0.05469 0.03125,0.07422 0.08984,0.117188 0.15625,0.25 0.203125,0.390625 0.04687,0.152344 0.04297,0.3125 -0.01172,0.464844 -0.04687,0.125 -0.128906,0.234375 -0.242187,0.308594 -0.05078,0.03516 -0.113281,0.05859 -0.175781,0.07031 -0.01563,0 -0.03516,0 -0.05078,-0.0039 -0.08594,-0.01563 -0.140625,-0.09766 -0.121094,-0.179687 0.02734,-0.140626 0.07422,-0.273438 0.144532,-0.398438 0.07422,-0.136719 0.101562,-0.292969 0.07813,-0.449219 -0.03125,-0.183593 -0.117188,-0.351562 -0.253907,-0.484375 -0.160156,-0.15625 -0.3125,-0.324218 -0.445312,-0.503906 -0.03906,-0.05078 -0.101562,-0.08203 -0.167969,-0.08203 -0.08984,0 -0.179687,-0.03125 -0.25,-0.08594 C 27.496101,21.371096 27.359382,21.24219 27.238288,21.097658 27.152344,21 27.109375,20.871094 27.128906,20.738281 c 0.01172,-0.06641 -0.03516,-0.132812 -0.105468,-0.144531 -0.15625,-0.02344 -0.3125,0.05469 -0.386719,0.195312 -0.04687,0.08594 -0.136719,0.144532 -0.234375,0.15625 -0.25,0.01953 -0.5,0.0039 -0.746094,-0.05078 -0.05859,-0.01172 -0.09766,-0.06641 -0.08984,-0.125 C 25.476562,20.621094 25.464844,20.4375 25.53125,20.277344 25.589844,20.136719 25.65625,20 25.734375,19.867188 25.910156,19.5625 26.078125,19.25 26.238281,18.9375 c 0.125,-0.25 0.300781,-0.472656 0.511719,-0.652344 0.148438,-0.125 0.316406,-0.230468 0.492188,-0.308594 0.144531,-0.06641 0.3125,-0.07031 0.460937,-0.01172 0.07031,0.03125 0.136719,0.07422 0.191406,0.128906 0.171875,0.171875 0.367188,0.3125 0.585938,0.425781 0.28125,0.144531 0.535156,0.34375 0.746093,0.582031 0.210938,0.238282 0.414063,0.476563 0.621094,0.71875 0.1875,0.21875 0.328125,0.472657 0.417969,0.746094 0.05469,0.171875 0.144531,0.328125 0.261719,0.464844 0.257812,0.304688 0.476562,0.640625 0.648437,1 0.03906,0.08203 0.07422,0.167969 0.109375,0.253906 0.05859,0.164063 0.144532,0.324219 0.25,0.464844 0.222656,0.300781 0.464844,0.589844 0.71875,0.863281 0.15625,0.167969 0.257813,0.382813 0.28125,0.613281 0.01172,0.101563 -0.03125,0.203126 -0.117187,0.261719 m -5.046875,-2.496093 c -0.05859,0.03516 -0.125,0.05859 -0.191406,0.06641 -0.02734,0.0039 -0.05859,-0.0039 -0.07422,-0.02734 -0.03906,-0.06641 -0.05078,-0.144531 -0.02344,-0.21875 0.03125,-0.09375 0.113281,-0.160156 0.210938,-0.171875 0.05469,-0.0078 0.109375,0.01953 0.136719,0.06641 0.02734,0.04687 0.03906,0.101563 0.02734,0.152344 -0.01172,0.05469 -0.04297,0.101563 -0.08594,0.132813 m 0.285156,2.0625 c -0.0039,0.04297 -0.0078,0.08203 -0.01172,0.125 0,0.05469 -0.03125,0.105468 -0.07813,0.136718 -0.03906,0.02734 -0.08984,0.03516 -0.136718,0.02344 -0.02344,-0.0078 -0.04688,-0.01953 -0.0625,-0.03516 -0.02344,-0.01953 -0.03125,-0.04688 -0.02344,-0.07422 0.02344,-0.07031 0.02734,-0.144531 0.01172,-0.214844 -0.01172,-0.05859 0.01172,-0.117187 0.05859,-0.152344 0.05078,-0.03516 0.113282,-0.03516 0.164063,0 0.0625,0.04297 0.09375,0.117188 0.07813,0.191407 m 0.03906,-1.414063 c -0.01562,-0.05859 0.0078,-0.121094 0.05469,-0.15625 0.03516,-0.02734 0.08203,-0.03906 0.125,-0.02734 0.03125,0.0078 0.0625,0.01953 0.08984,0.03906 0.06641,0.04687 0.121094,0.109375 0.15625,0.183594 0.03516,0.06641 0.05859,0.140624 0.07031,0.21875 0.01563,0.105468 0,0.214843 -0.05078,0.308593 -0.02734,0.05078 -0.0625,0.09375 -0.113281,0.121094 0,0 0,0.0039 -0.0039,0.0039 -0.105469,0.0625 -0.238282,0.02734 -0.300782,-0.07813 -0.03906,-0.06641 -0.07813,-0.136718 -0.113281,-0.207031 -0.01953,-0.05078 -0.01563,-0.105469 0.01953,-0.144531 0.06641,-0.07031 0.08984,-0.167969 0.06641,-0.261719 m 0.988282,1.921875 c -0.04297,0.04297 -0.07813,0.09766 -0.101563,0.15625 -0.05078,0.136719 -0.06641,0.289062 -0.04297,0.4375 0.02734,0.160156 0.05078,0.320312 0.07031,0.480469 0.0078,0.08203 0.0039,0.167969 -0.01953,0.25 -0.01172,0.04687 -0.04297,0.08203 -0.08594,0.101562 -0.07422,0.03516 -0.160156,0.03125 -0.230468,-0.01563 -0.171876,-0.113281 -0.355469,-0.199218 -0.550782,-0.257812 -0.242187,-0.07422 -0.460937,-0.210938 -0.636718,-0.394532 -0.277344,-0.300781 -0.5625,-0.589843 -0.859376,-0.871093 -0.207031,-0.195313 -0.402343,-0.40625 -0.582031,-0.625 -0.05469,-0.06641 -0.105469,-0.136719 -0.148437,-0.207031 -0.06641,-0.109376 -0.08203,-0.238282 -0.04297,-0.359376 0.05469,-0.175781 0.07422,-0.355468 0.05078,-0.535156 -0.01172,-0.105468 -0.01563,-0.210937 -0.01563,-0.316406 0,-0.07031 -0.04297,-0.136719 -0.109375,-0.160156 -0.07422,-0.21875 -0.121094,-0.449219 -0.136718,-0.679688 -0.0039,-0.08984 0.01953,-0.175781 0.07031,-0.25 0.0039,-0.0039 0.0078,-0.01172 0.01563,-0.01563 0.02344,-0.01563 0.0625,-0.0078 0.07813,0.01563 0.05078,0.07031 0.07813,0.15625 0.08594,0.242188 0.01172,0.125 0.01953,0.25 0.02734,0.375 0.0039,0.07031 0.0039,0.136718 0.0078,0.207031 0,0.04297 0.03125,0.08203 0.07813,0.09375 0.09375,0.02344 0.195312,0.01563 0.289062,-0.01563 0.03906,-0.01563 0.08594,-0.01172 0.121094,0.01563 0.148437,0.109375 0.273437,0.253906 0.359375,0.417969 0.04687,0.09375 0.05859,0.203125 0.02734,0.300781 -0.01953,0.05859 -0.05859,0.109375 -0.113282,0.136719 -0.06641,0.03906 -0.101562,0.113281 -0.08594,0.1875 0.01172,0.05078 0.03906,0.09375 0.07813,0.121094 0.0625,0.04687 0.113281,0.113281 0.144531,0.1875 0.01172,0.03516 0.05078,0.05078 0.08203,0.03906 0.05859,-0.02734 0.125,-0.03125 0.183594,-0.0078 0.08203,0.03516 0.152344,0.09375 0.199219,0.171874 0.01563,0.02734 0.03906,0.04688 0.06641,0.05859 0.08984,0.03906 0.132813,0.136719 0.105469,0.226563 -0.03125,0.08594 -0.05859,0.175781 -0.08594,0.265625 -0.02734,0.08594 -0.04687,0.175781 -0.05469,0.265625 0,0.04297 0.0039,0.08594 0.01953,0.128906 0.02344,0.06641 0.07813,0.117187 0.144532,0.136719 0.08203,0.02344 0.160156,0.06641 0.226562,0.121094 0.08984,0.07812 0.21875,0.101562 0.332031,0.05859 0.08594,-0.03125 0.175781,-0.04297 0.269531,-0.04297 0.09766,0.0039 0.179688,-0.07031 0.1875,-0.171874 0.0078,-0.160157 0.03906,-0.316407 0.08594,-0.472657 0.02734,-0.09375 0.08594,-0.175781 0.164062,-0.238281 0.0625,-0.05469 0.148438,-0.07422 0.230469,-0.05078 0.05859,0.01172 0.109375,0.03906 0.15625,0.07422 0.05859,0.05078 0.08594,0.132812 0.06641,0.207031 -0.01953,0.07813 -0.05859,0.152343 -0.121094,0.207031 m 4.34375,-0.800781 c -0.378906,-0.605469 -0.800782,-1.175781 -1.265625,-1.714844 -0.234375,-0.273437 -0.425781,-0.578125 -0.566407,-0.90625 -0.07812,-0.183594 -0.171874,-0.359375 -0.28125,-0.527344 -0.15625,-0.234375 -0.320312,-0.460937 -0.496093,-0.683593 -0.328125,-0.414063 -0.621094,-0.851563 -0.875,-1.316407 -0.117188,-0.207031 -0.277344,-0.386719 -0.46875,-0.523437 -0.222657,-0.160156 -0.429688,-0.34375 -0.613281,-0.542969 -0.08203,-0.08594 -0.195313,-0.128906 -0.308594,-0.117187 -0.175782,0.01562 -0.359375,-0.0039 -0.527344,-0.05859 -0.226562,-0.07422 -0.476562,-0.03516 -0.671875,0.101562 C 26.691406,17.65625 26.457031,17.875 26.25,18.117188 c -0.179688,0.210937 -0.347656,0.421874 -0.511719,0.644531 -0.195312,0.261719 -0.378906,0.535156 -0.542969,0.820312 -0.101562,0.175781 -0.171874,0.371094 -0.203124,0.570313 -0.05859,0.351562 -0.121094,0.703125 -0.191407,1.054687 -0.07422,0.378907 -0.09375,0.769531 -0.05859,1.15625 0.01953,0.214844 0.07031,0.429688 0.148437,0.632813 0.121094,0.320312 0.28125,0.625 0.480469,0.90625 0.175781,0.246094 0.351562,0.488281 0.527344,0.730468 0.265624,0.367188 0.527343,0.734376 0.777343,1.113282 0.171875,0.261718 0.285157,0.558594 0.324219,0.871094 0.02734,0.214843 0.07813,0.421874 0.148438,0.625 0.01562,0.05078 0.01172,0.105468 -0.0078,0.15625 -0.01172,0.02734 -0.03906,0.05078 -0.06641,0.05078 -0.03516,0.0039 -0.07031,-0.01172 -0.08984,-0.04297 -0.03516,-0.05859 -0.06641,-0.113281 -0.101563,-0.175781 -0.117187,-0.203125 -0.238281,-0.40625 -0.363281,-0.609375 -0.132812,-0.214844 -0.25,-0.445313 -0.347656,-0.683594 -0.07031,-0.164062 -0.15625,-0.320312 -0.261719,-0.464844 -0.05078,-0.06641 -0.05859,-0.152344 -0.02734,-0.230468 0.01563,-0.04688 0.01172,-0.101563 -0.01562,-0.144532 -0.05859,-0.08984 -0.121094,-0.171875 -0.1875,-0.25 -0.117188,-0.128906 -0.214844,-0.269531 -0.292969,-0.421875 -0.128907,-0.246093 -0.277344,-0.484375 -0.4375,-0.710937 -0.132813,-0.191406 -0.261719,-0.390625 -0.375,-0.59375 -0.03516,-0.0625 -0.05859,-0.125 -0.07422,-0.195313 -0.03516,-0.195312 -0.179688,-0.351562 -0.375,-0.40625 -0.02734,-0.0078 -0.05859,0.0078 -0.07031,0.03906 0,0.0078 0,0.01563 0,0.02344 0.02734,0.191407 0.09766,0.375 0.199218,0.535157 0.05469,0.08594 0.105469,0.171874 0.15625,0.257812 0.183594,0.304688 0.351563,0.617188 0.507813,0.933594 0.296875,0.617187 0.617187,1.21875 0.949219,1.816406 0.3125,0.550781 0.617187,1.105469 0.914062,1.664062 0.136719,0.253907 0.324219,0.476563 0.554688,0.652344 0.08984,0.07031 0.1875,0.125 0.292968,0.164063 0.07813,0.02734 0.164063,-0.0078 0.195313,-0.08203 0.08203,-0.183594 0.09375,-0.390626 0.02734,-0.578126 -0.03516,-0.101562 -0.07422,-0.203124 -0.117187,-0.304687 -0.02344,-0.0625 -0.04687,-0.128906 -0.0625,-0.195313 -0.02734,-0.101562 -0.05078,-0.207031 -0.07422,-0.308593 -0.07031,-0.332031 -0.15625,-0.65625 -0.257812,-0.976563 -0.03516,-0.105468 -0.0625,-0.214844 -0.08594,-0.324218 -0.0078,-0.02734 0.01172,-0.05859 0.03906,-0.06641 0.03906,-0.01172 0.08203,0 0.113281,0.03125 0.02734,0.03125 0.05469,0.05859 0.08594,0.08594 0.117187,0.101562 0.246093,0.195312 0.382812,0.277343 0.246094,0.148438 0.511719,0.253907 0.792969,0.308594 0.355469,0.07422 0.714843,0.109375 1.074219,0.105469 0.367187,-0.0039 0.734374,-0.05078 1.089843,-0.132813 0.304688,-0.07031 0.585938,-0.222656 0.8125,-0.441406 0.25,-0.242187 0.539063,-0.441406 0.851563,-0.589844 0.15625,-0.07422 0.304687,-0.15625 0.441406,-0.253906 0.164062,-0.117187 0.304688,-0.261718 0.414062,-0.429687 0.07813,-0.121094 0.109376,-0.265625 0.08984,-0.410157 -0.01172,-0.07422 -0.05078,-0.140624 -0.105468,-0.191406 -0.117188,-0.109375 -0.222657,-0.230468 -0.308594,-0.367187"
       id="path28" />
    <path
       style="fill:#ffffff;fill-opacity:1;fill-rule:nonzero;stroke:none"
       d="m 50.820312,14.382812 c 0.121094,-0.03125 0.230469,-0.101562 0.3125,-0.195312 0.08203,-0.101562 0.175782,-0.195312 0.28125,-0.273438 0.05859,-0.05078 0.09375,-0.121093 0.09766,-0.199218 0,-0.05859 -0.03516,-0.113282 -0.08984,-0.128906 C 51.359375,13.566406 51.300781,13.535156 51.246094,13.5 51.125,13.421875 51,13.355469 50.863281,13.304688 c -0.105469,-0.04297 -0.214843,-0.08594 -0.320312,-0.128907 -0.05859,-0.02344 -0.125,-0.0039 -0.160157,0.05078 -0.04297,0.07422 -0.08594,0.148438 -0.128906,0.222657 -0.05078,0.08984 -0.05469,0.199219 -0.01563,0.292969 0.01563,0.03516 0.01563,0.07422 0,0.109374 -0.03516,0.08203 -0.09766,0.15625 -0.171875,0.210938 -0.0625,0.04297 -0.128906,0.07422 -0.199218,0.09766 -0.113282,0.03906 -0.234376,0.05078 -0.355469,0.03906 -0.203125,-0.02344 -0.40625,-0.01953 -0.609375,0.0078 -0.07422,0.01172 -0.152344,-0.0078 -0.21875,-0.04687 -0.05469,-0.03125 -0.08203,-0.09766 -0.06641,-0.15625 0.01562,-0.07813 0.05469,-0.148437 0.113281,-0.199218 0.07422,-0.06641 0.144531,-0.136719 0.21875,-0.203126 0.277343,-0.265624 0.523437,-0.558593 0.730469,-0.882812 0.07812,-0.125 0.191406,-0.222656 0.324218,-0.285156 0.164063,-0.07422 0.300782,-0.199219 0.386719,-0.355469 0.05469,-0.09766 0.101563,-0.199219 0.136719,-0.304687 0.05078,-0.144532 0.175781,-0.25 0.328125,-0.28125 0.1875,-0.03125 0.367187,-0.101563 0.53125,-0.203126 0.05859,-0.03516 0.08984,-0.09766 0.08984,-0.164062 0,-0.07813 -0.03906,-0.152344 -0.09766,-0.199219 -0.08594,-0.06641 -0.164062,-0.144531 -0.234375,-0.226562 -0.101562,-0.121094 -0.234375,-0.214844 -0.378906,-0.265625 -0.08594,-0.03125 -0.179687,-0.03125 -0.261719,0 -0.08594,0.02734 -0.160156,0.08594 -0.210937,0.15625 -0.06641,0.09766 -0.08984,0.214844 -0.06641,0.328125 0.03516,0.179687 -0.02734,0.367187 -0.160156,0.492187 -0.136718,0.117188 -0.261718,0.246094 -0.378906,0.382813 -0.242188,0.292969 -0.484375,0.582031 -0.726562,0.875 -0.210938,0.25 -0.421876,0.5 -0.636719,0.75 -0.152344,0.179687 -0.339844,0.328125 -0.550781,0.433593 -0.08594,0.04688 -0.140626,0.136719 -0.136719,0.234376 0.0039,0.113281 -0.0039,0.222656 -0.02344,0.332031 -0.01172,0.0625 -0.02734,0.121093 -0.05469,0.183593 -0.04687,0.105469 -0.03125,0.234376 0.03906,0.328126 0.05859,0.07812 0.167969,0.101562 0.253906,0.05469 0.07813,-0.04687 0.140626,-0.125 0.160157,-0.214844 0.01563,-0.05859 0.0625,-0.101562 0.121093,-0.109375 0.09766,-0.0078 0.191407,-0.0078 0.285157,0 0.328125,0.03516 0.660156,0.03516 0.988281,0 0.05078,-0.0039 0.101562,0.0078 0.144531,0.03906 0.0625,0.04297 0.128907,0.07813 0.199219,0.109375 0.05469,0.01953 0.09766,0.07031 0.109375,0.128906 0.0078,0.05469 0.01953,0.105469 0.03125,0.160156 0.03906,0.214844 0.03125,0.4375 -0.02344,0.652344 -0.03125,0.101562 -0.07813,0.199219 -0.148438,0.28125 -0.06641,0.08594 -0.144531,0.167969 -0.21875,0.246094 -0.01172,0.01172 -0.02734,0.01953 -0.03906,0.02734 -0.08984,0.05469 -0.203126,0.02344 -0.253907,-0.06641 -0.05078,-0.08594 -0.08203,-0.175781 -0.101562,-0.273437 -0.01953,-0.117188 -0.01563,-0.238282 0.0078,-0.355469 0.01563,-0.07031 0,-0.140625 -0.04297,-0.195313 C 49.042969,15.378906 49,15.375 48.96875,15.398438 c -0.0039,0.0039 -0.0039,0.0039 -0.0078,0.0078 -0.03125,0.03125 -0.06641,0.0625 -0.09766,0.09766 -0.09766,0.101563 -0.1875,0.210938 -0.261719,0.328125 -0.05859,0.09375 -0.152343,0.160157 -0.261718,0.183594 -0.105469,0.02734 -0.195313,0.105469 -0.234375,0.207031 -0.06641,0.175782 -0.08594,0.363282 -0.04687,0.542969 0.02734,0.148437 0.01172,0.300781 -0.04687,0.4375 -0.05078,0.113281 -0.03906,0.242187 0.03125,0.34375 0.05078,0.07813 0.125,0.136719 0.214843,0.164063 0.132813,0.03906 0.277344,-0.01172 0.351563,-0.132813 0.05859,-0.09375 0.121094,-0.1875 0.183594,-0.28125 0.04687,-0.07422 0.113281,-0.132813 0.191406,-0.167969 0.08203,-0.04297 0.15625,-0.09766 0.214844,-0.167968 0.07031,-0.08594 0.164062,-0.144532 0.269531,-0.171876 0.06641,-0.01562 0.140625,-0.01172 0.207031,0.01563 0.05469,0.02344 0.101563,0.07422 0.121094,0.132812 0.05859,0.164062 0.09375,0.335938 0.105469,0.511719 0.01172,0.140625 0.04297,0.277343 0.09375,0.40625 0.04687,0.117187 0.136718,0.210937 0.253906,0.261719 0.109375,0.04687 0.230469,0.07031 0.351562,0.07422 0.101563,0.0039 0.195313,-0.0625 0.230469,-0.160156 0.04687,-0.144531 0.05078,-0.300781 0.0078,-0.445312 -0.04687,-0.152344 -0.08984,-0.304688 -0.125,-0.457032 -0.05078,-0.214844 -0.08984,-0.433594 -0.113282,-0.652344 -0.02734,-0.238281 0.0078,-0.480468 0.113282,-0.699218 0.04687,-0.105469 0.101562,-0.210938 0.15625,-0.3125 0.07813,-0.136719 0.183594,-0.253906 0.3125,-0.34375 0.105468,-0.07031 0.164062,-0.1875 0.160156,-0.3125 0,-0.05469 -0.03125,-0.109375 -0.08203,-0.136719 -0.08203,-0.04297 -0.179688,-0.02734 -0.246094,0.03906 -0.05469,0.05859 -0.101563,0.128906 -0.136719,0.207031 0,0.0039 -0.0039,0.0078 -0.0078,0.01172 -0.04297,0.08594 -0.152344,0.117187 -0.234375,0.07031 -0.05078,-0.02734 -0.07422,-0.08203 -0.0625,-0.136719 0.02344,-0.09766 0.04687,-0.199219 0.07031,-0.296875 0.01953,-0.08984 0.08594,-0.160156 0.175781,-0.183594"
       id="path29" />
    <path
       style="fill:#ffffff;fill-opacity:1;fill-rule:nonzero;stroke:none"
       d="m 53.699219,13.96875 c -0.0039,0.03125 -0.01953,0.0625 -0.04687,0.07813 -0.02344,0.01953 -0.05859,0.01563 -0.08203,-0.0078 -0.05859,-0.05859 -0.09766,-0.132812 -0.113281,-0.214843 -0.05859,-0.105469 -0.101562,-0.21875 -0.128906,-0.335938 -0.0039,-0.03125 -0.01953,-0.05469 -0.03906,-0.07813 -0.05078,-0.0625 -0.09375,-0.132812 -0.125,-0.210937 -0.02344,-0.05859 -0.01953,-0.125 0.01953,-0.179688 0.02344,-0.03906 0.04297,-0.07813 0.05469,-0.125 0.02344,-0.08203 0.05078,-0.15625 0.08984,-0.230469 0.04297,-0.07422 0.101563,-0.132812 0.179687,-0.171874 0.04688,-0.02344 0.09766,-0.02734 0.144532,-0.01953 0.03125,0.0078 0.05469,0.03125 0.05859,0.0625 0.04297,0.480469 0.03906,0.960938 -0.01172,1.433594 m -0.214844,0.535156 c -0.01563,0.117188 -0.01172,0.238282 0.0078,0.359375 0.01562,0.07422 0.0078,0.15625 -0.01172,0.230469 -0.02734,0.08594 -0.109375,0.144531 -0.199219,0.136719 -0.06641,-0.0039 -0.132812,-0.0039 -0.199219,0 -0.08203,0.0039 -0.167969,0.01172 -0.25,0.01563 -0.0625,0.0039 -0.117187,0.05078 -0.125,0.113281 -0.0078,0.05078 -0.01172,0.101563 -0.0078,0.152344 v 0.0039 c 0,0.03125 -0.02344,0.05469 -0.05469,0.05469 -0.04297,0 -0.08203,-0.0078 -0.121093,-0.01953 -0.01953,-0.0078 -0.03125,-0.02734 -0.02734,-0.05078 0.0078,-0.05078 0,-0.105469 -0.02734,-0.152344 -0.01563,-0.02344 -0.01563,-0.05078 0.0039,-0.07031 0.02344,-0.02734 0.04687,-0.05469 0.07031,-0.07813 0.09766,-0.105469 0.195312,-0.210938 0.292969,-0.320313 0.132812,-0.152344 0.238281,-0.324218 0.3125,-0.515625 0.03906,-0.09766 0.109374,-0.179687 0.195312,-0.238281 0.03516,-0.02344 0.08203,-0.02734 0.117188,-0.0039 0.02344,0.01172 0.03906,0.03516 0.04687,0.0625 0.0078,0.03125 0.0078,0.06641 0.0039,0.09766 -0.01172,0.07422 -0.01953,0.148438 -0.02734,0.222656 m 1.910156,-0.04687 c -0.128906,-0.152343 -0.257812,-0.300781 -0.386719,-0.453125 -0.04687,-0.05078 -0.07031,-0.113281 -0.07422,-0.179687 -0.01172,-0.148438 -0.01172,-0.296875 0,-0.445313 0.0078,-0.125 0.02344,-0.246094 0.05078,-0.371094 0.03906,-0.210937 0.07031,-0.421874 0.09766,-0.636718 0.01563,-0.140625 0.02344,-0.285156 0.02344,-0.425782 0,-0.117187 0,-0.230468 0,-0.347656 0.0039,-0.08984 -0.06641,-0.164062 -0.15625,-0.171875 -0.05078,-0.0039 -0.101563,-0.01953 -0.144531,-0.05078 -0.04297,-0.02344 -0.07031,-0.06641 -0.08203,-0.117188 -0.01953,-0.08984 -0.02734,-0.1875 -0.01172,-0.28125 0.01172,-0.08984 -0.03125,-0.171874 -0.109376,-0.214843 -0.08594,-0.04297 -0.191406,-0.01563 -0.242187,0.07031 -0.03906,0.07422 -0.101563,0.136719 -0.179687,0.179688 -0.06641,0.03906 -0.136719,0.07422 -0.207032,0.109375 -0.05078,0.01953 -0.101562,0.03906 -0.152344,0.05859 -0.07031,0.01953 -0.132812,0.0625 -0.171874,0.125 -0.03125,0.04297 -0.05469,0.08984 -0.07422,0.136718 -0.02344,0.05859 -0.04297,0.121094 -0.05078,0.183594 -0.01172,0.08594 -0.07031,0.15625 -0.148438,0.1875 -0.08203,0.03125 -0.175781,0.03516 -0.261719,0.01172 -0.05469,-0.01563 -0.109375,-0.04687 -0.148437,-0.08984 -0.01563,-0.01953 -0.02344,-0.04297 -0.01563,-0.07031 0.01172,-0.02734 0.0078,-0.05859 -0.01172,-0.08594 -0.01953,-0.02734 -0.05078,-0.04297 -0.08203,-0.04297 -0.07031,0.0039 -0.140625,-0.0039 -0.203125,-0.02344 -0.05859,-0.01953 -0.125,-0.0039 -0.167969,0.03906 -0.02734,0.02734 -0.04687,0.05859 -0.06641,0.08984 -0.04687,0.08594 -0.03906,0.1875 0.01953,0.265625 0.109375,0.140625 0.207031,0.289062 0.292969,0.441406 0.01563,0.03516 0.01953,0.07031 0.02344,0.105469 0.0039,0.05078 0,0.105469 -0.01953,0.15625 -0.03125,0.07422 -0.0625,0.148437 -0.09766,0.21875 -0.0625,0.132813 -0.183594,0.230469 -0.328125,0.265625 -0.0625,0.01172 -0.101563,0.07813 -0.08984,0.140625 0.0039,0.0078 0.0078,0.01563 0.0078,0.02344 0.03125,0.07031 0.05078,0.148438 0.05078,0.226563 0.0039,0.109375 0.01563,0.214844 0.04297,0.320313 0.02734,0.121093 0.07031,0.234374 0.125,0.34375 0.02734,0.04687 0.01953,0.109374 -0.01562,0.148437 -0.109376,0.136719 -0.195313,0.285156 -0.253907,0.449219 -0.0625,0.164062 -0.164062,0.3125 -0.292969,0.429687 -0.07812,0.07422 -0.136718,0.164063 -0.171874,0.265625 -0.03125,0.08984 -0.05859,0.183594 -0.08203,0.273438 -0.03516,0.132812 -0.08203,0.261718 -0.140625,0.382812 -0.06641,0.128906 -0.07813,0.277344 -0.03516,0.414063 0.01563,0.05859 0.04687,0.109375 0.08984,0.152343 0.07031,0.06641 0.171875,0.08984 0.265625,0.06641 0.101562,-0.03125 0.191406,-0.08984 0.257812,-0.167969 0.101563,-0.117188 0.21875,-0.222656 0.347656,-0.308594 0.05078,-0.03125 0.117188,-0.03906 0.171876,-0.01563 0.08594,0.03516 0.183593,0.01172 0.242187,-0.05469 0.05078,-0.0625 0.105469,-0.121094 0.164063,-0.175782 0.06641,-0.0625 0.140624,-0.121093 0.214843,-0.175781 0.05078,-0.03125 0.113281,-0.02734 0.160157,0.01172 0.03906,0.03125 0.07422,0.07422 0.09766,0.125 0.05469,0.101562 0.05078,0.226562 -0.0078,0.328125 -0.03516,0.0625 -0.05859,0.128906 -0.06641,0.199219 -0.01172,0.105468 -0.01172,0.210937 0,0.316406 0.01563,0.144531 0.01563,0.292969 -0.0078,0.4375 -0.01953,0.132812 -0.01953,0.265625 0,0.398438 0.07813,0.527343 0.08203,1.066406 0.0078,1.597656 -0.05078,0.371094 -0.07422,0.75 -0.06641,1.125 0,0.03125 0.02734,0.05859 0.05859,0.05469 0.0078,0 0.01953,0 0.02734,-0.0078 0.121094,-0.07031 0.207032,-0.191407 0.238282,-0.328125 0.05859,-0.265625 0.121093,-0.53125 0.179687,-0.796875 0.05469,-0.234375 0.128906,-0.464844 0.222656,-0.683594 0.191407,-0.449219 0.359375,-0.902344 0.503907,-1.367187 0.03516,-0.113282 0.04297,-0.230469 0.02344,-0.347657 -0.02734,-0.179687 -0.04297,-0.363281 -0.03906,-0.542969 0,-0.203124 0.03516,-0.40625 0.09766,-0.601562 0.02734,-0.08203 0.07422,-0.15625 0.140625,-0.214844 0.113281,-0.105468 0.25,-0.191406 0.394531,-0.246094 0.09375,-0.03906 0.175781,-0.101562 0.238281,-0.183593 0.03906,-0.05078 0.08594,-0.09375 0.140625,-0.128907 0.04687,-0.03516 0.07422,-0.08984 0.07422,-0.148437 -0.0039,-0.05859 -0.02344,-0.113281 -0.05859,-0.15625 -0.05469,-0.07422 -0.113281,-0.144531 -0.171875,-0.214844"
       id="path30" />
    <path
       style="fill:#ffffff;fill-opacity:1;fill-rule:nonzero;stroke:none"
       d="m 75.492188,18.597656 c 0.05469,0.144532 0.183593,0.253906 0.335937,0.28125 0.164063,0.02734 0.332031,0 0.472656,-0.08594 0.167969,-0.09766 0.296875,-0.253907 0.355469,-0.4375 0.0625,-0.183594 0.08594,-0.375 0.07813,-0.566407 -0.01563,-0.371093 0.01953,-0.742187 0.109375,-1.097656 0.01172,-0.04297 -0.0039,-0.08594 -0.03516,-0.109375 -0.03125,-0.02734 -0.07422,-0.02344 -0.101563,0.0039 -0.0039,0.0078 -0.0078,0.01172 -0.01172,0.01953 -0.398437,0.09766 -0.738281,0.359375 -0.933593,0.722656 -0.113281,0.214844 -0.226563,0.429687 -0.339844,0.644531 -0.04687,0.08984 -0.05859,0.191406 -0.03516,0.289063 0.03125,0.113281 0.06641,0.222656 0.105469,0.335937"
       id="path31" />
    <path
       style="fill:#ffffff;fill-opacity:1;fill-rule:nonzero;stroke:none"
       d="m 77.691406,19.476562 c -0.0039,0.07031 0.03906,0.128907 0.105469,0.148438 0.144531,0.03516 0.296875,0.01172 0.421875,-0.05859 0.09375,-0.05469 0.199219,-0.07813 0.304688,-0.07031 0.242187,0.01563 0.488281,0.02344 0.730468,0.02344 0.125,-0.0039 0.25,-0.0078 0.375,-0.01563 0.03125,0 0.05469,-0.02344 0.0625,-0.05469 0.01172,-0.0625 -0.01953,-0.125 -0.07031,-0.160157 -0.113282,-0.07031 -0.25,-0.101562 -0.382813,-0.08594 -0.167969,0.01953 -0.339843,-0.01953 -0.480469,-0.109375 -0.05078,-0.03125 -0.08203,-0.08203 -0.09375,-0.136719 -0.0078,-0.04687 -0.01172,-0.09766 -0.01172,-0.144531 0,-0.04687 -0.03906,-0.08203 -0.08203,-0.08203 -0.01172,0 -0.02344,0 -0.03516,0.0039 -0.04687,0.01953 -0.101562,0.0078 -0.132812,-0.03516 -0.01563,-0.02344 -0.02344,-0.05469 -0.01172,-0.08203 0,-0.101563 0.0078,-0.199219 0.02344,-0.296876 0.0078,-0.06641 -0.02344,-0.128906 -0.08203,-0.15625 -0.07031,-0.03516 -0.148437,-0.03125 -0.214843,0.0039 -0.08203,0.04687 -0.15625,0.105469 -0.214844,0.175781 -0.07422,0.08594 -0.140625,0.179688 -0.1875,0.285156 -0.05078,0.105469 -0.06641,0.222656 -0.04687,0.335938 0.02734,0.171875 0.03516,0.34375 0.02344,0.511718"
       id="path32" />
    <path
       style="fill:#ffffff;fill-opacity:1;fill-rule:nonzero;stroke:none"
       d="m 80.515625,20.253906 c 0.02734,-0.140625 0.02344,-0.285156 -0.01172,-0.421875 -0.02344,-0.08594 -0.09375,-0.144531 -0.179687,-0.152343 -0.0625,-0.0039 -0.105469,-0.05859 -0.101563,-0.121094 0.0039,-0.03906 -0.02344,-0.07422 -0.0625,-0.07813 -0.0078,0 -0.01563,0 -0.02344,0.0039 -0.117188,0.03125 -0.214844,0.113281 -0.265625,0.222656 -0.07031,0.15625 -0.175782,0.296875 -0.3125,0.40625 -0.08594,0.07031 -0.191406,0.109375 -0.304688,0.109375 -0.183594,0.0039 -0.367187,0.0039 -0.554687,0 -0.164063,0 -0.328125,-0.01953 -0.492188,-0.05859 -0.08984,-0.02344 -0.1875,-0.02734 -0.28125,-0.01172 -0.179687,0.02734 -0.359375,0.03516 -0.539062,0.02344 -0.367188,-0.02344 -0.734375,-0.07031 -1.09375,-0.136719 -0.109375,-0.01953 -0.214844,-0.05859 -0.316407,-0.109374 -0.128906,-0.0625 -0.269531,-0.101563 -0.410156,-0.113282 -0.152344,-0.01172 -0.296875,0.03125 -0.417968,0.121094 -0.06641,0.05078 -0.152344,0.0625 -0.234376,0.03516 -0.101562,-0.03516 -0.167968,-0.140625 -0.148437,-0.25 0.01172,-0.05078 0.01563,-0.105468 0.01172,-0.160156 0,-0.05469 -0.03516,-0.101562 -0.08203,-0.125 -0.07031,-0.03125 -0.140624,-0.05469 -0.210937,-0.06641 -0.07422,-0.01563 -0.144531,0.03516 -0.160156,0.105468 0,0.01172 0,0.01953 0,0.02734 0,0.04687 -0.03516,0.08203 -0.08203,0.08594 -0.03125,0 -0.0625,0.0039 -0.09766,0.0078 -0.03906,0.0039 -0.07813,-0.0078 -0.105469,-0.03516 -0.03516,-0.02734 -0.07031,-0.05859 -0.105468,-0.08594 -0.03125,-0.02344 -0.07422,-0.02344 -0.105469,-0.0078 -0.04687,0.02734 -0.08594,0.05859 -0.125,0.09375 -0.05859,0.0625 -0.121094,0.125 -0.183594,0.1875 -0.09375,0.09766 -0.136719,0.226562 -0.125,0.363281 -0.01172,0.05859 -0.04297,0.113281 -0.08203,0.15625 -0.07422,0.07422 -0.152344,0.148438 -0.226562,0.21875 -0.132813,0.121094 -0.238282,0.261719 -0.324219,0.417969 -0.05469,0.105469 -0.113281,0.214844 -0.167969,0.320312 -0.05859,0.109376 -0.01953,0.246094 0.08984,0.300782 0.01563,0.01172 0.03516,0.01563 0.05078,0.02344 0.08594,0.01953 0.171875,0.02344 0.253906,0.01172 0.101563,-0.01172 0.195313,-0.05859 0.269531,-0.128906 0.08594,-0.08984 0.199219,-0.148438 0.320313,-0.179688 0.101563,-0.02344 0.203125,-0.03906 0.308594,-0.04687 0.257812,-0.01953 0.496093,-0.160156 0.636719,-0.378906 0.101562,-0.152344 0.253906,-0.269531 0.429687,-0.320313 0.308594,-0.08984 0.632813,-0.105468 0.945313,-0.04297 0.25,0.05078 0.5,0.105468 0.75,0.160156 0.191406,0.04297 0.378906,0.105469 0.554687,0.191406 0.140625,0.07031 0.257813,0.183594 0.328125,0.324219 0.04687,0.09375 0.08984,0.191406 0.125,0.292969 0.03906,0.121094 0.01563,0.257812 -0.0625,0.363281 -0.04687,0.05859 -0.07422,0.125 -0.08984,0.199219 -0.0078,0.04687 0,0.101562 0.02734,0.140625 0.02344,0.03516 0.03125,0.07813 0.01953,0.117187 -0.01953,0.09375 -0.08203,0.171875 -0.167969,0.207032 -0.08203,0.03125 -0.140624,0.101562 -0.160156,0.183593 -0.02344,0.105469 -0.105468,0.1875 -0.210937,0.210938 -0.0625,0.01563 -0.128907,0.0078 -0.183594,-0.01953 -0.08594,-0.03906 -0.179687,-0.0625 -0.277344,-0.05859 -0.0625,0 -0.128906,0.02734 -0.167969,0.07813 -0.04297,0.05469 -0.03516,0.128906 0.01563,0.171875 0.01172,0.01172 0.02344,0.01563 0.03906,0.02344 0.07031,0.02344 0.132812,0.07031 0.175781,0.128907 0.05078,0.07031 0.128907,0.113281 0.214844,0.128906 0.140625,0.02344 0.285156,0.0078 0.414063,-0.04687 0.15625,-0.0625 0.296874,-0.148438 0.425781,-0.253907 0.113281,-0.08984 0.191406,-0.214843 0.226562,-0.355468 0.01563,-0.0625 0.05078,-0.113282 0.101563,-0.152344 0.148437,-0.101562 0.234375,-0.273438 0.226562,-0.449219 -0.0039,-0.183593 0,-0.367187 0.01563,-0.550781 0.01172,-0.167969 -0.0078,-0.339844 -0.06641,-0.5 -0.01953,-0.05469 -0.0078,-0.117188 0.02734,-0.167969 0.03516,-0.05078 0.09375,-0.08594 0.160156,-0.08594 0.28125,-0.0078 0.566406,-0.01172 0.851563,-0.01172 0.08203,0 0.160156,0.03906 0.210937,0.101563 0.0625,0.08203 0.15625,0.132812 0.257813,0.144531 0.125,0.01172 0.246093,0.04687 0.359374,0.101562 0.109376,0.05078 0.238282,0.0078 0.292969,-0.101562 0.0039,-0.0078 0.0039,-0.01172 0.0078,-0.01953 0.02344,-0.07031 0.07422,-0.132813 0.136718,-0.171876 0.08203,-0.05469 0.113282,-0.160156 0.07422,-0.25 -0.04297,-0.08984 -0.05078,-0.191406 -0.03516,-0.285156"
       id="path33" />
    <path
       style="fill:#ffffff;fill-opacity:1;fill-rule:nonzero;stroke:none"
       d="m 75.746094,22.28125 c -0.121094,-0.167969 -0.285156,-0.308594 -0.46875,-0.402344 -0.171875,-0.08594 -0.351563,-0.164062 -0.535156,-0.226562 -0.128907,-0.04687 -0.261719,-0.07422 -0.398438,-0.08203 -0.101562,-0.0078 -0.199219,0 -0.296875,0.01953 -0.05859,0.01172 -0.117187,0.02734 -0.175781,0.04687 -0.06641,0.03125 -0.113282,0.09766 -0.113282,0.171875 -0.03516,0.08594 -0.01953,0.183594 0.03906,0.257812 0.05859,0.06641 0.144531,0.113282 0.234375,0.125 0.136719,0.01563 0.257812,0.08984 0.339844,0.199219 0.08203,0.113281 0.164062,0.226563 0.246094,0.339844 0.04687,0.0625 0.101562,0.117187 0.167968,0.160156 0.0039,0.0039 0.01172,0.0078 0.01563,0.01172 0.05859,0.05078 0.0625,0.140625 0.01172,0.203125 -0.07422,0.08203 -0.175781,0.140625 -0.289062,0.164062 -0.148438,0.03125 -0.285157,0.101563 -0.394532,0.207031 -0.09766,0.09375 -0.207031,0.175782 -0.324218,0.242188 -0.08594,0.04687 -0.132813,0.144531 -0.113282,0.242188 0.01953,0.08984 0.07031,0.164062 0.148438,0.214843 0.05078,0.03516 0.08984,0.08984 0.109375,0.152344 0.03125,0.113281 -0.02344,0.238281 -0.132813,0.289063 -0.109375,0.05078 -0.230468,0.0625 -0.34375,0.02734 -0.210937,-0.0625 -0.414062,-0.136719 -0.609375,-0.226562 -0.292969,-0.136719 -0.5625,-0.316407 -0.796875,-0.539063 C 71.878906,23.699219 71.6875,23.519531 71.5,23.339844 c -0.05469,-0.05078 -0.08203,-0.128906 -0.07031,-0.203125 0.0078,-0.03906 0.01562,-0.08203 0.02734,-0.121094 0.02734,-0.08984 -0.02344,-0.183594 -0.109375,-0.210937 -0.08203,-0.02344 -0.164062,-0.03516 -0.25,-0.03125 -0.113281,0 -0.226562,0.02734 -0.332031,0.07422 -0.07031,0.03125 -0.128906,0.08984 -0.164063,0.160156 -0.03516,0.0625 -0.03516,0.136719 0,0.199219 0.03516,0.07031 0.05859,0.144531 0.07422,0.222657 0.01172,0.05859 0.05859,0.109374 0.117188,0.125 0.05469,0.01172 0.105469,0.04297 0.144531,0.08203 0.05469,0.05469 0.113281,0.105469 0.175781,0.144531 0.257813,0.179688 0.507813,0.371094 0.746094,0.574219 0.175781,0.152343 0.363281,0.285156 0.566406,0.394531 0.207031,0.113281 0.421875,0.210938 0.644531,0.289062 0.113282,0.04297 0.191407,0.148438 0.199219,0.273438 0.0078,0.101562 -0.03125,0.203125 -0.105469,0.273438 -0.109374,0.113281 -0.242187,0.203124 -0.386718,0.265624 -0.222656,0.09375 -0.476563,0.08984 -0.699219,-0.0078 C 71.839844,25.738281 71.625,25.585938 71.449219,25.386719 71.285156,25.203125 71.121094,25.023438 70.953125,24.84375 70.851562,24.734375 70.75,24.628906 70.648438,24.523438 c -0.03125,-0.03125 -0.07422,-0.04688 -0.117188,-0.03906 -0.03906,0.0039 -0.06641,0.03125 -0.07813,0.06641 -0.01953,0.09766 -0.01953,0.199219 -0.0039,0.296875 0.01563,0.105469 0.05469,0.203125 0.109375,0.292969 0.09375,0.144531 0.195312,0.285156 0.3125,0.414063 0.160156,0.183593 0.339844,0.351562 0.53125,0.503906 0.175781,0.140625 0.351562,0.277344 0.527344,0.414062 0.07031,0.05859 0.167968,0.07813 0.261718,0.05859 0.167969,-0.04297 0.335938,-0.08594 0.503906,-0.121094 0.167969,-0.03516 0.328126,-0.105468 0.46875,-0.207031 0.179688,-0.125 0.359376,-0.242187 0.546876,-0.351563 0.04687,-0.02734 0.08984,-0.06641 0.117187,-0.109374 0.0039,-0.0039 0.0078,-0.01172 0.01172,-0.01172 0.03906,-0.04687 0.105468,-0.05078 0.148437,-0.01172 0.07422,0.06641 0.144531,0.132812 0.214844,0.203125 0.109375,0.105469 0.230469,0.203125 0.359375,0.289063 0.07813,0.05469 0.164062,0.08984 0.257812,0.113281 0.105469,0.02344 0.210938,0.0625 0.308594,0.109375 0.06641,0.03125 0.125,0.07031 0.179688,0.117187 0.04687,0.03906 0.117187,0.03516 0.160156,-0.0078 0.04687,-0.04687 0.06641,-0.121094 0.04297,-0.1875 -0.02344,-0.0625 -0.04687,-0.128907 -0.07031,-0.191407 -0.01563,-0.04687 -0.05078,-0.08203 -0.09766,-0.09766 -0.05859,-0.01953 -0.121094,-0.03125 -0.1875,-0.02734 -0.0039,0 -0.01172,0 -0.01563,0 -0.02344,-0.01172 -0.03906,-0.03516 -0.03125,-0.0625 0.02344,-0.07422 0.01172,-0.152343 -0.03516,-0.214843 -0.03125,-0.04297 -0.0625,-0.08594 -0.08984,-0.128907 -0.02734,-0.04297 -0.06641,-0.07031 -0.109375,-0.08594 -0.117188,-0.03516 -0.238281,-0.04687 -0.359375,-0.03516 -0.07031,0.0078 -0.140625,0 -0.207031,-0.01953 -0.05859,-0.01563 -0.09375,-0.07031 -0.08594,-0.128907 0.01563,-0.09766 0.01953,-0.195312 0.01563,-0.292969 -0.0039,-0.07031 0.02344,-0.140624 0.07422,-0.191406 0.08984,-0.08984 0.140625,-0.210937 0.140625,-0.335937 0,-0.132813 0.01172,-0.261719 0.03516,-0.394531 0.02344,-0.128907 0.08594,-0.25 0.179688,-0.34375 0.07813,-0.07813 0.171875,-0.140626 0.277343,-0.179688 0.121094,-0.04687 0.246094,-0.08984 0.371094,-0.125 0.08984,-0.02344 0.171875,-0.06641 0.242188,-0.125 0.05859,-0.04687 0.113281,-0.09375 0.167968,-0.144531 0.05078,-0.05078 0.101563,-0.105469 0.144532,-0.167969 0.08203,-0.109375 0.105468,-0.25 0.07031,-0.378906 -0.04297,-0.144532 -0.105468,-0.28125 -0.195312,-0.402344"
       id="path34" />
    <path
       style="fill:#ffffff;fill-opacity:1;fill-rule:nonzero;stroke:none"
       d="m 87.003906,36.9375 c 0.04687,-0.09375 0.132813,-0.164062 0.234375,-0.195312 0.171875,-0.0625 0.316407,-0.203126 0.375,-0.378907 0.02734,-0.06641 0.08594,-0.113281 0.160157,-0.105469 H 87.9375 c 0.07031,-0.0078 0.132812,-0.05469 0.160156,-0.121093 0.03125,-0.07422 0.05469,-0.148438 0.06641,-0.226563 0.01953,-0.101562 0.07813,-0.195312 0.160157,-0.257812 0.03516,-0.02734 0.07422,-0.02734 0.109375,0 0.04687,0.03516 0.07813,0.08203 0.09766,0.140625 0.05469,0.183593 0.0078,0.382812 -0.121094,0.523437 -0.05859,0.07031 -0.07031,0.167969 -0.03906,0.25 0.02734,0.08594 0.0625,0.167969 0.09375,0.25 0.03906,0.09766 0.140625,0.160156 0.25,0.140625 0.101562,-0.01953 0.207031,-0.01563 0.316406,0.01172 0.191406,0.04687 0.402344,-0.01172 0.539062,-0.152344 0.125,-0.117187 0.25,-0.230468 0.382813,-0.335937 0.117187,-0.08984 0.195313,-0.222657 0.222656,-0.363281 0.03906,-0.167969 0.101563,-0.324219 0.1875,-0.464844 0.08984,-0.144532 0.203125,-0.28125 0.335938,-0.402344 0.101562,-0.08594 0.253906,-0.105469 0.375,-0.03906 0.121093,0.06641 0.277343,0.04687 0.375,-0.05469 0.08203,-0.08203 0.148437,-0.171875 0.195312,-0.28125 0.0625,-0.132812 0.03906,-0.296875 -0.05078,-0.410156 -0.09766,-0.121094 -0.210938,-0.222656 -0.335938,-0.308594 -0.08984,-0.06641 -0.140624,-0.175781 -0.128906,-0.28125 0.01563,-0.132812 -0.04687,-0.261719 -0.152344,-0.34375 -0.101562,-0.05859 -0.214843,-0.09375 -0.332031,-0.08594 -0.132812,0 -0.265625,0.04688 -0.378906,0.128907 -0.136719,0.105469 -0.222656,0.261719 -0.25,0.429687 -0.01563,0.09375 0,0.179688 0.02734,0.265625 0.03125,0.121094 0.121093,0.222657 0.234375,0.28125 0.07422,0.03516 0.101562,0.121094 0.06641,0.195313 -0.04687,0.08984 -0.105469,0.167968 -0.1875,0.238281 -0.113281,0.09766 -0.222656,0.199219 -0.320312,0.3125 -0.07422,0.07422 -0.121094,0.167969 -0.148438,0.269531 -0.01953,0.06641 -0.08203,0.121094 -0.15625,0.128906 -0.06641,0.0039 -0.125,0.03125 -0.179688,0.07031 -0.0625,0.05078 -0.105468,0.101563 -0.15625,0.15625 -0.04687,0.06641 -0.144531,0.08203 -0.214843,0.03516 -0.113281,-0.08203 -0.171875,-0.230469 -0.140625,-0.371093 0.02734,-0.105469 0.02734,-0.222657 -0.0039,-0.335938 -0.0625,-0.1875 -0.164063,-0.355469 -0.304688,-0.488281 -0.113281,-0.109375 -0.265625,-0.140625 -0.40625,-0.08984 -0.117188,0.04297 -0.238281,0.0625 -0.355469,0.0625 -0.183593,0 -0.363281,0.02734 -0.546875,0.06641 -0.140625,0.03516 -0.273437,0.06641 -0.414062,0.09375 -0.132813,0.03516 -0.269532,0.04687 -0.402344,0.05469 -0.140625,0.0078 -0.277344,0.03516 -0.410156,0.06641 -0.167969,0.04687 -0.320313,0.140625 -0.441406,0.269531 -0.06641,0.07422 -0.160157,0.105469 -0.253907,0.08594 -0.117187,-0.01953 -0.238281,-0.01953 -0.351562,0 -0.171875,0.03516 -0.339844,0.109375 -0.480469,0.214844 -0.175781,0.136718 -0.285156,0.335937 -0.304688,0.550781 -0.01172,0.203125 -0.113281,0.382812 -0.265624,0.511719 -0.128907,0.09375 -0.207032,0.238281 -0.230469,0.394531 -0.01953,0.140625 0.02734,0.28125 0.121093,0.390625 0.07422,0.07813 0.128907,0.171875 0.167969,0.273437 0.04687,0.109375 0.160157,0.160157 0.269531,0.121094 0.0039,-0.0078 0.0039,-0.0078 0.01172,-0.0078 0.09375,-0.04687 0.1875,-0.08594 0.28125,-0.113281 0.175781,-0.04687 0.335938,-0.128906 0.476563,-0.234375 0.113281,-0.08594 0.261718,-0.132812 0.410156,-0.121094 0.167969,0.01953 0.34375,-0.01172 0.496094,-0.09375 0.1875,-0.101562 0.402344,-0.132812 0.609375,-0.09375 0.195312,0.02734 0.390625,-0.05859 0.492187,-0.226562"
       id="path35" />
    <path
       style="fill:#ffffff;fill-opacity:1;fill-rule:nonzero;stroke:none"
       d="m 94.417969,37.503906 c -0.05859,-0.0625 -0.08203,-0.152344 -0.0625,-0.230468 0.03516,-0.144532 0.02344,-0.292969 -0.02734,-0.425782 -0.02734,-0.06641 -0.07031,-0.125 -0.128906,-0.164062 -0.04297,-0.03125 -0.101563,-0.01953 -0.132813,0.02344 0,0.0039 -0.0039,0.0078 -0.0078,0.01172 -0.03516,0.07813 -0.06641,0.160156 -0.09766,0.238281 -0.01172,0.04297 -0.03516,0.08203 -0.0625,0.113281 -0.03516,0.04297 -0.07031,0.08203 -0.101563,0.125 -0.07031,0.101563 -0.136719,0.203126 -0.191406,0.3125 0.01172,0.02344 0.0078,0.04688 -0.0078,0.06641 -0.01953,0.01953 -0.05469,0.02344 -0.07422,0.0039 -0.03906,-0.03906 -0.08203,-0.07031 -0.125,-0.09766 -0.101563,-0.0625 -0.234376,-0.04297 -0.308594,0.05078 -0.0625,0.08203 -0.08594,0.191406 -0.05859,0.289062 0.02734,0.09766 0.117188,0.15625 0.214844,0.144532 0.09375,-0.01563 0.1875,0.02344 0.238281,0.101562 0.04297,0.05859 0.08203,0.117188 0.128906,0.171875 0.05859,0.07813 0.128907,0.144531 0.207031,0.203125 0.117188,0.08594 0.265626,0.121094 0.410157,0.09375 0.09375,-0.01563 0.171875,-0.08203 0.207031,-0.167968 0.04297,-0.113282 0.07422,-0.230469 0.08984,-0.351563 0.01172,-0.07813 0.01172,-0.152344 0.0078,-0.230469 -0.0078,-0.105468 -0.04687,-0.203125 -0.117187,-0.28125"
       id="path36" />
    <path
       style="fill:#ffffff;fill-opacity:1;fill-rule:nonzero;stroke:none"
       d="m 93.214844,39.117188 c -0.308594,-0.25 -0.632813,-0.476563 -0.972656,-0.679688 -0.1875,-0.113281 -0.367188,-0.242188 -0.535157,-0.386719 -0.109375,-0.08984 -0.246093,-0.148437 -0.386719,-0.15625 -0.06641,-0.0039 -0.117187,-0.05078 -0.136718,-0.109375 -0.0039,-0.01953 -0.0039,-0.03516 0,-0.05469 0.0078,-0.08984 0.08984,-0.15625 0.183594,-0.148438 0.09375,-0.07422 0.21875,-0.105469 0.335937,-0.08203 0.07031,0.01563 0.144531,0.01172 0.210937,-0.01563 0.07813,-0.02734 0.152344,-0.07813 0.203126,-0.148437 0.03516,-0.04297 0.06641,-0.08984 0.09375,-0.140626 0.02734,-0.04297 0.02734,-0.101562 0,-0.148437 -0.03125,-0.05469 -0.08984,-0.08984 -0.15625,-0.09375 -0.08984,0 -0.183594,0 -0.273438,0.0078 -0.179688,0.01562 -0.359375,0.0039 -0.53125,-0.03906 -0.121094,-0.02734 -0.242188,-0.02734 -0.359375,0 -0.148437,0.03516 -0.300781,0.03125 -0.445313,-0.01563 -0.125,-0.03516 -0.257812,0.01172 -0.328124,0.117188 -0.0625,0.09766 -0.152344,0.167968 -0.257813,0.210937 -0.195313,0.07813 -0.355469,0.21875 -0.464844,0.398437 -0.0625,0.113282 -0.0625,0.257813 0.0078,0.367188 0.04297,0.07031 0.101562,0.128906 0.171875,0.171875 0.08594,0.05469 0.175781,0.08594 0.277343,0.09375 0.121094,0.01563 0.246094,-0.01172 0.351563,-0.07813 0.07031,-0.03906 0.152344,-0.03906 0.222656,0 0.08984,0.05469 0.191407,0.09375 0.296875,0.113281 0.105469,0.01563 0.207032,0.06641 0.285156,0.140625 0.05469,0.05469 0.125,0.08984 0.203126,0.109375 0.09375,0.01953 0.1875,0.05078 0.277343,0.08594 0.08984,0.03906 0.171875,0.09375 0.242188,0.164062 0.09766,0.105469 0.234375,0.164063 0.378906,0.167969 0.05469,0 0.109375,0.01953 0.15625,0.05469 0.109375,0.08594 0.222656,0.171874 0.328125,0.257812 0.128906,0.101562 0.261719,0.195312 0.398438,0.277344 0.09766,0.0625 0.1875,0.140625 0.261718,0.230468 0.02344,0.02734 0.03516,0.06641 0.03906,0.101563 0.0039,0.08594 -0.03516,0.171875 -0.101563,0.222656 -0.07031,0.05078 -0.144531,0.09766 -0.222656,0.140625 -0.05469,0.03125 -0.101562,0.07031 -0.132812,0.117188 -0.05859,0.07813 -0.15625,0.109375 -0.246094,0.07422 -0.09766,-0.03906 -0.1875,-0.08594 -0.277344,-0.144531 -0.308594,-0.195312 -0.617188,-0.390625 -0.929688,-0.582031 -0.07422,-0.04687 -0.148437,-0.08594 -0.222656,-0.128906 -0.05859,-0.03125 -0.121094,-0.05078 -0.1875,-0.0625 -0.06641,-0.0078 -0.113281,-0.06641 -0.113281,-0.132813 0.0039,-0.07031 0,-0.144531 -0.01563,-0.214843 -0.01172,-0.05859 -0.03906,-0.113282 -0.08594,-0.15625 -0.04687,-0.04297 -0.08203,-0.09375 -0.109374,-0.148438 -0.03906,-0.08594 -0.05859,-0.175781 -0.05469,-0.269531 0,-0.05469 -0.02344,-0.101563 -0.06641,-0.136719 -0.04297,-0.03125 -0.09375,-0.05078 -0.148438,-0.05469 -0.03906,0 -0.08203,0.0078 -0.117187,0.02344 -0.05859,0.03125 -0.08594,0.09766 -0.0625,0.160156 0.03125,0.08203 0.03906,0.171875 0.02344,0.261719 -0.01172,0.0625 -0.05078,0.121094 -0.105468,0.15625 -0.105469,0.07422 -0.246094,0.08203 -0.363282,0.02344 -0.121094,-0.0625 -0.242187,-0.125 -0.363281,-0.191406 -0.15625,-0.08594 -0.347656,-0.08594 -0.511719,-0.0078 -0.101562,0.05078 -0.183594,0.136718 -0.230468,0.238281 -0.05469,0.113281 -0.105469,0.226563 -0.160157,0.339844 -0.03125,0.07422 -0.113281,0.109375 -0.1875,0.08594 -0.179687,-0.05078 -0.363281,-0.09766 -0.542969,-0.140625 -0.253906,-0.05859 -0.519531,-0.01953 -0.742187,0.101563 -0.09766,0.05078 -0.203125,0.07813 -0.308594,0.07813 -0.05469,0 -0.105469,0.01563 -0.152343,0.04297 -0.03125,0.01562 -0.05469,0.04687 -0.0625,0.08594 -0.01172,0.05859 0.01172,0.117187 0.05469,0.15625 0.183594,0.15625 0.371094,0.308594 0.5625,0.457031 0.226563,0.183594 0.503906,0.289063 0.796875,0.308594 0.207031,0.01563 0.414062,0.02734 0.621094,0.03906 0.0625,0.0039 0.113281,0.05078 0.121094,0.113282 0.0078,0.07422 -0.02734,0.148437 -0.09766,0.1875 -0.03906,0.02344 -0.07813,0.03906 -0.125,0.04687 -0.171875,0.03516 -0.351562,0.04297 -0.527343,0.02344 -0.128907,-0.01563 -0.257813,-0.0039 -0.378907,0.03125 -0.08984,0.02734 -0.171875,0.0625 -0.253906,0.105469 -0.15625,0.08203 -0.285156,0.203125 -0.378906,0.355469 -0.07031,0.117187 -0.160157,0.21875 -0.269531,0.300781 -0.101563,0.07813 -0.167969,0.195313 -0.1875,0.324219 -0.01172,0.08203 0.01562,0.164062 0.07812,0.21875 0.105469,0.09766 0.226563,0.171875 0.355469,0.230468 0.195313,0.08594 0.355469,0.230469 0.457031,0.417969 0.08984,0.164063 0.171876,0.328125 0.246094,0.5 0.04297,0.09766 0.0625,0.207031 0.05469,0.316407 -0.0039,0.09375 0.02734,0.191406 0.09375,0.257812 0.07813,0.08203 0.148437,0.167969 0.214844,0.253906 0.04687,0.06641 0.117187,0.113282 0.199218,0.132813 0.07422,0.02344 0.15625,0.0039 0.21875,-0.04687 0.07813,-0.0625 0.117188,-0.160156 0.101563,-0.257813 -0.01563,-0.109375 -0.01563,-0.222656 -0.0078,-0.332031 0.0078,-0.07031 0.03125,-0.140625 0.07422,-0.199219 0.03516,-0.05469 0.09766,-0.09375 0.164063,-0.101562 0.128906,-0.01953 0.246093,-0.08984 0.324218,-0.199219 0.05078,-0.07031 0.07422,-0.160156 0.0625,-0.25 -0.01172,-0.08984 -0.03125,-0.179688 -0.05469,-0.269531 -0.0078,-0.03125 -0.03906,-0.05078 -0.07031,-0.04687 -0.08594,0.0078 -0.164062,0.03125 -0.238281,0.07031 -0.125,0.06641 -0.242187,0.144532 -0.347656,0.238282 -0.05859,0.05078 -0.140625,0.06641 -0.210938,0.03906 -0.117187,-0.04297 -0.214843,-0.132812 -0.269531,-0.246094 -0.05469,-0.113281 -0.101562,-0.230468 -0.136719,-0.355468 -0.03516,-0.136719 -0.125,-0.253907 -0.25,-0.320313 -0.06641,-0.03906 -0.105469,-0.101563 -0.109375,-0.175781 -0.01172,-0.136719 0.07422,-0.265625 0.203125,-0.308594 0.199219,-0.06641 0.398438,-0.136719 0.59375,-0.210938 0.191407,-0.07812 0.398438,-0.117187 0.605469,-0.121093 0.09375,0 0.183594,-0.02734 0.261719,-0.07813 0.164062,-0.105469 0.308593,-0.246094 0.417969,-0.410156 0.04297,-0.0625 0.109374,-0.109376 0.179687,-0.125 0.101563,-0.02344 0.203125,0.01172 0.261719,0.09375 0.08203,0.113281 0.191406,0.203124 0.316406,0.261718 0.09375,0.04297 0.1875,0.08594 0.285156,0.125 0.05078,0.02344 0.113282,-0.0039 0.132813,-0.05469 0.0039,-0.01172 0.0078,-0.02734 0.0078,-0.03906 0,-0.07813 0.03906,-0.152344 0.105469,-0.191406 0.07031,-0.04687 0.105469,-0.132812 0.08594,-0.214844 -0.01172,-0.05859 -0.05078,-0.105468 -0.101563,-0.136718 -0.136719,-0.06641 -0.273437,-0.128907 -0.410156,-0.1875 -0.113281,-0.04297 -0.203125,-0.132813 -0.246094,-0.242188 -0.03516,-0.08594 -0.08984,-0.164062 -0.15625,-0.222656 -0.08203,-0.07031 -0.179687,-0.121094 -0.285156,-0.140625 -0.109375,-0.02734 -0.207031,-0.08594 -0.277344,-0.175781 -0.03906,-0.05078 -0.07422,-0.101563 -0.109375,-0.15625 -0.04297,-0.06641 -0.04687,-0.152344 -0.01563,-0.222657 0.01563,-0.04297 0.04687,-0.07813 0.08594,-0.101562 0.07813,-0.05078 0.179688,-0.05078 0.253907,0.0078 0.171875,0.128907 0.355469,0.25 0.542969,0.363281 0.160156,0.09375 0.292968,0.230469 0.378906,0.394532 0.04687,0.08984 0.121094,0.164062 0.214844,0.210937 0.113281,0.0625 0.246093,0.07422 0.371093,0.04297 0.101563,-0.03125 0.214844,0 0.289063,0.07813 0.222656,0.230469 0.488281,0.410156 0.78125,0.535156 0.1875,0.07813 0.375,0.152344 0.5625,0.222657 0.08594,0.03125 0.179687,0.02344 0.261718,-0.01953 0.121094,-0.05859 0.25,-0.105468 0.378907,-0.132812 0.105469,-0.01953 0.203125,-0.0625 0.292969,-0.117188 0.175781,-0.113281 0.308593,-0.289062 0.363281,-0.492187 0.05859,-0.199219 -0.0039,-0.417969 -0.15625,-0.558594 -0.207031,-0.191406 -0.421875,-0.378906 -0.640625,-0.554687"
       id="path37" />
    <path
       style="fill:#ffffff;fill-opacity:1;fill-rule:nonzero;stroke:none"
       d="m 28.417969,20.1875 c -0.128907,-0.0625 -0.261719,-0.105469 -0.398438,-0.132812 -0.152343,-0.03516 -0.308593,-0.05078 -0.460937,-0.05078 h -0.02734 c -0.01172,0 -0.02344,0 -0.03516,0.0039 0.07422,0.117188 0.09766,0.261719 0.0625,0.394532 -0.01172,0.04687 0.0039,0.09766 0.04297,0.125 0.08203,0.07031 0.128907,0.171875 0.128907,0.277344 -0.0039,0.04687 -0.0039,0.09375 0,0.144531 0.0625,-0.0078 0.128906,-0.0078 0.191406,-0.0078 0.06641,0 0.132813,0 0.195313,0.0039 0.113281,0.0078 0.226562,0.0078 0.335937,-0.0039 0.04687,-0.0078 0.08984,-0.03906 0.109375,-0.08203 0.03906,-0.109375 0.07813,-0.214844 0.105469,-0.320313 0.01563,-0.05859 0.0039,-0.121093 -0.03125,-0.171874 -0.05469,-0.07813 -0.132813,-0.140626 -0.21875,-0.179688"
       id="path38" />
  </g>
</svg>
