<?xml version="1.0" encoding="utf-8" standalone="no"?>
<!DOCTYPE svg PUBLIC "-//W3C//DTD SVG 1.1//EN" "http://www.w3.org/Graphics/SVG/1.1/DTD/svg11.dtd">
<svg width="392" height="373" version="1.1" xmlns:xlink="http://www.w3.org/1999/xlink" xmlns="http://www.w3.org/2000/svg">
  <polyline points="78.3366,315.95 78.3366,319.95" style="fill:none;stroke:black;stroke-width:1" />
  <polyline points="94.34,315.95 94.34,319.95" style="fill:none;stroke:black;stroke-width:1" />
  <polyline points="110.3433,315.95 110.3433,319.95" style="fill:none;stroke:black;stroke-width:1" />
  <polyline points="142.3499,315.95 142.3499,319.95" style="fill:none;stroke:black;stroke-width:1" />
  <polyline points="158.3532,315.95 158.3532,319.95" style="fill:none;stroke:black;stroke-width:1" />
  <polyline points="174.3565,315.95 174.3565,319.95" style="fill:none;stroke:black;stroke-width:1" />
  <polyline points="206.3632,315.95 206.3632,319.95" style="fill:none;stroke:black;stroke-width:1" />
  <polyline points="222.3665,315.95 222.3665,319.95" style="fill:none;stroke:black;stroke-width:1" />
  <polyline points="238.3698,315.95 238.3698,319.95" style="fill:none;stroke:black;stroke-width:1" />
  <polyline points="270.3764,315.95 270.3764,319.95" style="fill:none;stroke:black;stroke-width:1" />
  <polyline points="286.3798,315.95 286.3798,319.95" style="fill:none;stroke:black;stroke-width:1" />
  <polyline points="302.3831,315.95 302.3831,319.95" style="fill:none;stroke:black;stroke-width:1" />
  <polyline points="334.3897,315.95 334.3897,319.95" style="fill:none;stroke:black;stroke-width:1" />
  <polyline points="350.393,315.95 350.393,319.95" style="fill:none;stroke:black;stroke-width:1" />
  <polyline points="366.3964,315.95 366.3964,319.95" style="fill:none;stroke:black;stroke-width:1" />
  <polyline points="60.725,283.8133 56.725,283.8133" style="fill:none;stroke:black;stroke-width:1" />
  <polyline points="60.725,254.5619 56.725,254.5619" style="fill:none;stroke:black;stroke-width:1" />
  <polyline points="60.725,225.3104 56.725,225.3104" style="fill:none;stroke:black;stroke-width:1" />
  <polyline points="60.725,196.059 56.725,196.059" style="fill:none;stroke:black;stroke-width:1" />
  <polyline points="60.725,137.5561 56.725,137.5561" style="fill:none;stroke:black;stroke-width:1" />
  <polyline points="60.725,108.3046 56.725,108.3046" style="fill:none;stroke:black;stroke-width:1" />
  <polyline points="60.725,79.0532 56.725,79.0532" style="fill:none;stroke:black;stroke-width:1" />
  <polyline points="60.725,49.8017 56.725,49.8017" style="fill:none;stroke:black;stroke-width:1" />
  <text dominant-baseline="hanging" text-anchor="middle" transform="translate(62.3333,326.95)" font-family="Segoe UI" font-size="12" font-weight="400" fill="black">0</text>
  <text dominant-baseline="hanging" text-anchor="middle" transform="translate(126.3466,326.95)" font-family="Segoe UI" font-size="12" font-weight="400" fill="black">0.2</text>
  <text dominant-baseline="hanging" text-anchor="middle" transform="translate(190.3599,326.95)" font-family="Segoe UI" font-size="12" font-weight="400" fill="black">0.4</text>
  <text dominant-baseline="hanging" text-anchor="middle" transform="translate(254.3731,326.95)" font-family="Segoe UI" font-size="12" font-weight="400" fill="black">0.6</text>
  <text dominant-baseline="hanging" text-anchor="middle" transform="translate(318.3864,326.95)" font-family="Segoe UI" font-size="12" font-weight="400" fill="black">0.8</text>
  <text dominant-baseline="hanging" text-anchor="middle" transform="translate(382.3997,326.95)" font-family="Segoe UI" font-size="12" font-weight="400" fill="black">1</text>
  <polyline points="62.3333,315.95 62.3333,322.95" style="fill:none;stroke:black;stroke-width:1" />
  <polyline points="126.3466,315.95 126.3466,322.95" style="fill:none;stroke:black;stroke-width:1" />
  <polyline points="190.3599,315.95 190.3599,322.95" style="fill:none;stroke:black;stroke-width:1" />
  <polyline points="254.3731,315.95 254.3731,322.95" style="fill:none;stroke:black;stroke-width:1" />
  <polyline points="318.3864,315.95 318.3864,322.95" style="fill:none;stroke:black;stroke-width:1" />
  <polyline points="382.3997,315.95 382.3997,322.95" style="fill:none;stroke:black;stroke-width:1" />
  <text dominant-baseline="baseline" text-anchor="middle" transform="translate(222.3625,361)" font-family="Segoe UI" font-size="12" font-weight="400" fill="black">Color Component Value</text>
  <text dominant-baseline="middle" text-anchor="end" transform="translate(49.725,313.0648)" font-family="Segoe UI" font-size="12" font-weight="400" fill="black">0</text>
  <text dominant-baseline="middle" text-anchor="end" transform="translate(49.725,166.8075)" font-family="Segoe UI" font-size="12" font-weight="400" fill="black">50</text>
  <text dominant-baseline="middle" text-anchor="end" transform="translate(49.725,20.5503)" font-family="Segoe UI" font-size="12" font-weight="400" fill="black">100</text>
  <polyline points="60.725,313.0648 53.725,313.0648" style="fill:none;stroke:black;stroke-width:1" />
  <polyline points="60.725,166.8075 53.725,166.8075" style="fill:none;stroke:black;stroke-width:1" />
  <polyline points="60.725,20.5503 53.725,20.5503" style="fill:none;stroke:black;stroke-width:1" />
  <text dominant-baseline="hanging" text-anchor="middle" transform="translate(12,161.975) rotate(-90)" font-family="Segoe UI" font-size="12" font-weight="400" fill="black">Intensity</text>
  <ellipse cx="62.3333" cy="312.5344" rx="2" ry="2" style="fill:rgb(255,0,0);stroke:none;" />
  <ellipse cx="62.3333" cy="312.3098" rx="2" ry="2" style="fill:rgb(255,0,0);stroke:none;" />
  <ellipse cx="62.3333" cy="312.6283" rx="2" ry="2" style="fill:rgb(255,0,0);stroke:none;" />
  <ellipse cx="67.7582" cy="311.2424" rx="2" ry="2" style="fill:rgb(255,0,0);stroke:none;" />
  <ellipse cx="73.183" cy="309.3352" rx="2" ry="2" style="fill:rgb(255,0,0);stroke:none;" />
  <ellipse cx="78.6079" cy="307.7761" rx="2" ry="2" style="fill:rgb(255,0,0);stroke:none;" />
  <ellipse cx="84.0327" cy="306.0503" rx="2" ry="2" style="fill:rgb(255,0,0);stroke:none;" />
  <ellipse cx="89.4576" cy="304.538" rx="2" ry="2" style="fill:rgb(255,0,0);stroke:none;" />
  <ellipse cx="94.8824" cy="302.7946" rx="2" ry="2" style="fill:rgb(255,0,0);stroke:none;" />
  <ellipse cx="100.3073" cy="301.0775" rx="2" ry="2" style="fill:rgb(255,0,0);stroke:none;" />
  <ellipse cx="105.7322" cy="299.457" rx="2" ry="2" style="fill:rgb(255,0,0);stroke:none;" />
  <ellipse cx="111.157" cy="297.6112" rx="2" ry="2" style="fill:rgb(255,0,0);stroke:none;" />
  <ellipse cx="116.5819" cy="295.7976" rx="2" ry="2" style="fill:rgb(255,0,0);stroke:none;" />
  <ellipse cx="122.0067" cy="293.8173" rx="2" ry="2" style="fill:rgb(255,0,0);stroke:none;" />
  <ellipse cx="127.4316" cy="291.6176" rx="2" ry="2" style="fill:rgb(255,0,0);stroke:none;" />
  <ellipse cx="132.8564" cy="289.8684" rx="2" ry="2" style="fill:rgb(255,0,0);stroke:none;" />
  <ellipse cx="138.2813" cy="288.0109" rx="2" ry="2" style="fill:rgb(255,0,0);stroke:none;" />
  <ellipse cx="143.7061" cy="286.2412" rx="2" ry="2" style="fill:rgb(255,0,0);stroke:none;" />
  <ellipse cx="149.131" cy="284.4715" rx="2" ry="2" style="fill:rgb(255,0,0);stroke:none;" />
  <ellipse cx="154.5558" cy="282.6433" rx="2" ry="2" style="fill:rgb(255,0,0);stroke:none;" />
  <ellipse cx="159.9807" cy="280.7419" rx="2" ry="2" style="fill:rgb(255,0,0);stroke:none;" />
  <ellipse cx="165.4055" cy="279.4548" rx="2" ry="2" style="fill:rgb(255,0,0);stroke:none;" />
  <ellipse cx="170.8304" cy="277.4657" rx="2" ry="2" style="fill:rgb(255,0,0);stroke:none;" />
  <ellipse cx="176.2552" cy="275.5352" rx="2" ry="2" style="fill:rgb(255,0,0);stroke:none;" />
  <ellipse cx="181.6801" cy="273.7801" rx="2" ry="2" style="fill:rgb(255,0,0);stroke:none;" />
  <ellipse cx="187.1049" cy="272.025" rx="2" ry="2" style="fill:rgb(255,0,0);stroke:none;" />
  <ellipse cx="192.5298" cy="270.0651" rx="2" ry="2" style="fill:rgb(255,0,0);stroke:none;" />
  <ellipse cx="197.9547" cy="268.193" rx="2" ry="2" style="fill:rgb(255,0,0);stroke:none;" />
  <ellipse cx="203.3795" cy="266.4087" rx="2" ry="2" style="fill:rgb(255,0,0);stroke:none;" />
  <ellipse cx="208.8044" cy="264.5074" rx="2" ry="2" style="fill:rgb(255,0,0);stroke:none;" />
  <ellipse cx="214.2292" cy="262.957" rx="2" ry="2" style="fill:rgb(255,0,0);stroke:none;" />
  <ellipse cx="219.6541" cy="261.436" rx="2" ry="2" style="fill:rgb(255,0,0);stroke:none;" />
  <ellipse cx="225.0789" cy="259.6224" rx="2" ry="2" style="fill:rgb(255,0,0);stroke:none;" />
  <ellipse cx="230.5038" cy="257.721" rx="2" ry="2" style="fill:rgb(255,0,0);stroke:none;" />
  <ellipse cx="235.9286" cy="255.7027" rx="2" ry="2" style="fill:rgb(255,0,0);stroke:none;" />
  <ellipse cx="241.3535" cy="254.3571" rx="2" ry="2" style="fill:rgb(255,0,0);stroke:none;" />
  <ellipse cx="246.7783" cy="252.3095" rx="2" ry="2" style="fill:rgb(255,0,0);stroke:none;" />
  <ellipse cx="252.2032" cy="250.7884" rx="2" ry="2" style="fill:rgb(255,0,0);stroke:none;" />
  <ellipse cx="257.628" cy="249.0333" rx="2" ry="2" style="fill:rgb(255,0,0);stroke:none;" />
  <ellipse cx="263.0529" cy="247.249" rx="2" ry="2" style="fill:rgb(255,0,0);stroke:none;" />
  <ellipse cx="268.4778" cy="245.2014" rx="2" ry="2" style="fill:rgb(255,0,0);stroke:none;" />
  <ellipse cx="273.9026" cy="243.2416" rx="2" ry="2" style="fill:rgb(255,0,0);stroke:none;" />
  <ellipse cx="279.3275" cy="241.1647" rx="2" ry="2" style="fill:rgb(255,0,0);stroke:none;" />
  <ellipse cx="284.7523" cy="239.5851" rx="2" ry="2" style="fill:rgb(255,0,0);stroke:none;" />
  <ellipse cx="290.1772" cy="237.713" rx="2" ry="2" style="fill:rgb(255,0,0);stroke:none;" />
  <ellipse cx="295.602" cy="236.1627" rx="2" ry="2" style="fill:rgb(255,0,0);stroke:none;" />
  <ellipse cx="301.0269" cy="234.4661" rx="2" ry="2" style="fill:rgb(255,0,0);stroke:none;" />
  <ellipse cx="306.4517" cy="232.9158" rx="2" ry="2" style="fill:rgb(255,0,0);stroke:none;" />
  <ellipse cx="311.8766" cy="231.3362" rx="2" ry="2" style="fill:rgb(255,0,0);stroke:none;" />
  <ellipse cx="317.3014" cy="229.5226" rx="2" ry="2" style="fill:rgb(255,0,0);stroke:none;" />
  <ellipse cx="322.7263" cy="227.5628" rx="2" ry="2" style="fill:rgb(255,0,0);stroke:none;" />
  <ellipse cx="328.1511" cy="225.8662" rx="2" ry="2" style="fill:rgb(255,0,0);stroke:none;" />
  <ellipse cx="333.576" cy="224.1989" rx="2" ry="2" style="fill:rgb(255,0,0);stroke:none;" />
  <ellipse cx="339.0008" cy="222.3268" rx="2" ry="2" style="fill:rgb(255,0,0);stroke:none;" />
  <ellipse cx="344.4257" cy="220.3084" rx="2" ry="2" style="fill:rgb(255,0,0);stroke:none;" />
  <ellipse cx="349.8505" cy="218.5241" rx="2" ry="2" style="fill:rgb(255,0,0);stroke:none;" />
  <ellipse cx="355.2754" cy="216.8275" rx="2" ry="2" style="fill:rgb(255,0,0);stroke:none;" />
  <ellipse cx="360.7003" cy="215.1017" rx="2" ry="2" style="fill:rgb(255,0,0);stroke:none;" />
  <ellipse cx="366.1251" cy="213.6683" rx="2" ry="2" style="fill:rgb(255,0,0);stroke:none;" />
  <ellipse cx="371.55" cy="212.2935" rx="2" ry="2" style="fill:rgb(255,0,0);stroke:none;" />
  <ellipse cx="376.9748" cy="210.8602" rx="2" ry="2" style="fill:rgb(255,0,0);stroke:none;" />
  <ellipse cx="382.3997" cy="209.7779" rx="2" ry="2" style="fill:rgb(255,0,0);stroke:none;" />
  <ellipse cx="62.3333" cy="312.3098" rx="2" ry="2" style="fill:rgb(0,128,0);stroke:none;" />
  <ellipse cx="62.3333" cy="312.6283" rx="2" ry="2" style="fill:rgb(0,128,0);stroke:none;" />
  <ellipse cx="62.3333" cy="312.5344" rx="2" ry="2" style="fill:rgb(0,128,0);stroke:none;" />
  <ellipse cx="67.7582" cy="308.6946" rx="2" ry="2" style="fill:rgb(0,128,0);stroke:none;" />
  <ellipse cx="73.183" cy="304.1372" rx="2" ry="2" style="fill:rgb(0,128,0);stroke:none;" />
  <ellipse cx="78.6079" cy="299.2464" rx="2" ry="2" style="fill:rgb(0,128,0);stroke:none;" />
  <ellipse cx="84.0327" cy="294.3292" rx="2" ry="2" style="fill:rgb(0,128,0);stroke:none;" />
  <ellipse cx="89.4576" cy="289.0698" rx="2" ry="2" style="fill:rgb(0,128,0);stroke:none;" />
  <ellipse cx="94.8824" cy="284.1146" rx="2" ry="2" style="fill:rgb(0,128,0);stroke:none;" />
  <ellipse cx="100.3073" cy="279.5719" rx="2" ry="2" style="fill:rgb(0,128,0);stroke:none;" />
  <ellipse cx="105.7322" cy="274.3066" rx="2" ry="2" style="fill:rgb(0,128,0);stroke:none;" />
  <ellipse cx="111.157" cy="269.0706" rx="2" ry="2" style="fill:rgb(0,128,0);stroke:none;" />
  <ellipse cx="116.5819" cy="264.0101" rx="2" ry="2" style="fill:rgb(0,128,0);stroke:none;" />
  <ellipse cx="122.0067" cy="258.7741" rx="2" ry="2" style="fill:rgb(0,128,0);stroke:none;" />
  <ellipse cx="127.4316" cy="253.7136" rx="2" ry="2" style="fill:rgb(0,128,0);stroke:none;" />
  <ellipse cx="132.8564" cy="248.5068" rx="2" ry="2" style="fill:rgb(0,128,0);stroke:none;" />
  <ellipse cx="138.2813" cy="242.949" rx="2" ry="2" style="fill:rgb(0,128,0);stroke:none;" />
  <ellipse cx="143.7061" cy="237.479" rx="2" ry="2" style="fill:rgb(0,128,0);stroke:none;" />
  <ellipse cx="149.131" cy="232.009" rx="2" ry="2" style="fill:rgb(0,128,0);stroke:none;" />
  <ellipse cx="154.5558" cy="226.6267" rx="2" ry="2" style="fill:rgb(0,128,0);stroke:none;" />
  <ellipse cx="159.9807" cy="221.3907" rx="2" ry="2" style="fill:rgb(0,128,0);stroke:none;" />
  <ellipse cx="165.4055" cy="216.0962" rx="2" ry="2" style="fill:rgb(0,128,0);stroke:none;" />
  <ellipse cx="170.8304" cy="210.8602" rx="2" ry="2" style="fill:rgb(0,128,0);stroke:none;" />
  <ellipse cx="176.2552" cy="205.8582" rx="2" ry="2" style="fill:rgb(0,128,0);stroke:none;" />
  <ellipse cx="181.6801" cy="200.3589" rx="2" ry="2" style="fill:rgb(0,128,0);stroke:none;" />
  <ellipse cx="187.1049" cy="196.1467" rx="2" ry="2" style="fill:rgb(0,128,0);stroke:none;" />
  <ellipse cx="192.5298" cy="190.7645" rx="2" ry="2" style="fill:rgb(0,128,0);stroke:none;" />
  <ellipse cx="197.9547" cy="185.5284" rx="2" ry="2" style="fill:rgb(0,128,0);stroke:none;" />
  <ellipse cx="203.3795" cy="179.7659" rx="2" ry="2" style="fill:rgb(0,128,0);stroke:none;" />
  <ellipse cx="208.8044" cy="174.5591" rx="2" ry="2" style="fill:rgb(0,128,0);stroke:none;" />
  <ellipse cx="214.2292" cy="168.8551" rx="2" ry="2" style="fill:rgb(0,128,0);stroke:none;" />
  <ellipse cx="219.6541" cy="163.9116" rx="2" ry="2" style="fill:rgb(0,128,0);stroke:none;" />
  <ellipse cx="225.0789" cy="158.7634" rx="2" ry="2" style="fill:rgb(0,128,0);stroke:none;" />
  <ellipse cx="230.5038" cy="153.4104" rx="2" ry="2" style="fill:rgb(0,128,0);stroke:none;" />
  <ellipse cx="235.9286" cy="148.7009" rx="2" ry="2" style="fill:rgb(0,128,0);stroke:none;" />
  <ellipse cx="241.3535" cy="143.3186" rx="2" ry="2" style="fill:rgb(0,128,0);stroke:none;" />
  <ellipse cx="246.7783" cy="138.5214" rx="2" ry="2" style="fill:rgb(0,128,0);stroke:none;" />
  <ellipse cx="252.2032" cy="133.3731" rx="2" ry="2" style="fill:rgb(0,128,0);stroke:none;" />
  <ellipse cx="257.628" cy="128.0493" rx="2" ry="2" style="fill:rgb(0,128,0);stroke:none;" />
  <ellipse cx="263.0529" cy="123.0181" rx="2" ry="2" style="fill:rgb(0,128,0);stroke:none;" />
  <ellipse cx="268.4778" cy="117.6066" rx="2" ry="2" style="fill:rgb(0,128,0);stroke:none;" />
  <ellipse cx="273.9026" cy="112.7216" rx="2" ry="2" style="fill:rgb(0,128,0);stroke:none;" />
  <ellipse cx="279.3275" cy="106.6373" rx="2" ry="2" style="fill:rgb(0,128,0);stroke:none;" />
  <ellipse cx="284.7523" cy="101.6938" rx="2" ry="2" style="fill:rgb(0,128,0);stroke:none;" />
  <ellipse cx="290.1772" cy="96.136" rx="2" ry="2" style="fill:rgb(0,128,0);stroke:none;" />
  <ellipse cx="295.602" cy="91.2803" rx="2" ry="2" style="fill:rgb(0,128,0);stroke:none;" />
  <ellipse cx="301.0269" cy="85.9565" rx="2" ry="2" style="fill:rgb(0,128,0);stroke:none;" />
  <ellipse cx="306.4517" cy="81.247" rx="2" ry="2" style="fill:rgb(0,128,0);stroke:none;" />
  <ellipse cx="311.8766" cy="75.8648" rx="2" ry="2" style="fill:rgb(0,128,0);stroke:none;" />
  <ellipse cx="317.3014" cy="70.6288" rx="2" ry="2" style="fill:rgb(0,128,0);stroke:none;" />
  <ellipse cx="322.7263" cy="65.1295" rx="2" ry="2" style="fill:rgb(0,128,0);stroke:none;" />
  <ellipse cx="328.1511" cy="60.0982" rx="2" ry="2" style="fill:rgb(0,128,0);stroke:none;" />
  <ellipse cx="333.576" cy="55.3302" rx="2" ry="2" style="fill:rgb(0,128,0);stroke:none;" />
  <ellipse cx="339.0008" cy="50.0065" rx="2" ry="2" style="fill:rgb(0,128,0);stroke:none;" />
  <ellipse cx="344.4257" cy="45.0337" rx="2" ry="2" style="fill:rgb(0,128,0);stroke:none;" />
  <ellipse cx="349.8505" cy="40.1487" rx="2" ry="2" style="fill:rgb(0,128,0);stroke:none;" />
  <ellipse cx="355.2754" cy="34.7665" rx="2" ry="2" style="fill:rgb(0,128,0);stroke:none;" />
  <ellipse cx="360.7003" cy="29.4427" rx="2" ry="2" style="fill:rgb(0,128,0);stroke:none;" />
  <ellipse cx="366.1251" cy="26.2836" rx="2" ry="2" style="fill:rgb(0,128,0);stroke:none;" />
  <ellipse cx="371.55" cy="22.0713" rx="2" ry="2" style="fill:rgb(0,128,0);stroke:none;" />
  <ellipse cx="376.9748" cy="17.9176" rx="2" ry="2" style="fill:rgb(0,128,0);stroke:none;" />
  <ellipse cx="382.3997" cy="14.115" rx="2" ry="2" style="fill:rgb(0,128,0);stroke:none;" />
  <ellipse cx="62.3333" cy="312.5344" rx="2" ry="2" style="fill:rgb(0,0,255);stroke:none;" />
  <ellipse cx="62.3333" cy="312.3098" rx="2" ry="2" style="fill:rgb(0,0,255);stroke:none;" />
  <ellipse cx="62.3333" cy="312.6283" rx="2" ry="2" style="fill:rgb(0,0,255);stroke:none;" />
  <ellipse cx="67.7582" cy="312.33" rx="2" ry="2" style="fill:rgb(0,0,255);stroke:none;" />
  <ellipse cx="73.183" cy="311.9649" rx="2" ry="2" style="fill:rgb(0,0,255);stroke:none;" />
  <ellipse cx="78.6079" cy="311.6586" rx="2" ry="2" style="fill:rgb(0,0,255);stroke:none;" />
  <ellipse cx="84.0327" cy="311.1599" rx="2" ry="2" style="fill:rgb(0,0,255);stroke:none;" />
  <ellipse cx="89.4576" cy="310.751" rx="2" ry="2" style="fill:rgb(0,0,255);stroke:none;" />
  <ellipse cx="94.8824" cy="310.2745" rx="2" ry="2" style="fill:rgb(0,0,255);stroke:none;" />
  <ellipse cx="100.3073" cy="310.0109" rx="2" ry="2" style="fill:rgb(0,0,255);stroke:none;" />
  <ellipse cx="105.7322" cy="309.5575" rx="2" ry="2" style="fill:rgb(0,0,255);stroke:none;" />
  <ellipse cx="111.157" cy="309.0076" rx="2" ry="2" style="fill:rgb(0,0,255);stroke:none;" />
  <ellipse cx="116.5819" cy="308.7151" rx="2" ry="2" style="fill:rgb(0,0,255);stroke:none;" />
  <ellipse cx="122.0067" cy="308.3407" rx="2" ry="2" style="fill:rgb(0,0,255);stroke:none;" />
  <ellipse cx="127.4316" cy="308.0832" rx="2" ry="2" style="fill:rgb(0,0,255);stroke:none;" />
  <ellipse cx="132.8564" cy="307.2788" rx="2" ry="2" style="fill:rgb(0,0,255);stroke:none;" />
  <ellipse cx="138.2813" cy="306.9658" rx="2" ry="2" style="fill:rgb(0,0,255);stroke:none;" />
  <ellipse cx="143.7061" cy="306.5329" rx="2" ry="2" style="fill:rgb(0,0,255);stroke:none;" />
  <ellipse cx="149.131" cy="306.2696" rx="2" ry="2" style="fill:rgb(0,0,255);stroke:none;" />
  <ellipse cx="154.5558" cy="306.0152" rx="2" ry="2" style="fill:rgb(0,0,255);stroke:none;" />
  <ellipse cx="159.9807" cy="305.4623" rx="2" ry="2" style="fill:rgb(0,0,255);stroke:none;" />
  <ellipse cx="165.4055" cy="305.2546" rx="2" ry="2" style="fill:rgb(0,0,255);stroke:none;" />
  <ellipse cx="170.8304" cy="304.3829" rx="2" ry="2" style="fill:rgb(0,0,255);stroke:none;" />
  <ellipse cx="176.2552" cy="304.1401" rx="2" ry="2" style="fill:rgb(0,0,255);stroke:none;" />
  <ellipse cx="181.6801" cy="303.8974" rx="2" ry="2" style="fill:rgb(0,0,255);stroke:none;" />
  <ellipse cx="187.1049" cy="303.4293" rx="2" ry="2" style="fill:rgb(0,0,255);stroke:none;" />
  <ellipse cx="192.5298" cy="303.1427" rx="2" ry="2" style="fill:rgb(0,0,255);stroke:none;" />
  <ellipse cx="197.9547" cy="302.7156" rx="2" ry="2" style="fill:rgb(0,0,255);stroke:none;" />
  <ellipse cx="203.3795" cy="302.3383" rx="2" ry="2" style="fill:rgb(0,0,255);stroke:none;" />
  <ellipse cx="208.8044" cy="301.8732" rx="2" ry="2" style="fill:rgb(0,0,255);stroke:none;" />
  <ellipse cx="214.2292" cy="301.6713" rx="2" ry="2" style="fill:rgb(0,0,255);stroke:none;" />
  <ellipse cx="219.6541" cy="301.1009" rx="2" ry="2" style="fill:rgb(0,0,255);stroke:none;" />
  <ellipse cx="225.0789" cy="301.1419" rx="2" ry="2" style="fill:rgb(0,0,255);stroke:none;" />
  <ellipse cx="230.5038" cy="300.6358" rx="2" ry="2" style="fill:rgb(0,0,255);stroke:none;" />
  <ellipse cx="235.9286" cy="299.9075" rx="2" ry="2" style="fill:rgb(0,0,255);stroke:none;" />
  <ellipse cx="241.3535" cy="299.4745" rx="2" ry="2" style="fill:rgb(0,0,255);stroke:none;" />
  <ellipse cx="246.7783" cy="299.3078" rx="2" ry="2" style="fill:rgb(0,0,255);stroke:none;" />
  <ellipse cx="252.2032" cy="298.8749" rx="2" ry="2" style="fill:rgb(0,0,255);stroke:none;" />
  <ellipse cx="257.628" cy="298.5941" rx="2" ry="2" style="fill:rgb(0,0,255);stroke:none;" />
  <ellipse cx="263.0529" cy="297.971" rx="2" ry="2" style="fill:rgb(0,0,255);stroke:none;" />
  <ellipse cx="268.4778" cy="297.465" rx="2" ry="2" style="fill:rgb(0,0,255);stroke:none;" />
  <ellipse cx="273.9026" cy="296.8975" rx="2" ry="2" style="fill:rgb(0,0,255);stroke:none;" />
  <ellipse cx="279.3275" cy="296.3944" rx="2" ry="2" style="fill:rgb(0,0,255);stroke:none;" />
  <ellipse cx="284.7523" cy="296.1837" rx="2" ry="2" style="fill:rgb(0,0,255);stroke:none;" />
  <ellipse cx="290.1772" cy="295.6514" rx="2" ry="2" style="fill:rgb(0,0,255);stroke:none;" />
  <ellipse cx="295.602" cy="295.3589" rx="2" ry="2" style="fill:rgb(0,0,255);stroke:none;" />
  <ellipse cx="301.0269" cy="294.9172" rx="2" ry="2" style="fill:rgb(0,0,255);stroke:none;" />
  <ellipse cx="306.4517" cy="294.5574" rx="2" ry="2" style="fill:rgb(0,0,255);stroke:none;" />
  <ellipse cx="311.8766" cy="294.4638" rx="2" ry="2" style="fill:rgb(0,0,255);stroke:none;" />
  <ellipse cx="317.3014" cy="293.8758" rx="2" ry="2" style="fill:rgb(0,0,255);stroke:none;" />
  <ellipse cx="322.7263" cy="293.44" rx="2" ry="2" style="fill:rgb(0,0,255);stroke:none;" />
  <ellipse cx="328.1511" cy="292.8052" rx="2" ry="2" style="fill:rgb(0,0,255);stroke:none;" />
  <ellipse cx="333.576" cy="292.7145" rx="2" ry="2" style="fill:rgb(0,0,255);stroke:none;" />
  <ellipse cx="339.0008" cy="291.9306" rx="2" ry="2" style="fill:rgb(0,0,255);stroke:none;" />
  <ellipse cx="344.4257" cy="291.4041" rx="2" ry="2" style="fill:rgb(0,0,255);stroke:none;" />
  <ellipse cx="349.8505" cy="291.1086" rx="2" ry="2" style="fill:rgb(0,0,255);stroke:none;" />
  <ellipse cx="355.2754" cy="290.585" rx="2" ry="2" style="fill:rgb(0,0,255);stroke:none;" />
  <ellipse cx="360.7003" cy="290.2369" rx="2" ry="2" style="fill:rgb(0,0,255);stroke:none;" />
  <ellipse cx="366.1251" cy="289.7982" rx="2" ry="2" style="fill:rgb(0,0,255);stroke:none;" />
  <ellipse cx="371.55" cy="289.6461" rx="2" ry="2" style="fill:rgb(0,0,255);stroke:none;" />
  <ellipse cx="376.9748" cy="289.3038" rx="2" ry="2" style="fill:rgb(0,0,255);stroke:none;" />
  <ellipse cx="382.3997" cy="289.0405" rx="2" ry="2" style="fill:rgb(0,0,255);stroke:none;" />
  <polyline points="62.3333,313.0547 65.5663,311.9722 68.7993,310.8969 72.0323,309.8243 75.2653,308.7534 78.4983,307.6838 81.7313,306.6153 84.9643,305.5476 88.1973,304.4807 91.4303,303.4144 94.6633,302.3487 97.8963,301.2835 101.1292,300.2188 104.3622,299.1545 107.5952,298.0906 110.8282,297.027 114.0612,295.9638 117.2942,294.9009 120.5272,293.8384 123.7602,292.7761 126.9932,291.714 130.2262,290.6523 133.4592,289.5907 136.6922,288.5294 139.9252,287.4683 143.1582,286.4075 146.3912,285.3468 149.6241,284.2864 152.8571,283.2261 156.0901,282.166 159.3231,281.1061 162.5561,280.0463 165.7891,278.9868 169.0221,277.9273 172.2551,276.8681 175.4881,275.809 178.7211,274.75 181.9541,273.6912 185.1871,272.6325 188.4201,271.5739 191.6531,270.5155 194.8861,269.4572 198.119,268.399 201.352,267.341 204.585,266.283 207.818,265.2252 211.051,264.1675 214.284,263.1099 217.517,262.0524 220.75,260.9951 223.983,259.9378 227.216,258.8806 230.449,257.8235 233.682,256.7666 236.915,255.7097 240.148,254.6529 243.381,253.5962 246.6139,252.5396 249.8469,251.4831 253.0799,250.4267 256.3129,249.3703 259.5459,248.3141 262.7789,247.2579 266.0119,246.2018 269.2449,245.1458 272.4779,244.0899 275.7109,243.034 278.9439,241.9782 282.1769,240.9225 285.4099,239.8669 288.6429,238.8114 291.8759,237.7559 295.1088,236.7005 298.3418,235.6451 301.5748,234.5899 304.8078,233.5347 308.0408,232.4796 311.2738,231.4245 314.5068,230.3695 317.7398,229.3146 320.9728,228.2597 324.2058,227.2049 327.4388,226.1502 330.6718,225.0955 333.9048,224.0409 337.1378,222.9863 340.3708,221.9318 343.6037,220.8774 346.8367,219.823 350.0697,218.7687 353.3027,217.7144 356.5357,216.6602 359.7687,215.606 363.0017,214.5519 366.2347,213.4979 369.4677,212.4439 372.7007,211.39 375.9337,210.3361 379.1667,209.2823 382.3997,208.2285" style="fill:none;stroke:rgb(255,0,0);stroke-width:1;stroke-linejoin:bevel" />
  <polyline points="62.3333,314.4179 65.5663,311.3329 68.7993,308.2496 72.0323,305.1668 75.2653,302.0844 78.4983,299.0022 81.7313,295.9203 84.9643,292.8387 88.1973,289.7571 91.4303,286.6757 94.6633,283.5945 97.8963,280.5133 101.1292,277.4323 104.3622,274.3513 107.5952,271.2705 110.8282,268.1897 114.0612,265.109 117.2942,262.0283 120.5272,258.9478 123.7602,255.8673 126.9932,252.7868 130.2262,249.7064 133.4592,246.6261 136.6922,243.5458 139.9252,240.4656 143.1582,237.3854 146.3912,234.3053 149.6241,231.2252 152.8571,228.1451 156.0901,225.0651 159.3231,221.9851 162.5561,218.9052 165.7891,215.8253 169.0221,212.7454 172.2551,209.6656 175.4881,206.5858 178.7211,203.5061 181.9541,200.4263 185.1871,197.3466 188.4201,194.267 191.6531,191.1873 194.8861,188.1077 198.119,185.0281 201.352,181.9486 204.585,178.8691 207.818,175.7896 211.051,172.7101 214.284,169.6306 217.517,166.5512 220.75,163.4718 223.983,160.3924 227.216,157.313 230.449,154.2337 233.682,151.1544 236.915,148.0751 240.148,144.9958 243.381,141.9166 246.6139,138.8373 249.8469,135.7581 253.0799,132.6789 256.3129,129.5998 259.5459,126.5206 262.7789,123.4415 266.0119,120.3624 269.2449,117.2833 272.4779,114.2042 275.7109,111.1251 278.9439,108.0461 282.1769,104.967 285.4099,101.888 288.6429,98.809 291.8759,95.7301 295.1088,92.6511 298.3418,89.5722 301.5748,86.4932 304.8078,83.4143 308.0408,80.3354 311.2738,77.2565 314.5068,74.1776 317.7398,71.0988 320.9728,68.0199 324.2058,64.9411 327.4388,61.8623 330.6718,58.7835 333.9048,55.7047 337.1378,52.6259 340.3708,49.5472 343.6037,46.4684 346.8367,43.3897 350.0697,40.311 353.3027,37.2323 356.5357,34.1536 359.7687,31.0749 363.0017,27.9962 366.2347,24.9176 369.4677,21.8389 372.7007,18.7603 375.9337,15.6817 379.1667,12.6031 382.3997,9.5245" style="fill:none;stroke:rgb(0,128,0);stroke-width:1;stroke-linejoin:bevel" />
  <polyline points="62.3333,312.557 65.5663,312.3484 68.7993,312.1309 72.0323,311.9097 75.2653,311.6863 78.4983,311.4611 81.7313,311.2345 84.9643,311.0067 88.1973,310.778 91.4303,310.5483 94.6633,310.3179 97.8963,310.0867 101.1292,309.8549 104.3622,309.6225 107.5952,309.3895 110.8282,309.1561 114.0612,308.9221 117.2942,308.6877 120.5272,308.4529 123.7602,308.2177 126.9932,307.9821 130.2262,307.7461 133.4592,307.5098 136.6922,307.2731 139.9252,307.0361 143.1582,306.7989 146.3912,306.5613 149.6241,306.3234 152.8571,306.0853 156.0901,305.8469 159.3231,305.6083 162.5561,305.3694 165.7891,305.1303 169.0221,304.891 172.2551,304.6514 175.4881,304.4116 178.7211,304.1716 181.9541,303.9314 185.1871,303.691 188.4201,303.4504 191.6531,303.2096 194.8861,302.9686 198.119,302.7275 201.352,302.4861 204.585,302.2446 207.818,302.0029 211.051,301.7611 214.284,301.5191 217.517,301.2769 220.75,301.0346 223.983,300.7921 227.216,300.5495 230.449,300.3068 233.682,300.0638 236.915,299.8208 240.148,299.5776 243.381,299.3343 246.6139,299.0908 249.8469,298.8472 253.0799,298.6035 256.3129,298.3597 259.5459,298.1157 262.7789,297.8716 266.0119,297.6274 269.2449,297.383 272.4779,297.1386 275.7109,296.894 278.9439,296.6493 282.1769,296.4045 285.4099,296.1596 288.6429,295.9146 291.8759,295.6695 295.1088,295.4242 298.3418,295.1789 301.5748,294.9334 304.8078,294.6879 308.0408,294.4423 311.2738,294.1965 314.5068,293.9507 317.7398,293.7047 320.9728,293.4587 324.2058,293.2126 327.4388,292.9663 330.6718,292.72 333.9048,292.4736 337.1378,292.2271 340.3708,291.9805 343.6037,291.7339 346.8367,291.4871 350.0697,291.2402 353.3027,290.9933 356.5357,290.7463 359.7687,290.4992 363.0017,290.252 366.2347,290.0047 369.4677,289.7574 372.7007,289.5099 375.9337,289.2624 379.1667,289.0148 382.3997,288.7672" style="fill:none;stroke:rgb(0,0,255);stroke-width:1;stroke-linejoin:bevel" />
  <polyline points="62.3333,313.0547 65.5663,312.0192 68.7993,310.9766 72.0323,309.9315 75.2653,308.8846 78.4983,307.8364 81.7313,306.7872 84.9643,305.7372 88.1973,304.6864 91.4303,303.635 94.6633,302.583 97.8963,301.5305 101.1292,300.4776 104.3622,299.4242 107.5952,298.3704 110.8282,297.3163 114.0612,296.2618 117.2942,295.2071 120.5272,294.152 123.7602,293.0966 126.9932,292.0409 130.2262,290.9851 133.4592,289.9289 136.6922,288.8725 139.9252,287.8159 143.1582,286.7591 146.3912,285.7021 149.6241,284.6449 152.8571,283.5875 156.0901,282.5299 159.3231,281.4722 162.5561,280.4142 165.7891,279.3561 169.0221,278.2979 172.2551,277.2395 175.4881,276.1809 178.7211,275.1222 181.9541,274.0633 185.1871,273.0044 188.4201,271.9452 191.6531,270.886 194.8861,269.8266 198.119,268.7671 201.352,267.7075 204.585,266.6477 207.818,265.5878 211.051,264.5279 214.284,263.4678 217.517,262.4076 220.75,261.3473 223.983,260.2869 227.216,259.2263 230.449,258.1657 233.682,257.105 236.915,256.0442 240.148,254.9833 243.381,253.9223 246.6139,252.8612 249.8469,251.8 253.0799,250.7388 256.3129,249.6774 259.5459,248.616 262.7789,247.5544 266.0119,246.4928 269.2449,245.4311 272.4779,244.3694 275.7109,243.3075 278.9439,242.2456 282.1769,241.1836 285.4099,240.1215 288.6429,239.0593 291.8759,237.9971 295.1088,236.9348 298.3418,235.8724 301.5748,234.81 304.8078,233.7475 308.0408,232.6849 311.2738,231.6223 314.5068,230.5596 317.7398,229.4968 320.9728,228.4339 324.2058,227.371 327.4388,226.308 330.6718,225.245 333.9048,224.1819 337.1378,223.1188 340.3708,222.0555 343.6037,220.9923 346.8367,219.9289 350.0697,218.8655 353.3027,217.8021 356.5357,216.7386 359.7687,215.675 363.0017,214.6114 366.2347,213.5477 369.4677,212.4839 372.7007,211.4202 375.9337,210.3563 379.1667,209.2924 382.3997,208.2285" style="fill:none;stroke:rgb(255,0,0);stroke-width:1;stroke-linejoin:bevel;stroke-dasharray:4,1" />
  <polyline points="62.3333,314.4179 65.5663,311.3434 68.7993,308.2673 72.0323,305.1907 75.2653,302.1136 78.4983,299.0363 81.7313,295.9587 84.9643,292.8809 88.1973,289.803 91.4303,286.7249 94.6633,283.6467 97.8963,280.5684 101.1292,277.49 104.3622,274.4115 107.5952,271.3329 110.8282,268.2542 114.0612,265.1754 117.2942,262.0966 120.5272,259.0177 123.7602,255.9387 126.9932,252.8597 130.2262,249.7807 133.4592,246.7015 136.6922,243.6223 139.9252,240.5431 143.1582,237.4638 146.3912,234.3845 149.6241,231.3051 152.8571,228.2257 156.0901,225.1463 159.3231,222.0668 162.5561,218.9872 165.7891,215.9077 169.0221,212.8281 172.2551,209.7484 175.4881,206.6688 178.7211,203.5891 181.9541,200.5093 185.1871,197.4296 188.4201,194.3498 191.6531,191.27 194.8861,188.1901 198.119,185.1102 201.352,182.0303 204.585,178.9504 207.818,175.8704 211.051,172.7904 214.284,169.7104 217.517,166.6304 220.75,163.5503 223.983,160.4703 227.216,157.3901 230.449,154.31 233.682,151.2299 236.915,148.1497 240.148,145.0695 243.381,141.9893 246.6139,138.9091 249.8469,135.8288 253.0799,132.7485 256.3129,129.6683 259.5459,126.5879 262.7789,123.5076 266.0119,120.4273 269.2449,117.3469 272.4779,114.2665 275.7109,111.1861 278.9439,108.1057 282.1769,105.0253 285.4099,101.9448 288.6429,98.8643 291.8759,95.7839 295.1088,92.7034 298.3418,89.6228 301.5748,86.5423 304.8078,83.4618 308.0408,80.3812 311.2738,77.3006 314.5068,74.22 317.7398,71.1394 320.9728,68.0588 324.2058,64.9782 327.4388,61.8975 330.6718,58.8169 333.9048,55.7362 337.1378,52.6555 340.3708,49.5748 343.6037,46.4941 346.8367,43.4133 350.0697,40.3326 353.3027,37.2518 356.5357,34.1711 359.7687,31.0903 363.0017,28.0095 366.2347,24.9287 369.4677,21.8479 372.7007,18.767 375.9337,15.6862 379.1667,12.6053 382.3997,9.5245" style="fill:none;stroke:rgb(0,128,0);stroke-width:1;stroke-linejoin:bevel;stroke-dasharray:4,1" />
  <polyline points="62.3333,312.557 65.5663,312.2814 68.7993,312.017 72.0323,311.7567 75.2653,311.4991 78.4983,311.2434 81.7313,310.9892 84.9643,310.7363 88.1973,310.4845 91.4303,310.2336 94.6633,309.9836 97.8963,309.7343 101.1292,309.4857 104.3622,309.2377 107.5952,308.9903 110.8282,308.7434 114.0612,308.497 117.2942,308.251 120.5272,308.0055 123.7602,307.7604 126.9932,307.5157 130.2262,307.2713 133.4592,307.0273 136.6922,306.7837 139.9252,306.5403 143.1582,306.2973 146.3912,306.0545 149.6241,305.812 152.8571,305.5698 156.0901,305.3278 159.3231,305.0861 162.5561,304.8447 165.7891,304.6034 169.0221,304.3624 172.2551,304.1216 175.4881,303.881 178.7211,303.6407 181.9541,303.4005 185.1871,303.1605 188.4201,302.9207 191.6531,302.6811 194.8861,302.4417 198.119,302.2024 201.352,301.9633 204.585,301.7244 207.818,301.4856 211.051,301.247 214.284,301.0086 217.517,300.7703 220.75,300.5322 223.983,300.2942 227.216,300.0563 230.449,299.8186 233.682,299.581 236.915,299.3436 240.148,299.1062 243.381,298.869 246.6139,298.632 249.8469,298.395 253.0799,298.1582 256.3129,297.9215 259.5459,297.685 262.7789,297.4485 266.0119,297.2122 269.2449,296.9759 272.4779,296.7398 275.7109,296.5038 278.9439,296.2679 282.1769,296.0321 285.4099,295.7964 288.6429,295.5608 291.8759,295.3253 295.1088,295.0899 298.3418,294.8546 301.5748,294.6194 304.8078,294.3843 308.0408,294.1492 311.2738,293.9143 314.5068,293.6795 317.7398,293.4447 320.9728,293.2101 324.2058,292.9755 327.4388,292.7411 330.6718,292.5067 333.9048,292.2723 337.1378,292.0381 340.3708,291.804 343.6037,291.5699 346.8367,291.3359 350.0697,291.102 353.3027,290.8682 356.5357,290.6345 359.7687,290.4008 363.0017,290.1672 366.2347,289.9337 369.4677,289.7002 372.7007,289.4669 375.9337,289.2336 379.1667,289.0003 382.3997,288.7672" style="fill:none;stroke:rgb(0,0,255);stroke-width:1;stroke-linejoin:bevel;stroke-dasharray:4,1" />
  <polygon points="60.725,8 384,8 384,315.95 60.725,315.95" style="fill:none;stroke:black;stroke-width:1" />
  <polygon points="68.725,16 137.8312,16 137.8312,185.225 68.725,185.225" style="fill:none;stroke:none;" />
  <text dominant-baseline="hanging" text-anchor="start" transform="translate(96.725,24)" font-family="Segoe UI" font-size="12" font-weight="400" fill="black">R</text>
  <ellipse cx="84.725" cy="32.5125" rx="2" ry="2" style="fill:rgb(255,0,0);stroke:none;" />
  <text dominant-baseline="hanging" text-anchor="start" transform="translate(96.725,41.025)" font-family="Segoe UI" font-size="12" font-weight="400" fill="black">G</text>
  <ellipse cx="84.725" cy="49.5375" rx="2" ry="2" style="fill:rgb(0,128,0);stroke:none;" />
  <text dominant-baseline="hanging" text-anchor="start" transform="translate(96.725,58.05)" font-family="Segoe UI" font-size="12" font-weight="400" fill="black">B</text>
  <ellipse cx="84.725" cy="66.5625" rx="2" ry="2" style="fill:rgb(0,0,255);stroke:none;" />
  <text dominant-baseline="hanging" text-anchor="start" transform="translate(96.725,75.075)" font-family="Segoe UI" font-size="12" font-weight="400" fill="black">RFit</text>
  <polyline points="76.725,83.5875 92.725,83.5875" style="fill:none;stroke:rgb(255,0,0);stroke-width:1" />
  <text dominant-baseline="hanging" text-anchor="start" transform="translate(96.725,92.1)" font-family="Segoe UI" font-size="12" font-weight="400" fill="black">GFit</text>
  <polyline points="76.725,100.6125 92.725,100.6125" style="fill:none;stroke:rgb(0,128,0);stroke-width:1" />
  <text dominant-baseline="hanging" text-anchor="start" transform="translate(96.725,109.125)" font-family="Segoe UI" font-size="12" font-weight="400" fill="black">BFit</text>
  <polyline points="76.725,117.6375 92.725,117.6375" style="fill:none;stroke:rgb(0,0,255);stroke-width:1" />
  <text dominant-baseline="hanging" text-anchor="start" transform="translate(96.725,126.15)" font-family="Segoe UI" font-size="12" font-weight="400" fill="black">RCorr</text>
  <polyline points="76.725,134.6625 92.725,134.6625" style="fill:none;stroke:rgb(255,0,0);stroke-width:1;stroke-dasharray:4,1" />
  <text dominant-baseline="hanging" text-anchor="start" transform="translate(96.725,143.175)" font-family="Segoe UI" font-size="12" font-weight="400" fill="black">GCorr</text>
  <polyline points="76.725,151.6875 92.725,151.6875" style="fill:none;stroke:rgb(0,128,0);stroke-width:1;stroke-dasharray:4,1" />
  <text dominant-baseline="hanging" text-anchor="start" transform="translate(96.725,160.2)" font-family="Segoe UI" font-size="12" font-weight="400" fill="black">BCorr</text>
  <polyline points="76.725,168.7125 92.725,168.7125" style="fill:none;stroke:rgb(0,0,255);stroke-width:1;stroke-dasharray:4,1" />
</svg>