<?xml version="1.0" standalone="no"?>
<!DOCTYPE svg PUBLIC "-//W3C//DTD SVG 20010904//EN"
 "http://www.w3.org/TR/2001/REC-SVG-20010904/DTD/svg10.dtd">
<svg version="1.0" xmlns="http://www.w3.org/2000/svg"
 width="1024.000000pt" height="1024.000000pt" viewBox="0 0 1024.000000 1024.000000"
 preserveAspectRatio="xMidYMid meet">
<metadata>
Created by potrace 1.11, written by Peter Selinger 2001-2013
</metadata>
<g transform="translate(0.000000,1024.000000) scale(0.100000,-0.100000)"
fill="#000000" stroke="none">
<path d="M1612 10138 c-131 -19 -242 -113 -287 -243 -14 -40 -18 -89 -19 -240
-1 -104 2 -208 6 -230 14 -65 47 -139 243 -540 70 -143 167 -341 215 -440 48
-99 133 -272 187 -385 55 -113 139 -284 186 -380 46 -96 135 -278 197 -405 62
-126 156 -320 210 -430 54 -110 148 -303 210 -430 62 -126 143 -293 180 -370
37 -77 123 -252 190 -390 67 -137 151 -311 188 -385 36 -74 65 -139 65 -145 0
-11 -24 -62 -173 -370 -105 -215 -194 -401 -285 -590 -72 -151 -171 -354 -279
-578 -42 -87 -110 -227 -150 -310 -40 -84 -105 -217 -144 -297 -38 -80 -97
-201 -130 -270 -33 -69 -97 -201 -142 -295 -45 -93 -108 -224 -140 -290 -32
-66 -102 -210 -155 -320 -54 -110 -119 -245 -145 -300 -27 -55 -86 -179 -132
-275 -46 -96 -107 -218 -135 -270 -28 -52 -55 -117 -60 -145 -10 -59 -9 -372
1 -430 11 -58 63 -150 109 -191 50 -46 133 -84 200 -92 29 -4 1616 -7 3527 -6
3581 1 3501 0 3580 37 99 47 181 158 198 269 12 79 7 396 -7 447 -7 24 -30 73
-52 108 -21 36 -39 66 -39 68 0 2 -45 97 -101 212 -56 114 -118 244 -139 288
-36 76 -108 225 -292 605 -44 91 -106 219 -138 285 -32 66 -92 192 -135 280
-43 88 -101 210 -130 270 -29 61 -97 200 -150 310 -54 110 -123 254 -155 320
-79 164 -172 358 -267 555 -336 694 -362 749 -413 856 -27 56 -50 107 -51 115
-2 8 24 70 58 139 33 69 106 217 161 330 55 113 152 313 217 445 133 272 271
555 385 790 43 88 130 268 195 400 183 373 320 655 405 830 43 88 130 268 195
400 214 438 347 709 367 755 12 25 32 70 46 100 41 88 48 142 47 340 -1 145
-6 198 -19 240 -34 109 -127 202 -236 236 -52 17 -257 18 -3536 18 -1914 1
-3504 -2 -3532 -6z m6224 -1018 c-2 -3 -26 -52 -54 -110 -46 -97 -106 -220
-389 -800 -58 -118 -140 -287 -183 -375 -43 -88 -126 -259 -185 -380 -59 -121
-149 -305 -200 -410 -51 -104 -150 -307 -220 -450 -69 -143 -150 -308 -178
-367 l-51 -107 -105 108 c-126 127 -144 142 -258 219 -174 117 -364 196 -583
243 -89 20 -136 23 -310 23 -230 1 -318 -13 -520 -81 -244 -82 -490 -243 -662
-433 -34 -38 -66 -70 -70 -70 -4 0 -32 51 -62 113 -30 61 -107 220 -171 352
-65 132 -160 328 -212 435 -242 496 -288 590 -398 815 -65 132 -150 308 -190
390 -40 83 -137 281 -215 440 -78 160 -158 324 -177 365 -19 41 -37 77 -38 81
-2 3 1220 5 2715 5 1495 0 2717 -3 2716 -6z m-3676 -5282 c154 -112 300 -187
471 -242 181 -58 302 -75 514 -71 99 1 194 6 210 9 17 4 57 11 90 17 89 16
286 84 389 136 175 88 326 201 460 345 l82 89 81 -168 c82 -167 199 -411 318
-658 34 -71 96 -200 137 -285 42 -85 106 -218 143 -295 157 -326 211 -438 280
-580 40 -82 103 -213 140 -290 37 -77 101 -210 142 -295 129 -265 203 -422
203 -429 0 -4 -1217 -7 -2704 -7 l-2704 0 18 36 c10 19 34 69 53 110 19 41 76
161 127 265 51 105 116 240 145 300 29 61 94 196 145 300 107 220 246 509 415
860 63 131 136 281 314 650 54 110 128 264 166 342 l68 141 111 -112 c61 -62
145 -138 186 -168z"/>
</g>
</svg>
